<svg width="1300" height="1300" viewBox="0 0 1300 1300" fill="none" xmlns="http://www.w3.org/2000/svg">
<path d="M650 1300C290.71 1300 0 1008.86 0 650C0 290.71 291.141 0 650 0C1009.29 0 1300 291.141 1300 650C1300.43 1009.29 1009.29 1300 650 1300Z" fill="#1D1075"/>
<mask id="mask0_324_1446" style="mask-type:alpha" maskUnits="userSpaceOnUse" x="0" y="0" width="1301" height="1300">
<path d="M650 1300C290.71 1300 0 1008.86 0 650C0 290.71 291.141 0 650 0C1009.29 0 1300 291.141 1300 650C1300.43 1009.29 1009.29 1300 650 1300Z" fill="#F7C0B5"/>
</mask>
<g mask="url(#mask0_324_1446)">
<path d="M1015.73 1197.33C1012.7 1199.49 1009.23 1201.66 1006.2 1203.83C1002.73 1205.99 999.698 1208.16 996.231 1209.89C993.198 1211.63 990.598 1213.36 987.564 1215.09C987.131 1215.53 986.698 1215.53 986.264 1215.96C976.298 1222.03 965.898 1227.66 955.498 1232.86C952.464 1234.59 948.998 1236.33 945.964 1237.63C945.964 1237.63 945.531 1238.06 945.098 1238.06C941.631 1239.79 938.164 1241.53 934.698 1243.26C927.764 1246.73 920.398 1249.76 913.464 1252.79C909.998 1254.53 906.098 1255.83 902.631 1257.13C899.164 1258.43 895.264 1260.16 891.798 1261.46C888.331 1262.76 884.431 1264.49 880.964 1265.79C880.964 1265.79 880.964 1265.79 880.531 1265.79C877.064 1267.09 873.164 1268.39 869.698 1269.69C861.898 1272.29 853.664 1274.89 845.864 1277.49C843.264 1278.36 840.231 1279.23 837.631 1280.09C829.398 1282.69 821.164 1284.86 812.931 1286.59C809.898 1287.46 806.864 1287.89 803.398 1288.76C795.598 1290.49 787.364 1292.23 779.564 1293.96C777.831 1294.39 776.531 1294.39 774.798 1294.83C772.198 1295.26 769.164 1295.69 766.564 1296.13C762.664 1296.56 759.198 1297.43 755.298 1297.86C753.564 1298.29 751.831 1298.29 750.098 1298.73C747.931 1299.16 745.331 1299.59 742.731 1299.59C735.798 1300.46 728.431 1301.33 721.498 1302.19C719.331 1302.63 716.731 1302.63 714.564 1303.06H714.131C711.098 1303.49 708.064 1303.49 705.031 1303.93C701.998 1304.36 698.964 1304.36 695.931 1304.36C694.198 1304.36 692.031 1304.79 690.298 1304.79C686.831 1304.79 683.798 1305.23 680.764 1305.23C676.431 1305.23 672.531 1305.66 668.198 1305.66C663.864 1305.66 659.964 1305.66 655.631 1305.66C652.598 1305.66 649.564 1305.66 646.531 1305.66C464.098 1303.06 299.431 1225.49 182.431 1102.43C182.431 1102.43 182.431 1101.99 181.998 1101.99C195.431 1075.56 245.264 1027.89 297.264 988.461C363.131 938.628 456.298 907.861 456.298 907.861C456.298 907.861 517.398 897.895 744.031 945.128C916.931 981.528 990.598 1129.29 1015.73 1197.33Z" fill="#FEE4BF"/>
<path d="M792.131 1065.16C783.031 1109.8 724.098 1136.23 624.865 1096.36C503.098 1046.96 456.298 907.863 456.298 907.863C449.798 808.196 434.631 722.829 434.631 722.829C575.465 710.696 741.865 875.363 741.865 875.363L760.931 956.829C762.665 963.763 766.131 969.829 771.331 974.163C780.431 989.763 798.198 1036.56 792.131 1065.16Z" fill="#FEE4BF"/>
<path d="M771.331 974.597C688.564 970.264 627.464 958.131 562.031 840.697C617.497 889.664 682.931 908.297 751.831 916.964L760.931 956.831C762.664 964.197 766.131 970.264 771.331 974.597Z" fill="#EFBDA5"/>
<path d="M942.498 452.43C950.298 488.83 954.198 518.296 932.964 615.363C911.731 712.43 952.464 809.496 850.198 898.33C781.298 958.13 660.831 969.396 564.631 903.963C532.131 881.863 502.231 851.096 477.964 810.796C458.898 779.163 436.798 749.263 412.098 721.963C377.864 684.696 336.698 609.73 357.064 477.13C389.998 261.33 603.631 236.63 729.731 260.463C855.831 284.296 921.264 356.23 942.498 452.43Z" fill="#FEE4BF"/>
<path d="M527.797 621.86C527.797 621.86 514.364 556.861 451.097 564.661C396.497 571.594 377.431 702.46 501.364 738.86" fill="#FEE4BF"/>
<path d="M497.464 679.497C497.464 679.497 481.864 669.53 483.598 652.197C486.198 631.83 483.598 619.263 474.064 615.363C450.231 605.397 445.464 633.13 446.331 636.597" stroke="#423232" stroke-width="13" stroke-miterlimit="10" stroke-linecap="round" stroke-linejoin="round"/>
<path d="M828.098 721.529C828.098 721.529 844.564 722.396 860.164 703.763C868.831 693.363 876.198 680.363 871.431 676.463C866.664 672.129 788.231 684.263 783.031 694.663C777.831 705.063 808.164 721.529 828.098 721.529Z" fill="#EFBDA5"/>
<path d="M841.097 575.928C841.097 575.928 841.964 617.094 868.397 663.028C880.097 683.394 862.331 716.761 823.764 722.394" stroke="#423232" stroke-width="13" stroke-miterlimit="10" stroke-linecap="round" stroke-linejoin="round"/>
<path opacity="0.42" d="M606.231 743.629C630.881 743.629 650.864 727.138 650.864 706.795C650.864 686.453 630.881 669.962 606.231 669.962C581.581 669.962 561.598 686.453 561.598 706.795C561.598 727.138 581.581 743.629 606.231 743.629Z" fill="#F2A5B2"/>
<path opacity="0.42" d="M926.031 670.829C924.731 695.096 925.164 718.929 923.431 742.762C904.364 738.429 890.498 724.129 890.498 707.229C890.498 689.029 905.664 674.296 926.031 670.829Z" fill="#F2A5B2"/>
<path d="M1158.24 1464.67H62.7762C62.7762 1464.67 69.2762 1263.6 135.143 1120.17C184.976 1011.83 302.41 951.601 389.943 920.401C414.643 911.734 437.176 905.234 454.51 900.468C454.51 902.634 454.943 904.368 454.943 906.534C454.943 906.534 494.376 994.934 616.143 1043.9C715.376 1084.2 750.043 1068.17 759.143 1023.53C764.776 994.934 779.076 988.434 769.976 973.268C764.776 968.934 761.31 962.434 759.576 955.934L756.11 941.634C764.343 939.901 772.143 937.734 779.943 935.134C782.543 934.268 784.71 933.401 787.31 932.534C843.21 947.268 927.276 982.368 1026.51 1065.57C1138.31 1159.6 1158.24 1464.67 1158.24 1464.67Z" fill="#CC5292"/>
<mask id="mask1_324_1446" style="mask-type:alpha" maskUnits="userSpaceOnUse" x="62" y="900" width="1097" height="565">
<path d="M1158.24 1464.67H62.7773C62.7773 1464.67 69.2773 1263.6 135.144 1120.17C184.977 1011.83 302.411 951.601 389.944 920.401C414.644 911.734 437.177 905.234 454.511 900.468C454.511 902.634 454.944 904.368 454.944 906.534C454.944 906.534 494.377 994.934 616.144 1043.9C715.377 1084.2 750.044 1068.17 759.144 1023.53C764.777 994.934 779.077 988.434 769.977 973.268C764.777 968.934 761.311 962.434 759.577 955.934L756.111 941.634C764.344 939.901 772.144 937.734 779.944 935.134C782.544 934.268 784.711 933.401 787.311 932.534C843.211 947.268 927.277 982.368 1026.51 1065.57C1138.31 1159.6 1158.24 1464.67 1158.24 1464.67Z" fill="#CC5292"/>
</mask>
<g mask="url(#mask1_324_1446)">
<path d="M119.11 1306.5C83.5762 1306.5 51.5095 1283.96 39.8095 1250.6C32.0095 1229.36 33.3095 1206.4 42.8429 1186.03C52.3762 1165.66 69.2762 1150.06 90.5095 1142.7C99.6095 1139.23 109.143 1137.5 119.11 1137.5C154.643 1137.5 186.71 1160.03 198.41 1193.4C214.01 1237.16 191.476 1285.7 147.71 1301.3C138.61 1304.76 129.076 1306.5 119.11 1306.5Z" stroke="#6F2696" stroke-width="13" stroke-miterlimit="10" stroke-linecap="round" stroke-linejoin="round"/>
<path d="M158.11 1208.13C165.91 1229.36 154.643 1253.2 133.41 1260.56C112.176 1268.36 88.343 1257.1 80.9763 1235.86C73.1763 1214.63 84.443 1190.8 105.676 1183.43C126.91 1175.63 150.31 1186.9 158.11 1208.13Z" fill="white"/>
<path d="M216.61 1100.23C181.076 1100.23 149.01 1077.7 137.31 1044.33C129.51 1023.1 130.81 1000.13 140.343 979.767C149.876 959.4 166.776 943.8 188.01 936.433C197.11 932.967 206.643 931.233 216.61 931.233C252.143 931.233 284.21 953.767 295.91 987.133C303.71 1008.37 302.41 1031.33 292.876 1051.7C283.343 1072.07 266.443 1087.67 245.21 1095.03C235.676 1098.5 226.143 1100.23 216.61 1100.23Z" stroke="#6F2696" stroke-width="13" stroke-miterlimit="10" stroke-linecap="round" stroke-linejoin="round"/>
<path d="M255.176 1001.87C262.976 1023.1 251.71 1046.93 230.476 1054.3C209.243 1062.1 185.41 1050.83 178.043 1029.6C170.243 1008.37 181.51 984.535 202.743 977.168C223.976 969.368 247.376 980.201 255.176 1001.87Z" fill="white"/>
<path d="M312.376 896.566C276.843 896.566 244.776 874.033 233.076 840.666C217.476 796.9 240.009 748.366 283.776 732.766C292.876 729.3 302.409 727.566 312.376 727.566C347.909 727.566 379.976 750.1 391.676 783.466C407.276 827.233 384.743 875.766 340.976 891.366C331.876 894.833 322.343 896.566 312.376 896.566Z" stroke="#6F2696" stroke-width="13" stroke-miterlimit="10" stroke-linecap="round" stroke-linejoin="round"/>
<path d="M367.843 1307.37C332.31 1307.37 300.243 1284.83 288.543 1251.47C280.743 1230.23 282.043 1207.27 291.576 1186.9C301.11 1166.53 318.01 1150.93 339.243 1143.57C348.343 1140.1 357.876 1138.37 367.843 1138.37C403.376 1138.37 435.443 1160.9 447.143 1194.27C454.943 1215.5 453.643 1238.47 444.11 1258.83C434.576 1279.2 417.676 1294.8 396.443 1302.17C387.343 1305.63 377.376 1307.37 367.843 1307.37Z" stroke="#6F2696" stroke-width="13" stroke-miterlimit="10" stroke-linecap="round" stroke-linejoin="round"/>
<path d="M406.41 1209C414.21 1230.23 402.943 1254.07 381.71 1261.43C360.476 1269.23 336.643 1257.97 329.276 1236.73C321.476 1215.5 332.743 1191.67 353.976 1184.3C375.21 1176.5 398.61 1187.33 406.41 1209Z" fill="white"/>
<path d="M464.91 1100.67C429.377 1100.67 397.31 1078.13 385.61 1044.77C377.81 1023.53 379.11 1000.57 388.643 980.198C398.177 959.832 415.077 944.232 436.31 936.865C445.41 933.398 454.943 931.665 464.91 931.665C500.443 931.665 532.51 954.198 544.21 987.565C552.01 1008.8 550.71 1031.77 541.176 1052.13C531.643 1072.5 514.743 1088.1 493.51 1095.47C484.41 1098.93 474.876 1100.67 464.91 1100.67Z" stroke="#6F2696" stroke-width="13" stroke-miterlimit="10" stroke-linecap="round" stroke-linejoin="round"/>
<path d="M503.91 1002.3C511.71 1023.53 500.443 1047.37 479.21 1054.73C457.976 1062.53 434.143 1051.27 426.776 1030.03C418.976 1008.8 430.243 984.965 451.476 977.598C472.71 969.798 496.11 981.065 503.91 1002.3Z" fill="white"/>
<path d="M561.11 896.998C525.576 896.998 493.51 874.465 481.81 841.098C474.01 819.865 475.31 796.898 484.843 776.531C494.376 756.165 511.276 740.565 532.51 733.198C541.61 729.731 551.143 727.998 561.11 727.998C596.643 727.998 628.71 750.531 640.41 783.898C656.01 827.665 633.476 876.198 589.71 891.798C580.176 895.698 570.643 896.998 561.11 896.998Z" stroke="#6F2696" stroke-width="13" stroke-miterlimit="10" stroke-linecap="round" stroke-linejoin="round"/>
<path d="M623.943 1292.2C588.41 1292.2 556.343 1269.67 544.643 1236.3C529.043 1192.53 551.576 1144 595.343 1128.4C604.443 1124.93 613.976 1123.2 623.943 1123.2C659.476 1123.2 691.543 1145.73 703.243 1179.1C711.043 1200.33 709.743 1223.3 700.21 1243.67C690.676 1264.03 673.776 1279.63 652.543 1287C643.01 1290.47 633.476 1292.2 623.943 1292.2Z" stroke="#6F2696" stroke-width="13" stroke-miterlimit="10" stroke-linecap="round" stroke-linejoin="round"/>
<path d="M662.51 1193.83C670.31 1215.07 659.043 1238.9 637.81 1246.27C616.576 1254.07 592.743 1242.8 585.376 1221.57C577.576 1200.33 588.843 1176.5 610.076 1169.13C631.31 1161.33 654.71 1172.17 662.51 1193.83Z" fill="white"/>
<path d="M719.709 1088.53C684.176 1088.53 652.109 1066 640.409 1032.63C624.809 988.866 647.343 940.332 691.109 924.732C700.209 921.266 709.743 919.532 719.709 919.532C755.243 919.532 787.309 942.066 799.009 975.432C814.609 1019.2 792.076 1067.73 748.309 1083.33C739.209 1086.8 729.243 1088.53 719.709 1088.53Z" stroke="#6F2696" stroke-width="13" stroke-miterlimit="10" stroke-linecap="round" stroke-linejoin="round"/>
<path d="M758.276 990.167C766.076 1011.4 754.81 1035.23 733.576 1042.6C712.343 1050.4 688.51 1039.13 681.143 1017.9C673.343 996.667 684.61 972.834 705.843 965.467C727.076 957.667 750.91 968.5 758.276 990.167Z" fill="white"/>
<path d="M872.243 1292.63C836.71 1292.63 804.643 1270.1 792.943 1236.73C777.343 1192.97 799.876 1144.43 843.643 1128.83C852.743 1125.37 862.276 1123.63 872.243 1123.63C907.776 1123.63 939.843 1146.17 951.543 1179.53C959.343 1200.77 958.043 1223.73 948.51 1244.1C938.976 1264.47 922.076 1280.07 900.843 1287.43C891.743 1290.9 882.21 1292.63 872.243 1292.63Z" stroke="#6F2696" stroke-width="13" stroke-miterlimit="10" stroke-linecap="round" stroke-linejoin="round"/>
<path d="M910.809 1194.27C918.609 1215.5 907.343 1239.33 886.109 1246.7C864.876 1254.5 841.043 1243.23 833.676 1222C825.876 1200.77 837.143 1176.93 858.376 1169.57C879.609 1161.77 903.443 1173.03 910.809 1194.27Z" fill="white"/>
<path d="M968.01 1088.97C932.476 1088.97 900.41 1066.43 888.71 1033.07C880.91 1011.83 882.21 988.868 891.743 968.501C901.276 948.134 918.176 932.534 939.41 925.168C948.51 921.701 958.043 919.968 968.01 919.968C1003.54 919.968 1035.61 942.501 1047.31 975.868C1062.91 1019.63 1040.38 1068.17 996.176 1083.77C987.51 1087.23 977.976 1088.97 968.01 1088.97Z" stroke="#6F2696" stroke-width="13" stroke-miterlimit="10" stroke-linecap="round" stroke-linejoin="round"/>
<path d="M1007.01 990.601C1014.81 1011.83 1003.54 1035.67 982.31 1043.03C961.076 1050.83 937.243 1039.57 929.876 1018.33C922.076 997.101 933.343 973.268 954.576 965.901C975.81 958.101 999.21 969.368 1007.01 990.601Z" fill="white"/>
</g>
<path d="M719.276 1076.83C719.709 1077.27 719.709 1077.27 720.143 1077.7C720.143 1077.27 720.143 1076.83 720.143 1076.83C719.709 1076.4 719.276 1076.4 719.276 1076.83Z" fill="white"/>
<path d="M277.276 1464.66L257.776 1304.33" stroke="#544D4D" stroke-width="13" stroke-miterlimit="10" stroke-linecap="round" stroke-linejoin="round"/>
<path d="M1033.88 1249.3C1033.88 1249.3 1020.88 1280.94 1024.78 1312.57C1028.68 1344.2 1039.94 1390.57 1023.91 1464.67" stroke="#544D4D" stroke-width="13" stroke-miterlimit="10" stroke-linecap="round" stroke-linejoin="round"/>
<path d="M822.409 915.633C822.409 915.633 763.043 957.666 648.643 939.9C552.009 924.733 485.709 889.633 461.876 875.333C455.809 871.433 451.476 864.933 451.043 857.566L450.609 851.066C450.609 851.066 430.243 852.8 426.776 881.4C425.043 895.266 425.043 917.366 425.476 936.866C425.909 962.866 436.309 988 454.509 1006.63C483.543 1036.53 543.776 1075.53 612.676 1087.23C778.643 1114.97 823.709 1042.6 822.409 1004.03C821.109 958.966 822.409 915.633 822.409 915.633Z" fill="#CC5292"/>
<path d="M425.476 936.434C425.909 962.434 436.309 987.567 454.509 1006.2C483.543 1036.1 543.776 1075.1 612.676 1086.8C778.643 1114.53 823.709 1042.17 822.409 1003.6" stroke="#993665" stroke-width="13" stroke-miterlimit="10" stroke-linecap="round" stroke-linejoin="round"/>
<path d="M708.443 944.233C708.443 944.233 744.843 948.567 743.976 988.867C743.11 1029.17 744.843 1085.07 744.843 1085.07" stroke="#993665" stroke-width="13" stroke-miterlimit="10" stroke-linecap="round" stroke-linejoin="round"/>
<path d="M685.91 1013.57C695.243 1013.57 702.81 1006 702.81 996.668C702.81 987.334 695.243 979.768 685.91 979.768C676.576 979.768 669.01 987.334 669.01 996.668C669.01 1006 676.576 1013.57 685.91 1013.57Z" fill="white"/>
<path d="M685.91 1068.17C695.243 1068.17 702.81 1060.6 702.81 1051.27C702.81 1041.93 695.243 1034.37 685.91 1034.37C676.576 1034.37 669.01 1041.93 669.01 1051.27C669.01 1060.6 676.576 1068.17 685.91 1068.17Z" fill="white"/>
<path d="M683.943 619.44C673.543 619.006 665.743 610.34 666.61 599.94L667.043 587.806C667.476 577.406 676.143 569.606 686.543 570.473C696.943 570.906 704.743 579.573 703.876 589.973L703.443 602.106C703.01 612.073 694.343 619.873 683.943 619.44Z" fill="#423232"/>
<path d="M866.375 625.94C856.842 625.506 849.475 617.273 849.909 607.74L850.342 596.473C850.775 586.94 859.009 579.573 868.542 580.006C878.075 580.44 885.442 588.673 885.009 598.206L884.575 609.473C884.142 619.006 875.909 626.373 866.375 625.94Z" fill="#423232"/>
<path d="M725.976 594.306C725.976 594.306 714.71 578.273 695.21 575.239C679.176 572.639 661.41 580.439 658.81 589.539" stroke="#423232" stroke-width="13" stroke-miterlimit="10" stroke-linecap="round" stroke-linejoin="round"/>
<path d="M853.81 598.206C853.81 598.206 853.81 584.339 873.743 584.339C890.21 584.339 897.143 599.506 897.143 599.506" stroke="#423232" stroke-width="13" stroke-miterlimit="10" stroke-linecap="round" stroke-linejoin="round"/>
<path d="M743.743 524.54C752.843 527.573 761.943 519.34 760.209 509.373C759.343 504.173 757.176 498.973 752.843 495.073C739.843 483.373 686.109 472.973 653.609 488.14C625.009 502.006 702.143 510.673 743.743 524.54Z" fill="#423232"/>
<path d="M873.308 531.472C865.941 534.072 858.141 526.272 859.441 517.172C859.875 512.405 861.608 507.639 865.075 504.172C875.475 493.772 911.008 485.539 933.541 501.572C953.041 515.005 907.108 518.905 873.308 531.472Z" fill="#423232"/>
<path d="M800.185 776.042C800.618 790.342 779.384 826.742 738.218 809.842C698.784 793.808 687.084 718.408 743.418 754.375C772.884 773.008 790.651 776.042 800.185 776.042Z" fill="white"/>
<path d="M808.417 774.308C808.417 774.308 790.217 784.275 743.417 754.375C687.517 718.408 698.784 793.808 738.217 809.842C779.384 826.742 800.617 789.908 800.184 776.042" stroke="#423232" stroke-width="13" stroke-miterlimit="10" stroke-linecap="round" stroke-linejoin="round"/>
<path d="M705.284 765.207C705.284 765.207 734.751 784.707 743.417 782.974C752.517 781.674 751.217 794.24 792.384 795.54" stroke="#423232" stroke-width="13" stroke-miterlimit="10" stroke-linecap="round" stroke-linejoin="round"/>
<path d="M1007.78 624.094C987.418 605.461 981.785 578.161 980.051 559.961C993.051 568.628 1009.95 542.194 1009.08 510.994C1007.78 464.628 995.651 430.394 981.351 406.561C991.318 393.994 998.685 379.261 1002.58 362.794C1020.35 290.861 961.852 235.828 876.485 215.028C824.052 202.028 727.852 208.528 614.752 206.794C595.252 206.361 574.885 207.228 554.952 209.394C530.685 211.994 506.852 217.194 484.752 226.294C448.785 239.728 415.852 260.961 390.718 291.728C346.518 346.328 333.952 408.728 331.785 457.261C329.618 514.894 315.752 571.661 288.452 622.794C258.985 677.828 240.785 736.328 269.818 786.594C270.685 787.894 271.552 789.194 272.418 790.928C258.552 859.394 335.685 853.328 350.852 783.994C347.818 796.994 345.652 808.261 344.352 816.061C333.952 884.094 383.352 892.761 408.052 845.528C410.652 840.761 417.152 821.261 424.085 796.561C424.085 800.894 424.518 805.228 424.952 809.128C425.818 904.028 493.418 912.261 489.518 848.128C487.785 819.528 492.552 779.661 499.918 736.328C376.852 699.494 395.918 569.494 450.952 562.561C514.218 554.328 527.652 619.761 527.652 619.761C532.418 640.128 539.352 664.394 549.752 676.094C568.385 696.461 600.452 682.161 579.652 618.028C575.318 604.594 571.418 589.428 568.818 573.394C585.285 577.728 599.585 568.628 592.652 550.428C586.152 533.961 582.685 518.794 581.818 504.494C580.518 482.394 586.152 462.461 595.685 445.994C605.652 485.428 647.252 473.294 649.852 444.694C650.718 435.161 653.752 423.894 658.085 411.328C668.485 424.761 682.785 437.328 700.552 446.428C733.485 462.894 756.885 455.094 762.085 438.194C783.318 445.561 802.385 451.194 817.118 454.661C861.318 465.494 905.085 459.861 939.318 441.661C941.052 445.561 941.918 449.028 942.351 450.328C942.785 452.494 943.218 454.661 943.652 456.828C947.552 475.461 949.718 493.661 947.985 520.961C947.985 522.261 947.985 523.128 947.551 524.428C947.551 525.294 947.551 526.161 947.118 527.028C947.118 529.194 946.685 530.928 946.685 533.094C946.685 534.394 946.252 535.261 946.252 536.561C946.252 538.294 945.818 540.461 945.385 542.628C944.951 544.361 944.951 546.094 944.518 547.828C944.518 549.128 944.085 550.861 944.085 552.161C943.652 554.761 943.218 557.361 942.785 560.394C942.785 560.828 942.785 561.694 942.351 562.128C941.918 565.594 941.051 569.061 940.618 572.961C938.451 585.094 935.852 598.094 932.818 613.261C914.618 697.328 942.785 782.261 883.418 861.128C880.818 884.528 901.185 913.994 926.318 883.228C945.818 859.394 936.718 779.661 935.418 763.628C937.152 780.528 964.018 834.261 989.152 826.461C1003.02 822.128 1009.08 814.761 1006.92 789.194C1004.32 753.228 976.152 717.694 972.252 665.261C998.252 687.361 1035.08 648.794 1007.78 624.094Z" fill="#423232"/>
<path opacity="0.6" d="M582.174 675.398C582.174 675.398 588.241 688.398 606.441 690.132C624.641 691.865 845.641 641.598 853.441 642.898C861.241 644.198 874.241 648.965 874.241 648.965L925.374 681.465L926.241 658.932C926.241 658.932 897.641 623.398 827.874 626.865C758.107 630.332 582.174 675.398 582.174 675.398Z" fill="#B7AEA9"/>
<path d="M592.574 469.998C575.674 469.564 561.374 482.998 561.374 499.898V539.331C561.374 559.264 545.341 575.731 524.974 575.731H510.674L524.974 601.298C544.907 601.298 561.374 617.331 561.374 637.697V651.564C561.374 670.198 577.841 684.064 596.041 681.464L837.841 643.764C843.041 642.898 847.807 642.897 853.007 643.331L854.307 478.231L592.574 469.998Z" fill="#5E4949"/>
<path d="M944.441 480.395L854.741 477.795L853.441 642.895C860.808 643.762 867.741 645.495 874.241 648.962L922.774 673.228C935.341 679.295 950.075 671.062 951.375 657.195L964.808 502.928C965.674 491.228 956.574 480.828 944.441 480.395Z" fill="#423232"/>
<path d="M657.14 538.897L908.04 544.531C921.907 544.964 932.74 557.097 931.007 570.964C929.707 583.097 919.74 592.197 907.607 592.197H656.707C643.274 592.197 632.44 580.931 632.874 567.497L633.307 561.864C633.74 548.431 644.574 538.897 657.14 538.897Z" fill="#E26076" stroke="#423232" stroke-width="13" stroke-miterlimit="10" stroke-linecap="round" stroke-linejoin="round"/>
<path d="M688.341 573.996H664.507C659.741 573.996 655.841 570.096 655.841 565.33C655.841 560.563 659.741 556.663 664.507 556.663H688.341C693.107 556.663 697.007 560.563 697.007 565.33C696.574 570.096 693.107 573.996 688.341 573.996Z" fill="white"/>
</g>
</svg>
