<svg width="1300" height="1300" viewBox="0 0 1300 1300" fill="none" xmlns="http://www.w3.org/2000/svg">
<path d="M650 1300C290.71 1300 0 1008.86 0 650C0 290.71 291.141 0 650 0C1009.29 0 1300 291.141 1300 650C1300.43 1009.29 1009.29 1300 650 1300Z" fill="#1D1075"/>
<mask id="mask0_324_2110" style="mask-type:alpha" maskUnits="userSpaceOnUse" x="0" y="0" width="1301" height="1300">
<path d="M650 1300C290.71 1300 0 1008.86 0 650C0 290.71 291.141 0 650 0C1009.29 0 1300 291.141 1300 650C1300.43 1009.29 1009.29 1300 650 1300Z" fill="#F7C0B5"/>
</mask>
<g mask="url(#mask0_324_2110)">
<path d="M1015.73 1197.33C1012.7 1199.49 1009.23 1201.66 1006.2 1203.83C1002.73 1205.99 999.698 1208.16 996.231 1209.89C993.198 1211.63 990.598 1213.36 987.564 1215.09C987.131 1215.53 986.698 1215.53 986.264 1215.96C976.298 1222.03 965.898 1227.66 955.498 1232.86C952.464 1234.59 948.998 1236.33 945.964 1237.63C945.964 1237.63 945.531 1238.06 945.098 1238.06C941.631 1239.79 938.164 1241.53 934.698 1243.26C927.764 1246.73 920.398 1249.76 913.464 1252.79C909.998 1254.53 906.098 1255.83 902.631 1257.13C899.164 1258.43 895.264 1260.16 891.798 1261.46C888.331 1262.76 884.431 1264.49 880.964 1265.79C880.964 1265.79 880.964 1265.79 880.531 1265.79C877.064 1267.09 873.164 1268.39 869.698 1269.69C861.898 1272.29 853.664 1274.89 845.864 1277.49C843.264 1278.36 840.231 1279.23 837.631 1280.09C829.398 1282.69 821.164 1284.86 812.931 1286.59C809.898 1287.46 806.864 1287.89 803.398 1288.76C795.598 1290.49 787.364 1292.23 779.564 1293.96C777.831 1294.39 776.531 1294.39 774.798 1294.83C772.198 1295.26 769.164 1295.69 766.564 1296.13C762.664 1296.56 759.198 1297.43 755.298 1297.86C753.564 1298.29 751.831 1298.29 750.098 1298.73C747.931 1299.16 745.331 1299.59 742.731 1299.59C735.798 1300.46 728.431 1301.33 721.498 1302.19C719.331 1302.63 716.731 1302.63 714.564 1303.06H714.131C711.098 1303.49 708.064 1303.49 705.031 1303.93C701.998 1304.36 698.964 1304.36 695.931 1304.36C694.198 1304.36 692.031 1304.79 690.298 1304.79C686.831 1304.79 683.798 1305.23 680.764 1305.23C676.431 1305.23 672.531 1305.66 668.198 1305.66C663.864 1305.66 659.964 1305.66 655.631 1305.66C652.598 1305.66 649.564 1305.66 646.531 1305.66C464.098 1303.06 299.431 1225.49 182.431 1102.43C182.431 1102.43 182.431 1101.99 181.998 1101.99C195.431 1075.56 245.264 1027.89 297.264 988.461C363.131 938.628 456.298 907.861 456.298 907.861C456.298 907.861 517.398 897.895 744.031 945.128C916.931 981.528 990.598 1129.29 1015.73 1197.33Z" fill="#FEE4BF"/>
<path d="M792.131 1065.16C783.031 1109.8 724.098 1136.23 624.865 1096.36C503.098 1046.96 456.298 907.863 456.298 907.863C449.798 808.196 434.631 722.829 434.631 722.829C575.465 710.696 741.865 875.363 741.865 875.363L760.931 956.829C762.665 963.763 766.131 969.829 771.331 974.163C780.431 989.763 798.198 1036.56 792.131 1065.16Z" fill="#FEE4BF"/>
<path d="M771.331 974.597C688.564 970.264 627.464 958.131 562.031 840.697C617.497 889.664 682.931 908.297 751.831 916.964L760.931 956.831C762.664 964.197 766.131 970.264 771.331 974.597Z" fill="#EFBDA5"/>
<path d="M942.498 452.43C950.298 488.83 954.198 518.296 932.964 615.363C911.731 712.43 952.464 809.496 850.198 898.33C781.298 958.13 660.831 969.396 564.631 903.963C532.131 881.863 502.231 851.096 477.964 810.796C458.898 779.163 436.798 749.263 412.098 721.963C377.864 684.696 336.698 609.73 357.064 477.13C389.998 261.33 603.631 236.63 729.731 260.463C855.831 284.296 921.264 356.23 942.498 452.43Z" fill="#FEE4BF"/>
<path d="M527.797 621.86C527.797 621.86 514.364 556.861 451.097 564.661C396.497 571.594 377.431 702.46 501.364 738.86" fill="#FEE4BF"/>
<path d="M497.465 679.497C497.465 679.497 481.865 669.53 483.598 652.197C486.198 631.83 483.598 619.263 474.065 615.363C450.231 605.397 445.465 633.13 446.331 636.597" stroke="#423232" stroke-width="13" stroke-miterlimit="10" stroke-linecap="round" stroke-linejoin="round"/>
<path d="M828.097 721.529C828.097 721.529 844.564 722.396 860.164 703.763C868.831 693.363 876.197 680.363 871.431 676.463C866.664 672.129 788.231 684.263 783.031 694.663C777.831 705.063 808.164 721.529 828.097 721.529Z" fill="#EFBDA5"/>
<path d="M841.098 575.928C841.098 575.928 841.965 617.094 868.398 663.028C880.098 683.394 862.331 716.761 823.765 722.394" stroke="#423232" stroke-width="13" stroke-miterlimit="10" stroke-linecap="round" stroke-linejoin="round"/>
<path opacity="0.42" d="M606.231 743.629C630.882 743.629 650.865 727.138 650.865 706.795C650.865 686.453 630.882 669.962 606.231 669.962C581.581 669.962 561.598 686.453 561.598 706.795C561.598 727.138 581.581 743.629 606.231 743.629Z" fill="#F2A5B2"/>
<path opacity="0.42" d="M926.031 670.829C924.731 695.096 925.164 718.929 923.431 742.762C904.364 738.429 890.498 724.129 890.498 707.229C890.498 689.029 905.664 674.296 926.031 670.829Z" fill="#F2A5B2"/>
<path d="M905.623 1028.73C905.623 1028.73 838.457 965.899 772.157 950.732C772.157 950.732 828.057 1041.73 663.823 1024.83C536.423 1011.83 453.657 905.232 453.657 905.232C453.657 905.232 370.023 928.632 302.423 980.199C302.423 980.199 311.523 1113.23 463.623 1179.1C615.723 1244.97 827.623 1212.47 877.89 1170C928.157 1127.53 918.19 1042.6 905.623 1028.73Z" fill="#444444"/>
<path d="M265.157 1009.23C265.157 1009.23 137.757 1055.6 91.8236 1187.77C45.8902 1319.93 90.5235 1516.67 90.5235 1516.67H1104.52C1104.52 1516.67 1112.76 1288.3 1042.56 1161.33C1026.09 1131.87 980.59 1084.2 948.09 1069.03C948.09 1069.03 960.223 1180.83 768.257 1190.8C576.29 1200.77 345.324 1139.67 339.69 1104.13C334.49 1067.73 265.157 1009.23 265.157 1009.23Z" fill="white"/>
<path d="M994.024 1524.47C721.891 1650.13 273.824 1536.6 273.824 1536.6C273.824 1536.6 264.724 1426.1 297.657 1227.2C298.957 1218.1 300.257 1209 301.124 1200.77C310.657 1110.63 288.557 1048.67 265.157 1009.67C265.157 999.7 275.557 992.767 287.257 982.8C292.024 978.9 298.524 978.467 301.991 981.067C308.057 989.733 313.691 998.4 318.457 1007.5C366.991 1097.2 462.324 1144.87 563.724 1154.83C701.957 1168.7 759.591 1166.53 828.491 1151.37C894.791 1136.63 924.691 1097.63 906.057 1032.63C905.624 1031.77 905.624 1030.47 905.191 1029.17C916.891 1028.3 944.191 1050.83 953.291 1084.2C962.824 1125.37 970.191 1171.73 975.824 1218.1C994.457 1369.33 994.024 1524.47 994.024 1524.47Z" fill="#444444"/>
<path d="M366.123 940.331C366.123 940.331 450.19 1109.76 595.79 1202.5C609.223 1211.16 626.99 1207.7 636.523 1195.13L716.257 1091.13L810.723 1175.63C821.557 1185.6 839.323 1179.96 842.79 1165.66C851.023 1129.26 857.523 1061.66 826.757 971.531" stroke="white" stroke-width="13" stroke-miterlimit="10" stroke-linecap="round" stroke-linejoin="round"/>
<path d="M737.057 1464.67C748.324 1335.1 716.257 1091.57 716.257 1091.57" stroke="white" stroke-width="13" stroke-miterlimit="10" stroke-linecap="round" stroke-linejoin="round"/>
<path d="M783.857 1234.13C792.472 1234.13 799.457 1227.15 799.457 1218.53C799.457 1209.92 792.472 1202.93 783.857 1202.93C775.241 1202.93 768.257 1209.92 768.257 1218.53C768.257 1227.15 775.241 1234.13 783.857 1234.13Z" fill="white"/>
<path d="M790.79 1312.13C799.406 1312.13 806.39 1305.15 806.39 1296.53C806.39 1287.92 799.406 1280.93 790.79 1280.93C782.175 1280.93 775.19 1287.92 775.19 1296.53C775.19 1305.15 782.175 1312.13 790.79 1312.13Z" fill="white"/>
<path d="M698.924 1017.03C698.924 1017.03 632.624 976.733 605.324 983.666C577.59 990.6 587.124 1090.27 604.89 1106.3C622.657 1122.33 698.49 1071.2 703.257 1066.87C708.024 1062.53 705.857 1023.97 698.924 1017.03Z" fill="white"/>
<path d="M724.057 1017.47C724.057 1017.47 750.057 976.732 776.491 971.532C802.491 966.332 814.624 1076.4 802.924 1086.8C791.224 1096.77 736.624 1075.1 730.557 1068.17C724.057 1061.67 720.591 1030.9 724.057 1017.47Z" fill="white"/>
<path d="M751.79 1052.13C753.09 1028.3 736.19 1007.93 713.657 1005.77C691.124 1003.6 671.624 1020.93 669.457 1044.77C667.724 1069.03 684.624 1090.27 707.59 1092.43C730.99 1094.17 750.49 1076.4 751.79 1052.13Z" fill="#444444"/>
<path d="M669.457 1044.77C669.89 1061.67 678.99 1076.83 692.857 1084.2C706.29 1091.57 723.624 1089.4 734.89 1079C746.157 1069.03 750.49 1052.13 746.59 1037.4C742.69 1022.67 730.557 1009.23 713.657 1005.77C717.99 1005.77 721.89 1006.63 726.224 1007.93C730.124 1009.23 734.024 1011.4 737.49 1014C744.424 1019.2 750.057 1027 752.657 1035.23C755.69 1043.9 756.124 1053 753.957 1062.1C752.657 1066.43 750.924 1070.77 748.757 1074.67C746.59 1078.57 743.557 1082.03 740.09 1085.5C733.157 1091.57 724.49 1095.9 715.39 1096.33C706.29 1097.2 696.757 1095.03 689.39 1089.83C681.59 1085.07 675.957 1077.7 672.49 1069.9C669.024 1062.1 668.157 1053 669.457 1044.77Z" fill="white"/>
<path d="M743.042 526.549C752.576 527.849 759.942 517.882 756.476 508.349C754.742 503.149 751.709 498.382 746.942 495.349C732.209 486.249 677.176 485.382 648.142 506.182C622.576 525.249 699.709 520.482 743.042 526.549Z" fill="#423232"/>
<path d="M863.074 531.315C855.274 531.315 850.508 521.348 854.408 513.115C856.574 508.782 859.608 504.882 863.941 502.715C877.374 496.215 913.341 500.115 929.374 522.215C943.674 541.715 899.041 530.882 863.074 531.315Z" fill="#423232"/>
<path d="M727.875 581.148C694.075 595.448 656.375 577.682 656.375 577.682" stroke="#423232" stroke-width="13" stroke-miterlimit="10" stroke-linecap="round" stroke-linejoin="round"/>
<path d="M899.042 589.816C899.042 589.816 875.642 604.116 846.175 587.216" stroke="#423232" stroke-width="13" stroke-miterlimit="10" stroke-linecap="round" stroke-linejoin="round"/>
<path d="M807.564 767.297C791.964 776.397 769.43 773.797 749.93 764.264" stroke="#423232" stroke-width="13" stroke-miterlimit="10" stroke-linecap="round" stroke-linejoin="round"/>
<path d="M752.097 749.097C752.097 749.097 752.097 768.163 730.864 775.963" stroke="#423232" stroke-width="13" stroke-miterlimit="10" stroke-linecap="round" stroke-linejoin="round"/>
<path d="M939.689 578.561C951.389 512.694 947.922 486.694 940.989 455.928C938.822 446.394 936.222 437.294 933.189 428.194C905.889 416.061 883.355 449.861 846.089 444.661C746.855 431.227 671.022 388.761 587.389 406.961C534.955 418.227 526.289 465.461 541.455 552.561C545.789 576.394 545.789 599.361 525.422 623.194C521.955 611.061 505.055 561.661 449.589 568.594C397.155 575.094 377.222 696.427 485.555 738.027C484.689 761.861 462.589 806.061 444.822 816.027C444.822 816.027 441.789 784.394 407.122 742.794C372.455 701.194 303.122 593.294 349.922 435.561C396.722 277.828 608.622 195.494 805.789 275.661C839.589 289.527 867.322 309.028 889.422 329.394C941.422 377.061 969.155 446.394 960.922 516.161C959.189 539.561 952.689 562.094 939.689 578.561Z" fill="#423232"/>
<path d="M496.388 305.56C496.388 305.56 508.955 166.46 433.555 149.56C358.155 132.66 384.155 214.993 407.555 266.56C407.555 266.56 317.422 185.96 277.988 240.56C240.288 292.993 334.755 350.193 334.755 350.193C334.755 350.193 194.788 361.46 224.255 441.193C254.155 520.927 407.555 416.927 407.555 416.927C407.555 416.927 495.955 335.46 496.388 305.56Z" fill="#423232"/>
<path d="M937.734 682.068C937.3 674.702 933.4 668.635 927.334 664.735C912.6 655.202 882.7 636.568 859.3 629.202C854.1 627.468 848.9 626.602 844.567 626.168C825.5 624.868 688.134 637.002 637.867 683.368C592.801 724.968 609.7 832.435 669.067 889.635C706.767 926.035 773.067 944.235 829.4 924.302C850.634 916.935 870.567 903.502 886.6 884.002C939.467 819.435 941.2 723.235 937.734 682.068Z" fill="white"/>
<path d="M867.534 728.868C858.001 756.602 848.034 765.268 850.634 831.135C851.501 854.535 855.401 904.802 829.401 924.302C773.501 944.235 707.201 925.602 669.067 889.635C609.267 832.435 592.801 725.402 637.867 683.368C687.701 637.002 825.501 624.868 844.567 626.168C848.901 626.602 854.101 627.468 859.301 629.202C864.067 642.202 880.534 692.035 867.534 728.868Z" fill="white"/>
<path d="M638.3 840.234C637.433 841.967 637 843.701 636.133 845.434C644.8 861.901 656.067 877.067 669.067 889.634C706.767 926.034 773.067 944.234 829.4 924.301C854.1 905.234 851.5 858.001 850.633 833.734C796.467 859.301 799.067 809.467 773.933 788.234C726.7 736.234 659.967 796.901 638.3 840.234Z" fill="#F4F4F4"/>
<path d="M887.033 884.003C871 903.936 851.066 916.936 829.833 924.303C855.833 904.803 851.933 854.536 851.066 831.136C848.466 765.27 858.433 756.603 867.966 728.87C880.966 692.036 864.5 642.203 859.733 629.203C883.133 636.57 913.033 654.77 927.766 664.736C933.833 668.636 937.733 675.136 938.166 682.07C941.2 723.236 939.466 819.436 887.033 884.003Z" fill="#E8E8E8"/>
<path d="M714.134 893.967C753.861 893.967 786.067 861.762 786.067 822.034C786.067 782.306 753.861 750.101 714.134 750.101C674.406 750.101 642.2 782.306 642.2 822.034C642.2 861.762 674.406 893.967 714.134 893.967Z" fill="#E8E8E8"/>
<path d="M689 898.3C728.728 898.3 760.934 866.095 760.934 826.367C760.934 786.639 728.728 754.434 689 754.434C649.273 754.434 617.067 786.639 617.067 826.367C617.067 866.095 649.273 898.3 689 898.3Z" fill="white"/>
<path d="M685.1 871.435C709.99 871.435 730.167 851.258 730.167 826.368C730.167 801.479 709.99 781.302 685.1 781.302C660.211 781.302 640.034 801.479 640.034 826.368C640.034 851.258 660.211 871.435 685.1 871.435Z" fill="#BABABA"/>
<path d="M669.501 783.899L667.334 867.533" stroke="#A0A0A0" stroke-width="13" stroke-miterlimit="10" stroke-linecap="round" stroke-linejoin="round"/>
<path d="M701.134 783.899L698.968 867.533" stroke="#A0A0A0" stroke-width="13" stroke-miterlimit="10" stroke-linecap="round" stroke-linejoin="round"/>
<path d="M642.2 840.664L725.834 842.831" stroke="#A0A0A0" stroke-width="13" stroke-miterlimit="10" stroke-linecap="round" stroke-linejoin="round"/>
<path d="M642.2 809.032L725.834 811.199" stroke="#A0A0A0" stroke-width="13" stroke-miterlimit="10" stroke-linecap="round" stroke-linejoin="round"/>
<path d="M862.333 742.732C862.333 742.732 783.033 740.132 730.166 724.966C677.733 709.799 783.466 765.699 862.333 770.899C941.2 776.099 862.333 742.732 862.333 742.732Z" fill="#E8E8E8"/>
<path d="M678.167 674.701C678.167 674.701 597.134 673.401 530.4 623.135" stroke="white" stroke-width="13" stroke-miterlimit="10" stroke-linecap="round" stroke-linejoin="round"/>
<path d="M620.533 807.301C620.533 807.301 554.667 789.968 490.1 737.968" stroke="white" stroke-width="13" stroke-miterlimit="10" stroke-linecap="round" stroke-linejoin="round"/>
</g>
</svg>
