<svg width="1300" height="1300" viewBox="0 0 1300 1300" fill="none" xmlns="http://www.w3.org/2000/svg">
<path d="M650 1300C290.71 1300 0 1008.86 0 650C0 290.71 291.141 0 650 0C1009.29 0 1300 291.141 1300 650C1300.43 1009.29 1009.29 1300 650 1300Z" fill="#1D1075"/>
<mask id="mask0_310_1497" style="mask-type:alpha" maskUnits="userSpaceOnUse" x="0" y="0" width="1301" height="1300">
<path d="M650 1300C290.71 1300 0 1008.86 0 650C0 290.71 291.141 0 650 0C1009.29 0 1300 291.141 1300 650C1300.43 1009.29 1009.29 1300 650 1300Z" fill="#F7C0B5"/>
</mask>
<g mask="url(#mask0_310_1497)">
<path d="M1015.73 1197.33C1012.7 1199.5 1009.23 1201.67 1006.2 1203.83C1002.73 1206 999.697 1208.17 996.231 1209.9C993.197 1211.63 990.597 1213.37 987.564 1215.1C987.131 1215.53 986.698 1215.53 986.264 1215.97C976.298 1222.03 965.898 1227.67 955.498 1232.87C952.464 1234.6 948.998 1236.33 945.964 1237.63C945.964 1237.63 945.531 1238.07 945.098 1238.07C941.631 1239.8 938.164 1241.53 934.697 1243.27C927.764 1246.73 920.398 1249.77 913.464 1252.8C909.998 1254.53 906.098 1255.83 902.631 1257.13C899.164 1258.43 895.264 1260.17 891.798 1261.47C888.331 1262.77 884.431 1264.5 880.964 1265.8C880.964 1265.8 880.964 1265.8 880.531 1265.8C877.064 1267.1 873.164 1268.4 869.697 1269.7C861.897 1272.3 853.664 1274.9 845.864 1277.5C843.264 1278.37 840.231 1279.23 837.631 1280.1C829.398 1282.7 821.164 1284.87 812.931 1286.6C809.898 1287.47 806.864 1287.9 803.397 1288.77C795.597 1290.5 787.364 1292.23 779.564 1293.97C777.831 1294.4 776.531 1294.4 774.798 1294.83C772.198 1295.27 769.164 1295.7 766.564 1296.13C762.664 1296.57 759.198 1297.43 755.298 1297.87C753.564 1298.3 751.831 1298.3 750.098 1298.73C747.931 1299.17 745.331 1299.6 742.731 1299.6C735.797 1300.47 728.431 1301.33 721.498 1302.2C719.331 1302.63 716.731 1302.63 714.564 1303.07H714.131C711.098 1303.5 708.064 1303.5 705.031 1303.93C701.998 1304.37 698.964 1304.37 695.931 1304.37C694.198 1304.37 692.031 1304.8 690.298 1304.8C686.831 1304.8 683.798 1305.23 680.764 1305.23C676.431 1305.23 672.531 1305.67 668.198 1305.67C663.864 1305.67 659.964 1305.67 655.631 1305.67C652.598 1305.67 649.564 1305.67 646.531 1305.67C464.098 1303.07 299.431 1225.5 182.431 1102.43C182.431 1102.43 182.431 1102 181.998 1102C195.431 1075.57 245.264 1027.9 297.264 988.466C363.131 938.633 456.298 907.866 456.298 907.866C456.298 907.866 517.398 897.899 744.031 945.133C916.931 981.533 990.597 1129.3 1015.73 1197.33Z" fill="#FEE4BF"/>
<path d="M792.131 1065.17C783.031 1109.8 724.098 1136.23 624.864 1096.37C503.098 1046.97 456.298 907.865 456.298 907.865C449.798 808.199 434.631 722.832 434.631 722.832C575.464 710.699 741.864 875.365 741.864 875.365L760.931 956.832C762.664 963.765 766.131 969.832 771.331 974.165C780.431 989.765 798.198 1036.57 792.131 1065.17Z" fill="#FEE4BF"/>
<path d="M771.331 974.599C688.564 970.266 627.464 958.133 562.031 840.699C617.497 889.666 682.931 908.299 751.831 916.966L760.931 956.832C762.664 964.199 766.131 970.266 771.331 974.599Z" fill="#EFBDA5"/>
<path d="M942.497 452.432C950.297 488.832 954.197 518.299 932.964 615.365C911.731 712.432 952.464 809.499 850.197 898.332C781.297 958.132 660.831 969.399 564.631 903.965C532.131 881.865 502.231 851.099 477.964 810.799C458.897 779.165 436.797 749.265 412.097 721.965C377.864 684.699 336.697 609.732 357.064 477.132C389.997 261.332 603.631 236.632 729.731 260.465C855.831 284.299 921.264 356.232 942.497 452.432Z" fill="#FEE4BF"/>
<path d="M527.797 621.865C527.797 621.865 514.364 556.865 451.097 564.665C396.497 571.599 377.431 702.465 501.364 738.865" fill="#FEE4BF"/>
<path d="M497.465 679.499C497.465 679.499 481.865 669.532 483.598 652.199C486.198 631.832 483.598 619.266 474.065 615.366C450.231 605.399 445.465 633.132 446.331 636.599" stroke="#423232" stroke-width="13" stroke-miterlimit="10" stroke-linecap="round" stroke-linejoin="round"/>
<path d="M828.097 721.532C828.097 721.532 844.564 722.398 860.164 703.765C868.831 693.365 876.197 680.365 871.431 676.465C866.664 672.132 788.231 684.265 783.031 694.665C777.831 705.065 808.164 721.532 828.097 721.532Z" fill="#EFBDA5"/>
<path d="M841.098 575.932C841.098 575.932 841.965 617.099 868.398 663.032C880.098 683.399 862.331 716.765 823.765 722.399" stroke="#423232" stroke-width="13" stroke-miterlimit="10" stroke-linecap="round" stroke-linejoin="round"/>
<path opacity="0.42" d="M606.231 743.631C630.882 743.631 650.865 727.14 650.865 706.798C650.865 686.455 630.882 669.964 606.231 669.964C581.581 669.964 561.598 686.455 561.598 706.798C561.598 727.14 581.581 743.631 606.231 743.631Z" fill="#F2A5B2"/>
<path opacity="0.42" d="M926.031 670.832C924.731 695.099 925.164 718.932 923.431 742.765C904.364 738.432 890.498 724.132 890.498 707.232C890.498 689.032 905.664 674.299 926.031 670.832Z" fill="#F2A5B2"/>
<path d="M377.807 901.34C377.807 901.34 441.074 876.207 452.774 875.34L453.64 885.307C453.64 885.307 403.374 906.973 400.34 910.44C397.74 913.473 377.807 901.34 377.807 901.34Z" fill="#7E5D6D"/>
<path d="M1158.24 1472.04H62.772C62.772 1472.04 69.272 1270.97 135.139 1127.54C184.972 1019.21 304.572 947.708 391.672 916.508C416.372 907.841 435.439 898.308 453.205 893.541C453.205 895.708 454.505 911.741 454.505 913.474C454.505 913.474 522.972 980.641 677.239 988.874C748.739 992.774 755.672 948.141 755.672 948.141C763.905 946.408 771.705 944.241 779.505 941.641C782.105 940.774 800.305 933.408 802.472 932.541C858.372 947.274 926.839 988.874 1026.07 1072.07C1138.31 1166.97 1158.24 1472.04 1158.24 1472.04Z" fill="#69D69D"/>
<path d="M947.207 1022.68C975.208 1022.68 997.907 999.976 997.907 971.975C997.907 943.975 975.208 921.275 947.207 921.275C919.206 921.275 896.507 943.975 896.507 971.975C896.507 999.976 919.206 1022.68 947.207 1022.68Z" fill="#FFFF8D"/>
<path d="M277.274 1463.37L257.774 1303.04" stroke="#544D4D" stroke-width="13" stroke-miterlimit="10" stroke-linecap="round" stroke-linejoin="round"/>
<path d="M1033.87 1248.01C1033.87 1248.01 1020.87 1279.64 1024.77 1311.27C1028.67 1342.91 1039.94 1389.27 1023.91 1463.37" stroke="#544D4D" stroke-width="13" stroke-miterlimit="10" stroke-linecap="round" stroke-linejoin="round"/>
<path d="M377.807 901.34C386.04 898.74 400.34 901.34 404.673 908.707C421.573 936.44 654.273 978.04 671.173 1138.81C684.607 1264.47 659.473 1530.11 659.473 1530.11L51.5068 1510.17C51.5068 1510.17 64.0735 1296.54 100.907 1153.11C136.873 1014.01 231.34 951.607 377.807 901.34Z" fill="#5889BA"/>
<path d="M769.974 1138.38C769.974 1138.38 796.84 1277.48 792.074 1515.38H1197.24C1197.24 1515.38 1195.94 1248.44 1130.94 1103.28C1065.94 958.542 838.44 916.075 838.44 916.075C838.44 916.075 780.807 1134.48 769.974 1138.38Z" fill="#5889BA"/>
<path d="M813.309 940.774L802.909 937.741C802.909 937.741 818.075 930.374 824.575 926.041L828.475 923.874C828.475 923.874 849.275 933.407 856.642 936.874C864.009 940.341 831.075 956.374 831.075 956.374C831.075 956.374 814.609 940.774 813.309 940.774Z" fill="#7E5D6D"/>
<path d="M671.174 1138.37C671.174 1138.37 601.407 1080.74 444.974 1049.54C308.474 1022.24 167.207 1035.24 179.34 998.841C217.474 884.875 446.707 817.708 446.707 818.575C446.707 819.008 446.707 819.008 446.707 819.441C452.774 872.741 493.507 910.441 544.207 928.208C581.474 941.208 630.44 946.841 648.207 949.008C665.107 950.741 670.74 1076.84 671.174 1138.37Z" fill="white"/>
<path d="M671.174 1138.37C662.074 1132.31 652.54 1127.11 643.007 1121.91C638.24 1119.31 633.474 1117.14 628.274 1114.54C623.507 1112.37 618.307 1109.77 613.54 1107.61C593.607 1098.94 573.24 1091.14 552.874 1084.21C547.674 1082.47 542.474 1080.74 537.274 1079.44L521.674 1074.67L506.074 1070.34C500.874 1069.04 495.674 1067.31 490.474 1066.44L474.874 1062.54C469.674 1061.24 464.474 1060.37 458.84 1059.07C448.44 1056.91 437.607 1054.74 426.774 1053.01C405.54 1049.11 383.874 1046.07 362.207 1043.47C340.54 1040.87 318.874 1038.71 297.207 1036.11C275.54 1033.94 253.874 1031.77 231.774 1028.31C220.94 1026.57 210.107 1024.41 199.274 1020.94C194.074 1019.21 188.874 1017.04 184.107 1013.57C182.807 1012.71 181.94 1011.41 181.074 1010.54C180.207 1009.24 179.34 1008.37 178.907 1006.64C177.607 1004.04 178.474 1001.01 179.34 998.408C178.907 1001.01 178.474 1004.04 179.774 1006.21C180.207 1007.51 181.507 1008.37 181.94 1009.24C182.807 1010.11 184.107 1010.97 184.974 1011.41C189.307 1014.01 194.507 1015.74 200.14 1016.61C210.54 1018.77 221.374 1020.07 232.207 1020.94C253.874 1022.67 275.54 1023.54 297.64 1025.27C319.307 1026.57 341.407 1028.31 363.074 1030.47C384.74 1032.64 406.84 1035.67 428.507 1039.14C471.84 1047.37 514.74 1057.77 555.907 1073.81C566.307 1077.71 576.274 1082.04 586.24 1086.37L600.974 1093.31C605.74 1095.91 610.94 1098.51 615.707 1100.67C620.474 1103.27 625.24 1105.87 630.007 1108.91C634.774 1111.94 639.54 1114.54 643.874 1117.57C654.274 1124.94 662.94 1131.44 671.174 1138.37Z" fill="#446F93"/>
<path d="M1096.27 1031.77C1089.34 991.475 903.007 856.708 882.207 860.175C873.107 872.308 862.274 884.008 848.841 895.275C835.407 906.975 819.807 916.942 803.341 924.742C779.074 933.408 762.607 940.342 735.307 943.808C730.974 944.242 728.374 948.575 729.674 952.475C750.041 1007.51 759.141 1082.48 769.974 1138.81C821.541 1088.11 879.607 1065.58 932.474 1055.18C1024.77 1036.54 1100.61 1056.47 1096.27 1031.77Z" fill="white"/>
<path d="M769.974 1138.37C789.474 1115.84 812.874 1096.34 839.307 1081.61C852.307 1074.24 866.174 1067.74 880.474 1062.54C894.774 1057.34 909.507 1053.01 924.24 1049.97C938.974 1046.94 954.14 1044.77 968.874 1043.04C984.04 1041.74 998.774 1040.87 1013.94 1041.31C1029.11 1041.31 1043.84 1042.17 1058.57 1042.61C1065.94 1043.04 1073.31 1043.04 1080.67 1042.61C1084.14 1042.17 1088.04 1041.74 1091.07 1040.44C1092.81 1040.01 1094.11 1038.71 1094.97 1037.41C1095.84 1036.11 1096.27 1033.94 1096.27 1032.21C1096.71 1033.94 1097.14 1036.11 1095.84 1037.84C1094.97 1039.57 1093.67 1041.31 1091.94 1042.17C1088.47 1044.34 1084.57 1045.21 1081.11 1046.07C1073.74 1047.81 1065.94 1048.24 1058.57 1049.11C1043.84 1049.97 1028.67 1050.84 1013.94 1051.71C999.207 1052.57 984.474 1053.87 969.74 1055.61C955.007 1057.34 940.707 1059.51 926.407 1062.97C897.807 1069.04 870.074 1078.14 843.64 1091.14C817.64 1103.27 792.94 1119.74 769.974 1138.37Z" fill="#446F93"/>
<path d="M623.074 1217.67C641.98 1217.67 657.307 1202.35 657.307 1183.44C657.307 1164.53 641.98 1149.21 623.074 1149.21C604.167 1149.21 588.84 1164.53 588.84 1183.44C588.84 1202.35 604.167 1217.67 623.074 1217.67Z" fill="white"/>
<path d="M405.541 1323.84C450.055 1323.84 486.141 1287.76 486.141 1243.24C486.141 1198.73 450.055 1162.64 405.541 1162.64C361.027 1162.64 324.941 1198.73 324.941 1243.24C324.941 1287.76 361.027 1323.84 405.541 1323.84Z" fill="#446F93"/>
<path d="M990.973 1323.84C1035.49 1323.84 1071.57 1287.76 1071.57 1243.24C1071.57 1198.73 1035.49 1162.64 990.973 1162.64C946.459 1162.64 910.373 1198.73 910.373 1243.24C910.373 1287.76 946.459 1323.84 990.973 1323.84Z" fill="#446F93"/>
<path d="M828.906 1212.91C846.856 1212.91 861.406 1198.36 861.406 1180.41C861.406 1162.46 846.856 1147.91 828.906 1147.91C810.957 1147.91 796.406 1162.46 796.406 1180.41C796.406 1198.36 810.957 1212.91 828.906 1212.91Z" fill="white"/>
<path d="M670.307 1090.71C668.574 1089.41 666.841 1088.11 665.107 1086.81" stroke="#C3CAD1" stroke-width="13" stroke-linecap="round" stroke-linejoin="round"/>
<path d="M630.008 1063.41C595.341 1044.34 556.774 1032.21 511.274 1019.64C406.408 990.174 334.908 999.707 244.341 972.407C239.574 971.107 233.941 969.374 228.741 967.207" stroke="#C3CAD1" stroke-width="13" stroke-linecap="round" stroke-linejoin="round" stroke-dasharray="12.57 12.57"/>
<path d="M212.274 954.642C211.407 952.909 210.974 950.742 210.974 948.575" stroke="#C3CAD1" stroke-width="13" stroke-linecap="round" stroke-linejoin="round"/>
<path d="M645.607 948.141C663.374 949.441 703.241 950.741 743.541 947.275C747.874 946.841 751.774 949.875 752.207 954.208L755.674 976.741C756.541 981.075 753.507 985.408 748.741 985.841C730.541 988.441 685.474 993.641 646.474 986.708C643.007 986.275 640.407 983.241 639.974 979.775L636.941 957.241C636.507 952.475 640.407 948.141 645.607 948.141Z" fill="white"/>
<path d="M652.107 1008.38C669.874 1009.68 709.741 1010.98 750.041 1007.51C754.374 1007.08 758.274 1010.11 758.707 1014.44L762.174 1036.98C763.041 1041.31 760.007 1045.64 755.241 1046.08C737.041 1048.68 691.974 1053.88 652.974 1046.94C649.507 1046.51 646.907 1043.48 646.474 1040.01L643.441 1017.48C642.574 1012.28 646.907 1007.94 652.107 1008.38Z" fill="white"/>
<path d="M762.607 1096.77C762.607 1096.77 764.341 1095.04 767.374 1092.44" stroke="#C3CAD1" stroke-width="13" stroke-linecap="round" stroke-linejoin="round"/>
<path d="M802.908 1067.74C825.008 1054.74 856.208 1039.14 897.374 1026.14C962.374 1005.77 1018.71 1007.07 1051.64 1007.07" stroke="#C3CAD1" stroke-width="13" stroke-linecap="round" stroke-linejoin="round" stroke-dasharray="12.99 12.99"/>
<path d="M1073.74 1006.64C1076.34 1006.21 1078.51 1005.77 1080.24 1005.34" stroke="#C3CAD1" stroke-width="13" stroke-linecap="round" stroke-linejoin="round"/>
<path d="M641.707 1163.94C673.34 1169.57 734.007 1176.07 810.707 1162.64C822.84 1160.47 834.107 1169.14 834.973 1181.27V1183.44C835.84 1193.84 828.907 1203.37 818.94 1205.54C788.173 1212.91 719.273 1223.31 633.04 1204.67C623.507 1202.51 616.573 1193.84 616.573 1184.31C617.007 1171.31 629.14 1161.34 641.707 1163.94Z" fill="#C3CAD1"/>
<path d="M754.374 978.476C760.597 978.476 765.641 973.431 765.641 967.209C765.641 960.987 760.597 955.942 754.374 955.942C748.152 955.942 743.107 960.987 743.107 967.209C743.107 973.431 748.152 978.476 754.374 978.476Z" fill="#C3CAD1"/>
<path d="M769.973 1034.81C776.196 1034.81 781.24 1029.76 781.24 1023.54C781.24 1017.32 776.196 1012.28 769.973 1012.28C763.751 1012.28 758.707 1017.32 758.707 1023.54C758.707 1029.76 763.751 1034.81 769.973 1034.81Z" fill="#C3CAD1"/>
<path d="M683.943 619.44C673.543 619.007 665.743 610.34 666.61 599.94L667.043 587.807C667.476 577.407 676.143 569.607 686.543 570.473C696.943 570.907 704.743 579.573 703.876 589.973L703.443 602.107C703.01 612.074 694.343 619.874 683.943 619.44Z" fill="#423232"/>
<path d="M866.375 625.94C856.842 625.506 849.475 617.273 849.909 607.74L850.342 596.473C850.775 586.94 859.009 579.573 868.542 580.006C878.075 580.44 885.442 588.673 885.009 598.206L884.575 609.473C884.142 619.006 875.909 626.373 866.375 625.94Z" fill="#423232"/>
<path d="M725.977 594.306C725.977 594.306 714.71 578.273 695.21 575.239C679.177 572.639 661.41 580.439 658.81 589.539" stroke="#423232" stroke-width="13" stroke-miterlimit="10" stroke-linecap="round" stroke-linejoin="round"/>
<path d="M853.809 598.207C853.809 598.207 853.809 584.341 873.743 584.341C890.209 584.341 897.143 599.507 897.143 599.507" stroke="#423232" stroke-width="13" stroke-miterlimit="10" stroke-linecap="round" stroke-linejoin="round"/>
<path d="M743.743 524.539C752.843 527.572 761.943 519.339 760.209 509.372C759.343 504.172 757.176 498.972 752.843 495.072C739.843 483.372 686.109 472.973 653.609 488.139C625.009 502.006 702.143 510.672 743.743 524.539Z" fill="#423232"/>
<path d="M873.308 531.474C865.941 534.074 858.141 526.274 859.441 517.174C859.874 512.407 861.608 507.641 865.074 504.174C875.474 493.774 911.008 485.541 933.541 501.574C953.041 515.007 907.108 518.907 873.308 531.474Z" fill="#423232"/>
<path d="M800.184 776.042C800.618 790.342 779.384 826.742 738.218 809.842C698.784 793.808 687.084 718.408 743.418 754.375C772.884 773.008 790.651 776.042 800.184 776.042Z" fill="white"/>
<path d="M808.417 774.308C808.417 774.308 790.217 784.275 743.417 754.375C687.517 718.408 698.784 793.808 738.217 809.842C779.384 826.742 800.617 789.908 800.184 776.042" stroke="#423232" stroke-width="13" stroke-miterlimit="10" stroke-linecap="round" stroke-linejoin="round"/>
<path d="M705.284 765.208C705.284 765.208 734.751 784.708 743.418 782.974C752.518 781.674 751.217 794.241 792.384 795.541" stroke="#423232" stroke-width="13" stroke-miterlimit="10" stroke-linecap="round" stroke-linejoin="round"/>
<path d="M891.777 209.483C891.777 209.483 870.11 138.85 780.844 132.783C682.044 126.283 648.244 185.65 648.244 185.65C648.244 185.65 573.277 122.817 466.677 171.783C331.044 234.183 361.377 364.617 361.377 364.617C361.377 364.617 215.344 566.117 265.61 820.917C265.61 820.917 427.677 891.55 486.61 873.35L473.177 728.617C379.144 682.683 399.51 571.317 449.777 564.817C488.344 560.05 508.71 582.583 518.244 600.783C519.544 602.517 543.377 595.583 546.844 537.517C552.91 445.65 575.877 349.883 769.577 411.417C788.644 417.483 807.277 429.183 825.91 427.017C857.11 423.983 928.177 382.383 943.777 469.917C944.21 471.65 944.21 473.383 944.644 475.55V475.983C944.644 476.85 945.077 477.717 945.077 478.583C945.077 479.017 945.077 479.883 945.51 480.75C945.51 481.617 945.944 482.917 945.944 483.783C945.944 484.65 945.944 485.517 946.377 486.383C946.377 487.25 946.377 487.683 946.377 488.55C946.377 489.85 946.377 491.15 946.81 492.45C946.81 492.883 946.81 493.317 946.81 494.183C946.81 495.483 946.81 496.783 946.81 497.65C946.81 498.083 946.81 498.517 946.81 498.95C946.81 500.683 946.81 501.983 946.81 503.717C946.81 504.15 946.81 504.583 946.81 505.45C946.81 507.183 946.81 508.917 946.81 510.65V511.083C946.81 512.817 946.81 514.55 946.377 516.717C946.377 517.15 946.377 517.583 946.377 518.017C946.377 520.183 945.944 521.917 945.944 524.083C945.944 524.517 945.944 524.95 945.944 525.383C945.944 527.55 945.51 529.717 945.51 531.883C945.51 532.317 945.51 532.317 945.51 532.75C945.077 534.917 945.077 537.517 944.644 540.117C944.644 540.55 944.644 540.983 944.644 541.417C944.21 544.017 944.21 546.617 943.777 549.217C941.177 567.417 937.277 589.083 931.644 615.95C927.744 634.583 926.01 652.783 924.71 671.417C923.41 695.683 923.844 719.517 922.11 743.35C919.51 782.35 912.144 820.917 885.71 858.183C924.277 872.917 987.544 877.25 987.544 877.25C1055.14 762.417 1006.61 530.15 988.41 456.05C991.01 453.883 1063.38 214.25 891.777 209.483Z" fill="#423232"/>
<path d="M749.232 669.067H648.266C621.832 669.067 600.599 647.834 600.599 621.4V580.234C600.599 553.8 621.832 532.567 648.266 532.567H749.232C775.666 532.567 796.899 553.8 796.899 580.234V621.4C796.899 647.834 775.232 669.067 749.232 669.067Z" stroke="#423232" stroke-width="13" stroke-miterlimit="10" stroke-linecap="round" stroke-linejoin="round"/>
<path d="M923.432 532.567H873.599C856.266 532.567 841.966 546.867 841.966 564.2V601.9C848.032 623.567 856.699 644.367 869.699 663C870.999 663 872.299 663.434 873.599 663.434H923.432C940.766 663.434 955.066 649.134 955.066 631.8V564.2C955.499 546.434 941.199 532.567 923.432 532.567Z" stroke="#423232" stroke-width="13" stroke-miterlimit="10" stroke-linecap="round" stroke-linejoin="round"/>
<path d="M796.899 572.001C811.633 570.268 830.266 568.968 845.866 570.701" stroke="#423232" stroke-width="13" stroke-miterlimit="10" stroke-linecap="round" stroke-linejoin="round"/>
<path d="M600.599 575.033L500.066 578.499" stroke="#423232" stroke-width="13" stroke-miterlimit="10" stroke-linecap="round" stroke-linejoin="round"/>
</g>
</svg>
