<svg width="1300" height="1300" viewBox="0 0 1300 1300" fill="none" xmlns="http://www.w3.org/2000/svg">
<path d="M650 1300C290.71 1300 0 1008.86 0 650C0 290.71 291.141 0 650 0C1009.29 0 1300 291.141 1300 650C1300.43 1009.29 1009.29 1300 650 1300Z" fill="#1D1075"/>
<mask id="mask0_324_1891" style="mask-type:alpha" maskUnits="userSpaceOnUse" x="0" y="0" width="1301" height="1300">
<path d="M650 1300C290.71 1300 0 1008.86 0 650C0 290.71 291.141 0 650 0C1009.29 0 1300 291.141 1300 650C1300.43 1009.29 1009.29 1300 650 1300Z" fill="#F7C0B5"/>
</mask>
<g mask="url(#mask0_324_1891)">
<path d="M1015.73 1197.33C1012.7 1199.49 1009.23 1201.66 1006.2 1203.83C1002.73 1205.99 999.697 1208.16 996.23 1209.89C993.197 1211.63 990.597 1213.36 987.564 1215.09C987.13 1215.53 986.697 1215.53 986.264 1215.96C976.297 1222.03 965.897 1227.66 955.497 1232.86C952.464 1234.59 948.997 1236.33 945.964 1237.63C945.964 1237.63 945.53 1238.06 945.097 1238.06C941.63 1239.79 938.164 1241.53 934.697 1243.26C927.764 1246.73 920.397 1249.76 913.464 1252.79C909.997 1254.53 906.097 1255.83 902.63 1257.13C899.164 1258.43 895.264 1260.16 891.797 1261.46C888.33 1262.76 884.43 1264.49 880.964 1265.79C880.964 1265.79 880.964 1265.79 880.53 1265.79C877.064 1267.09 873.164 1268.39 869.697 1269.69C861.897 1272.29 853.664 1274.89 845.864 1277.49C843.264 1278.36 840.23 1279.23 837.63 1280.09C829.397 1282.69 821.164 1284.86 812.93 1286.59C809.897 1287.46 806.864 1287.89 803.397 1288.76C795.597 1290.49 787.364 1292.23 779.564 1293.96C777.83 1294.39 776.53 1294.39 774.797 1294.83C772.197 1295.26 769.164 1295.69 766.564 1296.13C762.664 1296.56 759.197 1297.43 755.297 1297.86C753.564 1298.29 751.83 1298.29 750.097 1298.73C747.93 1299.16 745.33 1299.59 742.73 1299.59C735.797 1300.46 728.43 1301.33 721.497 1302.19C719.33 1302.63 716.73 1302.63 714.564 1303.06H714.13C711.097 1303.49 708.064 1303.49 705.03 1303.93C701.997 1304.36 698.964 1304.36 695.93 1304.36C694.197 1304.36 692.03 1304.79 690.297 1304.79C686.83 1304.79 683.797 1305.23 680.764 1305.23C676.43 1305.23 672.53 1305.66 668.197 1305.66C663.864 1305.66 659.964 1305.66 655.63 1305.66C652.597 1305.66 649.564 1305.66 646.53 1305.66C464.097 1303.06 299.43 1225.49 182.43 1102.43C182.43 1102.43 182.43 1101.99 181.997 1101.99C195.43 1075.56 245.264 1027.89 297.264 988.461C363.13 938.628 456.297 907.861 456.297 907.861C456.297 907.861 517.397 897.895 744.03 945.128C916.93 981.528 990.597 1129.29 1015.73 1197.33Z" fill="#FEE4BF"/>
<path d="M792.13 1065.16C783.03 1109.8 724.097 1136.23 624.863 1096.36C503.097 1046.96 456.297 907.863 456.297 907.863C449.797 808.196 434.63 722.829 434.63 722.829C575.463 710.696 741.863 875.363 741.863 875.363L760.93 956.829C762.663 963.763 766.13 969.829 771.33 974.163C780.43 989.763 798.197 1036.56 792.13 1065.16Z" fill="#FEE4BF"/>
<path d="M771.331 974.597C688.565 970.264 627.465 958.131 562.031 840.697C617.498 889.664 682.931 908.297 751.831 916.964L760.931 956.831C762.665 964.197 766.131 970.264 771.331 974.597Z" fill="#EFBDA5"/>
<path d="M942.497 452.43C950.297 488.83 954.197 518.296 932.964 615.363C911.73 712.43 952.464 809.496 850.197 898.33C781.297 958.13 660.83 969.396 564.63 903.963C532.13 881.863 502.23 851.096 477.964 810.796C458.897 779.163 436.797 749.263 412.097 721.963C377.864 684.696 336.697 609.73 357.064 477.13C389.997 261.33 603.63 236.63 729.73 260.463C855.83 284.296 921.264 356.23 942.497 452.43Z" fill="#FEE4BF"/>
<path d="M527.798 621.86C527.798 621.86 514.365 556.861 451.098 564.661C396.498 571.594 377.431 702.46 501.365 738.86" fill="#FEE4BF"/>
<path d="M497.465 679.497C497.465 679.497 481.865 669.53 483.599 652.197C486.199 631.83 483.599 619.263 474.065 615.363C450.232 605.397 445.465 633.13 446.332 636.597" stroke="#423232" stroke-width="13" stroke-miterlimit="10" stroke-linecap="round" stroke-linejoin="round"/>
<path d="M828.095 721.529C828.095 721.529 844.562 722.396 860.162 703.763C868.829 693.363 876.195 680.363 871.429 676.463C866.662 672.129 788.229 684.263 783.029 694.663C777.829 705.063 808.162 721.529 828.095 721.529Z" fill="#EFBDA5"/>
<path d="M841.095 575.928C841.095 575.928 841.962 617.094 868.395 663.028C880.095 683.394 862.328 716.761 823.762 722.394" stroke="#423232" stroke-width="13" stroke-miterlimit="10" stroke-linecap="round" stroke-linejoin="round"/>
<path opacity="0.42" d="M606.229 743.629C630.879 743.629 650.862 727.138 650.862 706.795C650.862 686.453 630.879 669.962 606.229 669.962C581.579 669.962 561.596 686.453 561.596 706.795C561.596 727.138 581.579 743.629 606.229 743.629Z" fill="#F2A5B2"/>
<path opacity="0.42" d="M926.03 670.829C924.73 695.096 925.164 718.929 923.43 742.762C904.364 738.429 890.497 724.129 890.497 707.229C890.497 689.029 905.664 674.296 926.03 670.829Z" fill="#F2A5B2"/>
<path d="M1156.83 1465.97H61.3594C61.3594 1465.97 67.8594 1264.9 133.726 1121.47C183.559 1013.13 300.993 952.901 388.526 921.701C413.226 913.034 435.759 906.534 453.093 901.768C453.093 903.934 453.526 905.668 453.526 907.834C453.526 907.834 500.326 1046.93 622.093 1096.33C721.326 1136.63 780.259 1109.77 789.359 1065.13C794.993 1036.53 777.226 989.734 768.126 974.568C762.926 970.234 759.459 963.734 757.726 957.234L754.259 942.934C762.493 941.201 770.293 939.034 778.093 936.434C780.693 935.568 782.859 934.701 785.459 933.834C841.359 948.568 925.426 983.668 1024.66 1066.87C1136.89 1160.9 1156.83 1465.97 1156.83 1465.97Z" fill="#444444"/>
<path d="M584.393 1141.83C434.893 1074.67 376.826 954.633 388.093 922.133C388.093 922.133 388.093 921.7 388.526 921.266C396.326 905.233 408.893 892.233 424.493 883.133C433.16 877.933 442.693 873.166 450.493 870.566C450.926 876.633 452.66 895.7 453.093 902.2C453.093 904.366 481.26 1011.4 603.026 1060.8C702.26 1101.1 762.06 1075.53 768.56 1030.47C775.926 980.633 749.493 943.8 749.493 943.8C757.726 942.066 770.726 939.033 778.526 936.433C797.593 959.4 817.093 982.366 824.46 1043.03C834.86 1130.13 739.093 1211.17 584.393 1141.83Z" fill="#444444"/>
<path d="M275.859 1465.97L256.359 1305.63" stroke="#544D4D" stroke-width="13" stroke-miterlimit="10" stroke-linecap="round" stroke-linejoin="round"/>
<path d="M1032.46 1250.6C1032.46 1250.6 1019.46 1282.23 1023.36 1313.87C1027.26 1345.5 1038.53 1391.87 1022.49 1465.97" stroke="#544D4D" stroke-width="13" stroke-miterlimit="10" stroke-linecap="round" stroke-linejoin="round"/>
<path d="M276.726 1718.6C276.726 1718.6 280.626 1503.23 276.726 1278.33C272.826 1053.43 431.859 1003.6 431.859 1003.6C431.859 1003.6 445.726 955.501 468.692 940.768" stroke="white" stroke-width="13" stroke-miterlimit="10" stroke-linecap="round" stroke-linejoin="round"/>
<path d="M469.559 1718.6C444.425 1095.03 525.459 1088.97 525.459 1088.97C525.459 1088.97 526.325 1059.5 547.992 1030.47" stroke="white" stroke-width="13" stroke-miterlimit="10" stroke-linecap="round" stroke-linejoin="round"/>
<path d="M647.227 1718.6C663.26 1569.97 647.227 1140.97 647.227 1140.97C647.227 1140.97 655.46 1103.7 650.693 1075.97" stroke="white" stroke-width="13" stroke-miterlimit="10" stroke-linecap="round" stroke-linejoin="round"/>
<path d="M850.46 1718.6C869.093 1261.87 781.56 1115.84 781.56 1115.84C781.56 1115.84 775.926 1076.84 752.526 1060.8" stroke="white" stroke-width="13" stroke-miterlimit="10" stroke-linecap="round" stroke-linejoin="round"/>
<path d="M1013.39 1718.6C1013.39 1718.6 1047.63 1532.7 1004.73 1305.63C961.827 1078.56 817.96 1020.5 817.96 1020.5C817.96 1020.5 794.56 981.064 766.394 982.798" stroke="white" stroke-width="13" stroke-miterlimit="10" stroke-linecap="round" stroke-linejoin="round"/>
<path d="M211.727 1020.5C211.727 1020.5 215.193 1105.86 315.727 1106.3C315.727 1106.3 362.96 1228.93 480.827 1206.83C480.827 1206.83 551.46 1319.5 650.26 1244.53C650.26 1244.53 761.193 1310.83 817.093 1220.7C817.093 1220.7 930.193 1250.6 941.46 1138.36C941.46 1138.36 1004.29 1124.93 993.026 1041.3" stroke="white" stroke-width="13" stroke-miterlimit="10" stroke-linecap="round" stroke-linejoin="round"/>
<path d="M313.126 953.768C313.126 953.768 285.392 1008.37 360.792 1049.1C360.792 1049.1 371.626 1131.43 492.959 1149.63C492.959 1149.63 554.926 1226.33 649.392 1198.6C649.392 1198.6 768.992 1246.7 803.226 1168.27C803.226 1168.27 899.859 1167.83 884.259 1066.87C884.259 1066.87 916.759 1030.9 888.159 973.701" stroke="white" stroke-width="13" stroke-miterlimit="10" stroke-linecap="round" stroke-linejoin="round"/>
<path d="M388.527 921.699C388.527 921.699 379.427 970.233 432.293 1003.6C432.293 1003.6 435.327 1062.97 525.46 1088.97C525.46 1088.97 566.627 1148.77 647.66 1140.97C647.66 1140.97 746.893 1177.8 781.993 1115.83C781.993 1115.83 839.626 1082.9 817.526 1020.07C817.526 1020.07 826.626 973.699 790.66 937.733" stroke="white" stroke-width="13" stroke-miterlimit="10" stroke-linecap="round" stroke-linejoin="round"/>
<path d="M760.037 1194.89C760.181 1182.45 750.405 1172.25 738.201 1172.11C725.997 1171.96 715.986 1181.94 715.841 1194.38C715.696 1206.82 725.473 1217.03 737.677 1217.17C749.881 1217.31 759.892 1207.34 760.037 1194.89Z" fill="white"/>
<path d="M785.46 1253.63C788.493 1276.6 773.326 1297.83 751.66 1300.43C729.993 1303.47 710.06 1287 707.026 1263.6C703.993 1240.63 717.86 1209 739.526 1205.97C761.193 1202.93 782.427 1230.67 785.46 1253.63Z" fill="white"/>
<path d="M729.125 1226.34C728.259 1227.2 727.825 1227.64 727.392 1228.07C726.958 1228.5 726.092 1228.5 725.658 1228.94C724.358 1229.37 723.492 1229.8 722.192 1230.24C720.025 1231.1 717.859 1231.54 715.259 1231.97C710.925 1232.84 706.159 1233.27 701.825 1233.7C697.492 1233.7 692.725 1233.7 687.959 1232.84C685.359 1232.4 683.192 1231.97 680.159 1230.67C678.859 1230.24 677.125 1229.37 674.959 1227.64C674.092 1227.2 673.659 1226.34 672.792 1225.9C671.925 1225.04 671.058 1223.3 670.192 1222.44C669.758 1220.7 668.892 1219.4 668.892 1217.67C668.458 1214.2 668.892 1211.6 668.892 1209C669.325 1206.4 669.325 1204.24 669.759 1202.07C670.625 1197.74 671.925 1193.4 673.225 1189.5C676.258 1181.27 680.158 1173.04 686.225 1165.67V1165.24C686.225 1164.8 686.659 1164.8 687.092 1165.24L687.525 1165.67L683.625 1190.8C682.759 1199.04 681.025 1207.7 681.892 1215.5C681.892 1215.94 681.892 1216.37 682.325 1216.8C682.325 1216.8 682.759 1217.24 682.759 1217.67C683.625 1218.1 684.492 1218.54 685.358 1218.97C687.092 1219.84 689.259 1220.27 690.992 1221.14C694.892 1222.44 699.225 1222.87 703.125 1223.74C707.459 1224.6 711.358 1225.04 715.692 1225.47C717.858 1225.9 720.025 1225.9 721.759 1225.9C722.625 1225.9 723.925 1225.9 724.792 1225.9C725.659 1225.9 726.958 1225.9 727.392 1225.47H727.825C728.258 1225.47 728.692 1225.47 728.692 1225.9C729.125 1225.9 729.125 1225.9 729.125 1226.34Z" fill="white"/>
<path d="M725.659 1251.47C717.859 1257.53 708.759 1261.43 699.659 1264.03C690.559 1266.63 681.025 1267.93 670.625 1266.63H669.759L668.459 1266.2L665.859 1265.33C664.125 1264.9 662.392 1264.03 660.659 1263.17L658.492 1261.87L656.759 1260.13C655.459 1259.27 654.159 1257.97 653.292 1257.1C648.959 1252.77 646.359 1247.57 644.625 1242.8C641.159 1233.27 640.292 1223.3 642.459 1213.33V1212.9C642.459 1212.47 642.892 1212.47 643.325 1212.47C643.759 1212.47 643.759 1212.9 643.759 1212.9C645.059 1217.23 646.359 1221.57 648.092 1225.47C649.825 1229.8 651.559 1233.7 653.725 1237.6C658.059 1244.97 664.125 1252.33 672.792 1253.63C681.459 1254.93 690.559 1254.5 699.225 1253.63C707.892 1252.77 716.992 1251.9 725.659 1250.17C726.092 1250.17 726.525 1250.17 726.525 1250.6C726.525 1251.03 726.092 1251.03 725.659 1251.47Z" fill="white"/>
<path d="M720.024 1273.13C710.491 1277.47 701.824 1280.93 694.891 1285.27C691.424 1287.43 688.824 1289.6 687.091 1291.77C686.658 1292.2 686.224 1293.07 685.791 1293.5C685.358 1293.93 685.358 1294.8 684.924 1295.23C684.491 1295.67 684.491 1296.53 684.058 1296.97L683.624 1297.83C683.624 1298.27 683.624 1298.7 683.191 1299.13C681.458 1305.2 681.458 1313 681.891 1321.67C682.758 1330.33 684.058 1339.43 684.491 1349.83V1350.27C684.491 1350.7 684.058 1350.7 684.058 1351.13C683.624 1351.13 683.624 1351.13 683.624 1350.7C678.424 1342.47 674.524 1333.8 671.924 1324.27C669.324 1315.17 668.024 1305.2 670.624 1295.23C671.924 1290.47 674.524 1285.7 678.424 1282.67C682.324 1279.2 686.658 1277.03 690.991 1275.3C700.091 1272.27 710.058 1271.4 719.591 1271.83C720.024 1271.83 720.024 1272.27 720.024 1272.27C720.458 1272.7 720.458 1272.7 720.024 1273.13Z" fill="white"/>
<path d="M730.858 1286.57C729.558 1294.37 727.825 1300.44 727.392 1305.64C726.958 1308.24 727.392 1310.4 727.825 1311.7C727.825 1312.14 727.825 1312.57 728.258 1312.57C728.258 1313 728.258 1313 728.692 1313.44C728.692 1313.87 728.692 1313.87 729.125 1314.3L729.992 1316.04C732.592 1321.24 734.758 1327.3 736.925 1333.37C738.658 1339.87 740.392 1346.37 740.825 1354.6V1355.04C740.825 1355.47 740.392 1355.47 740.392 1355.47C740.392 1355.47 739.958 1355.47 739.958 1355.04C736.058 1349.84 732.158 1344.2 728.258 1338.57C724.792 1332.94 721.325 1327.3 718.292 1321.24C716.992 1318.2 715.692 1314.74 716.125 1311.27C716.125 1307.8 716.992 1304.34 718.725 1301.3C721.758 1295.24 726.092 1289.6 730.858 1285.27C731.292 1285.27 731.292 1285.27 731.725 1285.27V1285.7L730.858 1286.57Z" fill="white"/>
<path d="M755.557 1222C755.99 1221.57 756.857 1220.7 757.724 1219.83L760.324 1217.67L765.091 1213.33C768.557 1210.73 771.59 1208.13 775.057 1205.53L784.591 1198.6C785.891 1197.73 787.624 1196.43 788.49 1195.57C788.924 1195.13 789.357 1194.7 788.924 1195.57C788.924 1195.57 788.49 1196 788.49 1196.43C788.49 1196.43 788.057 1196.87 788.057 1197.3C788.057 1197.73 787.624 1198.17 787.624 1198.6C787.19 1199.47 787.19 1199.9 787.624 1200.77C787.624 1200.33 787.191 1198.6 786.757 1196.87L785.457 1191.23C784.59 1187.33 783.291 1183.43 782.424 1179.1C780.691 1170.87 779.39 1162.2 779.824 1152.67V1152.23C779.824 1151.8 780.257 1151.8 780.257 1151.8C780.691 1151.8 780.69 1151.8 780.69 1152.23C784.59 1159.6 788.057 1167.4 791.524 1175.2C793.257 1179.1 794.99 1183 796.29 1186.9C797.59 1190.8 799.324 1194.7 800.19 1199.47C800.19 1200.33 800.19 1200.77 800.19 1201.63C799.757 1202.5 799.757 1202.93 799.324 1203.37C798.457 1204.23 797.59 1205.1 796.724 1205.53C794.99 1206.83 793.257 1208.13 791.091 1209C787.191 1211.17 783.724 1212.9 779.824 1214.63C775.924 1216.37 772.024 1218.1 768.124 1219.4C765.957 1220.27 764.224 1220.7 762.057 1221.13C761.19 1221.57 759.89 1221.57 759.024 1222C758.59 1222 758.157 1222 757.29 1222.43C756.857 1222.43 756.424 1222.87 755.124 1222C754.69 1221.57 754.69 1221.57 755.124 1221.13C754.69 1221.57 755.124 1221.57 755.557 1222Z" fill="white"/>
<path d="M764.224 1244.97C772.89 1239.77 781.124 1236.3 789.357 1233.27C797.59 1230.23 805.824 1227.63 812.324 1225.03L812.757 1224.6H813.19C813.19 1224.6 813.624 1224.6 813.624 1224.17C814.057 1224.17 814.49 1223.73 814.49 1223.3L814.924 1222.87L815.357 1222C815.79 1221.57 816.224 1221.13 816.657 1220.7C818.39 1218.53 820.557 1215.5 822.29 1211.6C825.757 1204.67 829.224 1196 833.557 1187.33V1186.9C833.557 1186.47 833.99 1186.47 834.424 1186.47L834.857 1186.9C835.29 1196 834.857 1205.1 832.257 1213.77C830.957 1218.1 829.657 1222.43 827.057 1226.33C824.89 1230.23 820.99 1233.7 816.657 1235.87C807.99 1239.33 799.324 1241.07 790.224 1242.8C781.124 1244.1 772.457 1245.4 763.357 1245.83C762.924 1245.83 762.924 1245.4 762.924 1245.4C763.79 1245.4 763.79 1245.4 764.224 1244.97Z" fill="white"/>
<path d="M775.055 1264.47C782.855 1257.1 792.822 1253.2 804.089 1252.33C809.722 1251.9 815.789 1252.77 822.289 1255.37C824.022 1256.23 825.322 1257.1 826.622 1257.97C827.922 1258.83 829.222 1260.13 830.956 1261.43C832.256 1262.73 833.556 1264.03 834.422 1265.33L836.155 1267.5C836.589 1268.37 837.022 1268.8 837.456 1269.67C840.922 1275.3 842.222 1280.93 843.089 1286.57C843.956 1292.2 843.522 1297.83 842.655 1303.03C840.922 1313.43 837.022 1323.4 830.089 1331.2C829.656 1331.63 829.655 1331.63 829.222 1331.2C829.222 1331.2 828.789 1330.77 829.222 1330.77C830.522 1326 831.389 1321.67 831.822 1316.9C832.255 1312.13 832.689 1307.37 832.689 1302.6C832.689 1293.07 831.389 1283.53 826.622 1275.73C824.456 1271.83 821.422 1268.37 817.089 1266.2C813.189 1264.03 808.422 1263.17 803.655 1262.73C798.889 1262.3 794.122 1262.73 789.789 1263.17C785.022 1263.6 780.256 1264.47 775.922 1265.77C775.489 1265.77 775.055 1265.77 775.055 1265.33C774.622 1264.9 774.622 1264.47 775.055 1264.47Z" fill="white"/>
<path d="M768.991 1280.5C777.224 1279.63 784.591 1282.23 791.524 1287.43C794.991 1290.03 798.024 1293.93 799.758 1299.13C800.191 1300.43 800.624 1301.73 800.624 1303.03C801.058 1304.33 801.058 1305.63 801.058 1306.93C801.058 1308.23 801.058 1309.97 801.058 1310.83L800.624 1313.87C799.324 1321.23 796.724 1327.73 793.258 1333.8C789.358 1339.87 785.024 1345.5 778.524 1350.27H778.091C777.658 1350.27 777.658 1350.27 777.224 1350.27V1349.83C779.391 1343.77 781.558 1337.27 783.291 1330.77C785.024 1324.27 786.758 1318.2 788.058 1311.7C788.924 1308.23 788.924 1305.63 788.058 1302.6C787.191 1299.57 785.891 1296.53 783.724 1294.37C779.824 1289.6 774.624 1285.27 768.991 1281.8C768.558 1281.8 768.558 1281.37 768.991 1280.93C768.558 1280.5 768.558 1280.5 768.991 1280.5Z" fill="white"/>
<path d="M699.712 590.249C699.712 590.683 699.712 591.116 699.712 591.116L699.279 603.249C698.846 613.649 690.179 621.449 679.779 621.016C669.379 620.583 661.579 611.483 662.446 601.516L662.879 589.383C662.879 587.216 663.746 584.616 664.612 582.883L699.279 584.616C699.279 586.349 699.712 588.083 699.712 590.249Z" fill="#423232"/>
<path d="M880.84 599.781L880.407 611.048C879.973 620.581 871.74 627.948 862.206 627.515C852.673 627.081 845.307 618.848 845.74 609.315L846.173 598.048C846.173 595.881 846.606 593.715 847.473 591.981L879.973 593.281C880.84 595.448 880.84 597.615 880.84 599.781Z" fill="#423232"/>
<path d="M743.043 530.883C752.576 532.183 759.943 522.216 756.476 512.683C754.743 507.483 751.709 502.716 746.943 499.683C732.209 490.583 677.176 489.716 648.143 510.516C622.576 529.583 699.709 524.816 743.043 530.883Z" fill="#423232"/>
<path d="M863.072 535.649C855.272 535.649 850.505 525.682 854.405 517.449C856.572 513.116 859.605 509.216 863.939 507.049C877.372 500.549 913.339 504.449 929.372 526.549C943.672 546.049 899.039 535.216 863.072 535.649Z" fill="#423232"/>
<path d="M727.875 585.484L698.842 584.185L664.175 582.885L656.375 582.451" stroke="#423232" stroke-width="13" stroke-miterlimit="10" stroke-linecap="round" stroke-linejoin="round"/>
<path d="M899.041 594.148L879.974 593.281L847.474 591.981H846.174" stroke="#423232" stroke-width="13" stroke-miterlimit="10" stroke-linecap="round" stroke-linejoin="round"/>
<path d="M806.697 784.149C806.697 784.149 789.363 763.782 717.863 784.149" stroke="#423232" stroke-width="13" stroke-miterlimit="10" stroke-linecap="round" stroke-linejoin="round"/>
<path d="M908.423 390.616C920.123 324.749 949.156 481.616 942.656 450.849C940.49 441.316 937.89 432.216 934.856 423.116C911.89 404.916 887.623 393.216 850.79 388.016C751.556 374.583 673.123 383.683 589.49 401.883C537.056 413.149 547.89 594.283 527.523 618.116C524.056 605.983 507.156 556.583 451.69 563.516C399.256 570.016 379.323 691.349 487.656 732.949C486.79 756.783 464.69 800.983 446.923 810.949C446.923 810.949 443.89 779.316 409.223 737.716C374.556 696.116 305.223 588.216 352.023 430.483C398.823 272.749 610.723 190.416 807.89 270.583C841.69 284.449 869.423 303.949 891.523 324.316C943.523 371.983 929.656 303.949 921.423 374.149C918.39 396.683 921.423 373.716 908.423 390.616Z" fill="#423232"/>
<path d="M864.657 372.851C864.657 372.851 745.056 571.751 507.156 511.084C507.156 511.084 460.79 394.517 561.756 349.884C663.156 305.684 840.39 333.851 864.657 372.851Z" fill="#423232"/>
<path d="M823.057 384.552C823.057 384.552 870.724 393.652 904.09 429.185C935.29 462.119 941.79 318.685 948.724 350.319C948.724 350.319 966.49 393.652 889.357 347.719C812.224 301.352 823.057 384.552 823.057 384.552Z" fill="#423232"/>
<path d="M351.591 625.051C351.591 625.051 298.724 591.251 221.591 625.051C151.824 655.818 188.224 743.784 232.858 737.284C232.858 737.284 148.791 769.784 179.991 839.117C205.124 895.017 281.391 862.517 281.391 862.517C281.391 862.517 245.424 920.151 298.291 946.151C352.024 972.584 379.324 898.051 379.324 898.051C379.324 898.051 391.891 959.151 446.924 949.617C514.958 937.917 480.291 856.884 480.291 856.884C480.291 856.884 517.124 881.151 533.591 839.117C552.658 791.017 468.591 752.884 468.591 752.884C468.591 752.884 380.191 651.484 376.291 611.617C371.958 571.317 351.591 625.051 351.591 625.051Z" fill="#423232"/>
<path d="M995.957 822.219C995.957 822.219 1057.06 863.819 1021.09 915.819C978.19 978.219 906.257 910.185 906.257 910.185C919.257 952.218 872.457 1021.55 808.757 966.952C796.624 956.552 787.09 945.719 779.724 935.319C806.157 926.652 830.424 913.652 850.357 896.319C907.557 846.919 920.124 794.485 923.59 741.185C925.324 717.352 924.89 693.518 926.19 669.252C927.057 652.785 928.357 636.752 931.39 620.285C954.79 603.385 998.99 602.519 1010.69 628.085C1038.42 689.185 986.857 714.318 983.824 715.618C987.29 714.752 1068.76 697.852 1069.19 764.152C1070.06 833.918 995.957 822.219 995.957 822.219Z" fill="#423232"/>
<path d="M943.088 424.852C943.088 424.852 1037.55 491.152 1017.19 361.152C1001.59 261.919 926.622 203.852 808.322 238.952C808.322 238.952 606.822 164.419 446.922 256.719C311.722 334.719 303.922 531.019 352.022 625.052C352.022 625.052 358.088 436.552 490.688 391.919C622.855 347.285 703.455 312.619 822.622 352.919C941.788 393.219 943.088 424.852 943.088 424.852Z" fill="#423232"/>
<path d="M843.855 258.017C843.855 258.017 830.855 177.85 761.522 167.45C691.755 157.05 722.522 239.384 722.522 239.384C722.522 239.384 820.022 276.65 843.855 258.017Z" fill="#423232"/>
<path d="M745.49 225.952C745.49 225.952 709.09 175.685 639.757 185.218C570.424 194.752 614.19 251.518 614.19 251.518C614.19 251.518 760.657 290.952 745.49 225.952Z" fill="#423232"/>
<path d="M843.855 390.616C843.855 390.616 893.689 412.716 924.455 457.349C955.222 501.982 1010.69 491.582 1018.49 408.816C1026.72 326.482 865.955 303.082 843.855 390.616Z" fill="#423232"/>
<path d="M477.157 636.128C477.157 636.128 442.49 630.928 445.09 679.461C446.39 704.161 446.39 717.594 445.957 724.528C445.524 729.294 448.557 733.628 452.89 735.361C458.09 737.528 463.724 735.361 466.324 730.161C470.224 723.228 474.557 713.694 474.557 705.894C474.557 692.894 488.424 681.194 488.424 681.194C488.424 681.194 475.857 670.361 477.157 636.128Z" fill="white"/>
<path d="M582.027 1471.59C578.56 1467.69 442.493 1234.99 462.86 1147.46C476.727 1087.22 458.527 1017.89 442.493 956.791C435.993 931.658 429.926 908.258 426.46 887.458C420.393 851.491 424.726 817.258 439.46 785.624C455.493 750.091 452.893 719.324 452.893 718.891L461.56 718.024C461.56 719.324 464.16 751.824 447.26 789.091C433.393 818.991 429.493 851.924 435.126 886.158C438.593 906.524 444.66 929.924 451.16 955.058C467.627 1017.02 485.827 1087.66 471.527 1150.06C452.46 1233.26 588.093 1465.96 588.96 1466.82L582.027 1471.59Z" fill="white"/>
<path d="M446.394 704.594C446.827 714.128 446.394 720.628 446.394 724.528C445.96 729.294 448.994 733.628 453.327 735.361C458.527 737.528 464.16 735.361 466.76 730.161C470.66 723.228 474.994 713.694 474.994 705.894C474.994 705.461 474.994 704.594 474.994 704.161C465.894 707.628 455.494 710.228 446.394 704.594Z" fill="#E5E5E5"/>
<path d="M854.159 992.758C851.126 1012.69 850.693 1044.32 849.826 1081.16C848.526 1152.22 806.493 1429.12 786.126 1472.89L778.326 1469.42C797.826 1426.96 839.86 1151.36 841.16 1081.16C842.026 1044.32 842.46 1012.26 845.493 991.458C851.993 947.692 847.226 914.758 844.626 900.892C845.926 899.592 847.226 898.725 848.526 897.425C849.826 896.558 850.693 895.258 851.993 894.392C854.593 905.658 861.959 941.625 854.159 992.758Z" fill="white"/>
</g>
</svg>
