<svg width="1300" height="1300" viewBox="0 0 1300 1300" fill="none" xmlns="http://www.w3.org/2000/svg">
<path d="M650 1300C290.71 1300 0 1008.86 0 650C0 290.71 291.141 0 650 0C1009.29 0 1300 291.141 1300 650C1300.43 1009.29 1009.29 1300 650 1300Z" fill="#1D1075"/>
<mask id="mask0_324_2007" style="mask-type:alpha" maskUnits="userSpaceOnUse" x="0" y="0" width="1301" height="1300">
<path d="M650 1300C290.71 1300 0 1008.86 0 650C0 290.71 291.141 0 650 0C1009.29 0 1300 291.141 1300 650C1300.43 1009.29 1009.29 1300 650 1300Z" fill="#F7C0B5"/>
</mask>
<g mask="url(#mask0_324_2007)">
<path d="M1013.13 1197.32C1010.1 1199.48 1006.63 1201.65 1003.6 1203.82C1000.13 1205.98 997.099 1208.15 993.633 1209.88C990.599 1211.62 987.999 1213.35 984.966 1215.08C984.533 1215.52 984.099 1215.52 983.666 1215.95C973.699 1222.02 963.299 1227.65 952.899 1232.85C949.866 1234.58 946.399 1236.32 943.366 1237.62C943.366 1237.62 942.933 1238.05 942.499 1238.05C939.033 1239.78 935.566 1241.52 932.099 1243.25C925.166 1246.72 917.799 1249.75 910.866 1252.78C907.399 1254.52 903.499 1255.82 900.033 1257.12C896.566 1258.42 892.666 1260.15 889.199 1261.45C885.733 1262.75 881.833 1264.48 878.366 1265.78C878.366 1265.78 878.366 1265.78 877.933 1265.78C874.466 1267.08 870.566 1268.38 867.099 1269.68C859.299 1272.28 851.066 1274.88 843.266 1277.48C840.666 1278.35 837.633 1279.22 835.033 1280.08C826.799 1282.68 818.566 1284.85 810.333 1286.58C807.299 1287.45 804.266 1287.88 800.799 1288.75C792.999 1290.48 784.766 1292.22 776.966 1293.95C775.233 1294.38 773.933 1294.38 772.199 1294.82C769.599 1295.25 766.566 1295.68 763.966 1296.12C760.066 1296.55 756.599 1297.42 752.699 1297.85C750.966 1298.28 749.233 1298.28 747.499 1298.72C745.333 1299.15 742.733 1299.58 740.133 1299.58C733.199 1300.45 725.833 1301.32 718.899 1302.18C716.733 1302.62 714.133 1302.62 711.966 1303.05H711.533C708.499 1303.48 705.466 1303.48 702.433 1303.92C699.399 1304.35 696.366 1304.35 693.333 1304.35C691.599 1304.35 689.433 1304.78 687.699 1304.78C684.233 1304.78 681.199 1305.22 678.166 1305.22C673.833 1305.22 669.933 1305.65 665.599 1305.65C661.266 1305.65 657.366 1305.65 653.033 1305.65C649.999 1305.65 646.966 1305.65 643.933 1305.65C461.499 1303.05 296.833 1225.48 179.833 1102.42C179.833 1102.42 179.833 1101.98 179.399 1101.98C192.833 1075.55 242.666 1027.88 294.666 988.448C360.533 938.615 453.699 907.849 453.699 907.849C453.699 907.849 514.799 897.882 741.433 945.115C914.333 981.515 987.999 1129.28 1013.13 1197.32Z" fill="#FEE4BF"/>
<path d="M789.533 1065.15C780.433 1109.78 721.5 1136.22 622.266 1096.35C500.5 1046.95 453.7 907.85 453.7 907.85C447.2 808.183 432.033 722.817 432.033 722.817C572.866 710.683 739.266 875.35 739.266 875.35L758.333 956.817C760.066 963.75 763.533 969.817 768.733 974.15C777.833 989.75 795.6 1036.55 789.533 1065.15Z" fill="#FEE4BF"/>
<path d="M768.732 974.585C685.966 970.251 624.866 958.118 559.432 840.685C614.899 889.651 680.333 908.285 749.232 916.951L758.333 956.818C760.066 964.185 763.532 970.251 768.732 974.585Z" fill="#EFBD9C"/>
<path d="M939.899 452.417C947.699 488.817 951.599 518.283 930.366 615.35C909.133 712.417 949.866 809.483 847.599 898.317C778.699 958.117 658.233 969.383 562.033 903.95C529.533 881.85 499.633 851.084 475.366 810.784C456.299 779.15 434.199 749.25 409.499 721.95C375.266 684.683 334.099 609.717 354.466 477.117C387.399 261.317 601.033 236.617 727.133 260.45C853.233 284.284 918.666 356.217 939.899 452.417Z" fill="#FEE4BF"/>
<path d="M525.199 621.848C525.199 621.848 511.766 556.848 448.499 564.648C393.899 571.581 374.832 702.448 498.766 738.848" fill="#FEE4BF"/>
<path d="M494.866 679.484C494.866 679.484 479.266 669.517 481 652.184C483.6 631.817 481 619.251 471.466 615.351C447.633 605.384 442.866 633.117 443.733 636.584" stroke="#423232" stroke-width="13" stroke-miterlimit="10" stroke-linecap="round" stroke-linejoin="round"/>
<path d="M825.499 721.517C825.499 721.517 841.966 722.383 857.566 703.75C866.232 693.35 873.599 680.35 868.832 676.45C864.066 672.117 785.632 684.25 780.432 694.65C775.232 705.05 805.566 721.517 825.499 721.517Z" fill="#EFBD9C"/>
<path d="M838.5 575.915C838.5 575.915 839.366 617.082 865.8 663.015C877.5 683.382 859.733 716.748 821.167 722.382" stroke="#423232" stroke-width="13" stroke-miterlimit="10" stroke-linecap="round" stroke-linejoin="round"/>
<path d="M906.533 816.417C906.533 816.85 906.533 816.85 906.533 816.417C906.1 816.85 906.1 816.85 906.533 816.417C895.7 844.584 877.933 871.45 847.6 897.884C778.7 957.684 658.233 968.95 562.033 903.517C551.2 896.15 540.8 887.917 530.833 878.817C523.9 870.15 517.833 861.05 512.633 851.517C481.433 793.017 494.867 738.417 494.867 738.417C494.867 738.417 512.633 738.85 533.867 780.45C551.633 815.117 620.1 813.817 648.266 748.817C679.466 676.45 757.466 708.084 775.233 715.017C793 721.95 820.733 721.95 820.733 721.95C890.933 721.084 869.7 768.317 877.066 794.317C887.9 829.85 906.533 816.417 906.533 816.417Z" fill="#423232"/>
<path d="M907.837 1029.6C907.837 1029.6 840.67 966.765 774.37 951.598C774.37 951.598 782.17 1063.4 703.303 1055.16C575.903 1041.73 455.87 906.531 455.87 906.531C455.87 906.531 372.237 929.931 304.637 981.498C304.637 981.498 313.737 1114.53 465.837 1180.4C617.937 1246.26 829.837 1213.76 880.103 1171.3C930.37 1128.83 920.403 1043.46 907.837 1029.6Z" fill="white"/>
<path d="M267.37 1010.1C267.37 1010.1 183.303 1056.47 137.37 1188.63C91.4368 1320.8 92.7368 1517.53 92.7368 1517.53H1081.6C1081.6 1517.53 1053.87 1192.97 955.937 1084.63C955.937 1084.63 962.437 1181.7 770.47 1191.67C578.503 1201.63 347.537 1140.53 341.903 1105C336.703 1068.6 267.37 1010.1 267.37 1010.1Z" fill="white"/>
<path d="M996.237 1525.33C724.104 1651 276.037 1537.46 276.037 1537.46C276.037 1537.46 266.937 1426.96 299.87 1228.06C301.17 1218.96 302.47 1209.86 303.337 1201.63C312.87 1111.5 290.77 1049.53 267.37 1010.53C267.37 1000.56 277.77 993.63 289.47 983.664C294.237 979.764 379.604 926.897 383.07 929.497C389.137 938.164 394.77 946.83 399.537 955.93C448.07 1045.63 464.97 1141.83 565.937 1155.7C665.604 1169.56 761.804 1167.4 830.704 1152.23C897.004 1137.5 852.804 1027.43 823.337 973.264C822.037 971.097 822.037 970.23 820.737 969.364C830.704 962.864 946.404 1051.7 955.504 1084.63C974.57 1132.3 979.77 1167.83 985.404 1214.2C1004.04 1366.3 996.237 1525.33 996.237 1525.33Z" fill="#77A0E0"/>
<path d="M401.27 1152.66C416.587 1152.66 429.004 1140.25 429.004 1124.93C429.004 1109.61 416.587 1097.2 401.27 1097.2C385.954 1097.2 373.537 1109.61 373.537 1124.93C373.537 1140.25 385.954 1152.66 401.27 1152.66Z" fill="#647184"/>
<path d="M918.236 1164.37C932.117 1164.37 943.37 1153.11 943.37 1139.23C943.37 1125.35 932.117 1114.1 918.236 1114.1C904.356 1114.1 893.103 1125.35 893.103 1139.23C893.103 1153.11 904.356 1164.37 918.236 1164.37Z" fill="#647184"/>
<path d="M594.97 1203.8C660.837 1207.7 743.17 1209 812.07 1199.03C858.437 1192.53 900.47 1226.77 903.937 1273.13C906.97 1319.07 908.27 1374.97 900.903 1423.93C885.737 1529.67 507.437 1524.47 501.37 1431.3C497.903 1383.2 494.87 1344.2 491.403 1312.13C484.903 1251.9 534.303 1200.33 594.97 1203.8Z" stroke="#647184" stroke-width="13" stroke-miterlimit="10"/>
<path d="M721.07 1054.73C721.07 1054.73 641.77 1150.93 617.503 1143.57C593.236 1136.2 442.436 1056.03 418.603 919.099C418.603 919.099 437.236 888.766 453.703 879.232C453.703 879.232 499.203 959.399 581.536 1007.5C659.97 1053 721.07 1054.73 721.07 1054.73Z" fill="white"/>
<path d="M721.07 1054.73C721.07 1054.73 641.77 1150.93 617.503 1143.57C593.236 1136.2 442.436 1056.03 418.603 919.1" stroke="#D0D6DD" stroke-width="13" stroke-miterlimit="10" stroke-linecap="round" stroke-linejoin="round"/>
<path d="M721.07 1054.73C721.07 1054.73 782.603 1126.67 802.97 1127.53C823.337 1128.4 832.003 1001.87 770.903 937.732C770.903 937.732 761.37 940.332 757.47 941.199C757.037 940.766 787.803 1033.07 721.07 1054.73Z" fill="white"/>
<path d="M721.07 1054.73C721.07 1054.73 782.603 1126.67 802.97 1127.53C823.337 1128.4 832.003 1001.87 770.903 937.732" stroke="#D0D6DD" stroke-width="13" stroke-miterlimit="10" stroke-linecap="round" stroke-linejoin="round"/>
<path d="M715.003 1061.66C715.003 1061.66 702.87 1075.1 707.203 1104.56C711.537 1133.6 710.67 1162.63 710.67 1162.63" stroke="#D0D6DD" stroke-width="13" stroke-miterlimit="10" stroke-linecap="round" stroke-linejoin="round"/>
<path d="M737.103 1126.67C742.607 1126.67 747.07 1122.2 747.07 1116.7C747.07 1111.19 742.607 1106.73 737.103 1106.73C731.598 1106.73 727.136 1111.19 727.136 1116.7C727.136 1122.2 731.598 1126.67 737.103 1126.67Z" fill="#D0D6DD"/>
<path d="M685.655 622.174C675.255 621.741 667.455 613.074 668.322 602.674L668.755 590.541C669.188 580.141 677.855 572.341 688.255 573.207C698.655 573.641 706.455 582.307 705.588 592.707L705.155 604.841C704.722 614.807 696.055 622.607 685.655 622.174Z" fill="#423232"/>
<path d="M868.087 628.673C858.554 628.24 851.187 620.007 851.621 610.473L852.054 599.207C852.487 589.673 860.721 582.307 870.254 582.74C879.787 583.173 887.154 591.407 886.721 600.94L886.287 612.207C885.854 621.74 877.621 629.107 868.087 628.673Z" fill="#423232"/>
<path d="M727.689 597.039C727.689 597.039 716.422 581.006 696.922 577.973C680.889 575.373 663.122 583.173 660.522 592.273" stroke="#423232" stroke-width="13" stroke-miterlimit="10" stroke-linecap="round" stroke-linejoin="round"/>
<path d="M855.521 600.939C855.521 600.939 855.521 587.072 875.454 587.072C891.921 587.072 898.854 602.239 898.854 602.239" stroke="#423232" stroke-width="13" stroke-miterlimit="10" stroke-linecap="round" stroke-linejoin="round"/>
<path d="M752.388 521.64C761.922 520.773 766.688 509.506 761.488 500.84C758.455 496.506 754.555 492.606 748.922 490.44C732.455 485.24 678.722 496.94 655.322 523.806C634.522 548.506 709.055 525.54 752.388 521.64Z" fill="#423232"/>
<path d="M866.788 528.574C859.422 526.408 857.255 515.574 863.322 508.641C866.355 505.174 870.688 502.141 875.455 501.274C890.188 498.674 923.988 512.108 933.522 537.674C942.188 559.774 901.888 537.241 866.788 528.574Z" fill="#423232"/>
<path d="M798.031 764.264C778.964 775.531 748.631 768.597 726.531 753.431" stroke="#FEE4BF" stroke-width="10.6951" stroke-miterlimit="10" stroke-linecap="round" stroke-linejoin="round"/>
<path d="M1052.43 935.09C1028.17 881.356 1009.53 888.723 1026.43 840.19C1043.33 792.09 1021.67 757.856 977.034 712.356C934.568 669.023 930.234 621.79 931.534 614.856C927.634 633.056 925.901 651.69 925.034 669.89C923.734 694.156 924.168 717.99 922.434 741.823C918.968 795.123 906.401 847.556 849.201 896.956C824.068 918.623 792.001 934.223 756.468 941.59C746.934 970.623 761.234 991.423 792.434 994.89C823.634 998.356 836.634 1045.16 907.268 1067.26C1013 1101.49 1076.7 988.823 1052.43 935.09Z" fill="#423232"/>
<path d="M854.834 410.756C863.934 415.523 871.734 411.19 876.501 401.656C926.767 393.856 938.467 494.39 940.201 500.456C941.934 506.956 942.801 525.156 939.334 574.99C937.167 602.723 1098.37 405.99 951.034 322.79C961.867 306.756 954.067 227.023 863.501 207.523C831.001 200.59 788.534 230.923 735.234 219.223C526.801 172.856 310.567 217.056 327.467 492.223C331.367 552.456 335.267 617.456 233.001 660.79C114.267 711.056 120.334 842.356 203.967 869.223C238.634 880.49 124.234 958.489 190.967 1027.82C225.634 1064.22 287.601 990.556 350.434 1030.42C445.334 1090.66 492.567 1063.36 511.201 1039.52C549.334 990.989 502.101 893.489 502.101 893.489C502.101 893.489 520.734 863.59 526.801 847.556C556.267 768.69 486.067 733.156 486.067 733.156C377.734 691.556 397.234 570.656 450.101 563.723C505.567 556.789 522.901 606.19 525.934 618.323C525.934 618.323 574.901 685.923 669.367 531.656C762.967 377.39 814.101 388.656 854.834 410.756Z" fill="#423232"/>
<path d="M877.818 658.316C866.118 644.016 850.951 634.05 832.751 633.616C813.685 633.183 783.785 637.516 753.885 661.349C714.885 692.549 636.885 687.783 606.118 684.75C597.451 683.883 589.218 688.216 585.318 696.016C576.651 713.349 564.951 749.316 570.585 807.383C577.951 886.683 642.518 958.616 733.518 952.549C853.118 945.183 922.885 848.983 927.218 720.283C926.351 684.75 905.118 692.116 877.818 658.316Z" fill="white"/>
<path d="M717.919 684.75C717.919 684.75 900.352 767.083 915.952 707.283" stroke="#EDF3F4" stroke-width="13" stroke-miterlimit="10" stroke-linecap="round" stroke-linejoin="round"/>
<path d="M644.252 743.682C644.252 743.682 828.419 848.982 911.185 791.782" stroke="#EDF3F4" stroke-width="13" stroke-miterlimit="10" stroke-linecap="round" stroke-linejoin="round"/>
<path d="M637.752 818.216C637.752 818.216 732.652 903.583 869.152 872.816" stroke="#EDF3F4" stroke-width="13" stroke-miterlimit="10" stroke-linecap="round" stroke-linejoin="round"/>
<path d="M662.885 692.113C662.885 692.113 644.685 717.247 637.319 783.547C628.652 863.28 666.352 929.58 666.352 929.58" stroke="#EDF3F4" stroke-width="13" stroke-miterlimit="10" stroke-linecap="round" stroke-linejoin="round"/>
<path d="M602.651 695.58C602.651 695.58 552.818 660.913 517.718 601.113" stroke="white" stroke-width="13" stroke-miterlimit="10" stroke-linecap="round" stroke-linejoin="round"/>
<path d="M492.152 735.883C502.118 768.383 526.818 821.25 589.218 868.916" stroke="white" stroke-width="13" stroke-miterlimit="10" stroke-linecap="round" stroke-linejoin="round"/>
</g>
</svg>
