<svg width="1300" height="1300" viewBox="0 0 1300 1300" fill="none" xmlns="http://www.w3.org/2000/svg">
<path d="M650 1300C290.71 1300 0 1008.86 0 650C0 290.71 291.141 0 650 0C1009.29 0 1300 291.141 1300 650C1300.43 1009.29 1009.29 1300 650 1300Z" fill="#1D1075"/>
<mask id="mask0_310_1032" style="mask-type:alpha" maskUnits="userSpaceOnUse" x="0" y="0" width="1301" height="1300">
<path d="M650 1300C290.71 1300 0 1008.86 0 650C0 290.71 291.141 0 650 0C1009.29 0 1300 291.141 1300 650C1300.43 1009.29 1009.29 1300 650 1300Z" fill="#F7C0B5"/>
</mask>
<g mask="url(#mask0_310_1032)">
<path d="M1015.73 1197.33C1012.7 1199.5 1009.23 1201.67 1006.2 1203.83C1002.73 1206 999.695 1208.17 996.228 1209.9C993.195 1211.63 990.595 1213.37 987.562 1215.1C987.128 1215.53 986.695 1215.53 986.262 1215.97C976.295 1222.03 965.895 1227.67 955.495 1232.87C952.462 1234.6 948.995 1236.33 945.962 1237.63C945.962 1237.63 945.528 1238.07 945.095 1238.07C941.628 1239.8 938.162 1241.53 934.695 1243.27C927.762 1246.73 920.395 1249.77 913.462 1252.8C909.995 1254.53 906.095 1255.83 902.628 1257.13C899.162 1258.43 895.262 1260.17 891.795 1261.47C888.328 1262.77 884.428 1264.5 880.962 1265.8C880.962 1265.8 880.962 1265.8 880.528 1265.8C877.062 1267.1 873.162 1268.4 869.695 1269.7C861.895 1272.3 853.662 1274.9 845.862 1277.5C843.262 1278.37 840.228 1279.23 837.628 1280.1C829.395 1282.7 821.162 1284.87 812.928 1286.6C809.895 1287.47 806.862 1287.9 803.395 1288.77C795.595 1290.5 787.362 1292.23 779.562 1293.97C777.828 1294.4 776.528 1294.4 774.795 1294.83C772.195 1295.27 769.162 1295.7 766.562 1296.13C762.662 1296.57 759.195 1297.43 755.295 1297.87C753.562 1298.3 751.828 1298.3 750.095 1298.73C747.928 1299.17 745.328 1299.6 742.728 1299.6C735.795 1300.47 728.428 1301.33 721.495 1302.2C719.328 1302.63 716.728 1302.63 714.562 1303.07H714.128C711.095 1303.5 708.062 1303.5 705.028 1303.93C701.995 1304.37 698.962 1304.37 695.928 1304.37C694.195 1304.37 692.028 1304.8 690.295 1304.8C686.828 1304.8 683.795 1305.23 680.762 1305.23C676.428 1305.23 672.528 1305.67 668.195 1305.67C663.862 1305.67 659.962 1305.67 655.628 1305.67C652.595 1305.67 649.562 1305.67 646.528 1305.67C464.095 1303.07 299.428 1225.5 182.428 1102.43C182.428 1102.43 182.428 1102 181.995 1102C195.428 1075.57 245.262 1027.9 297.262 988.466C363.128 938.632 456.295 907.866 456.295 907.866C456.295 907.866 517.395 897.899 744.028 945.132C916.928 981.532 990.595 1129.3 1015.73 1197.33Z" fill="#FEE4BF"/>
<path d="M792.127 1065.16C783.027 1109.8 724.094 1136.23 624.86 1096.36C503.094 1046.96 456.294 907.865 456.294 907.865C449.794 808.198 434.627 722.831 434.627 722.831C575.46 710.698 741.86 875.365 741.86 875.365L760.927 956.831C762.66 963.765 766.127 969.831 771.327 974.165C780.427 989.765 798.194 1036.56 792.127 1065.16Z" fill="#FEE4BF"/>
<path d="M771.328 974.598C688.562 970.265 627.462 958.132 562.028 840.698C617.495 889.665 682.928 908.298 751.828 916.965L760.928 956.831C762.662 964.198 766.128 970.265 771.328 974.598Z" fill="#EFBDA5"/>
<path d="M942.497 452.432C950.297 488.832 954.197 518.299 932.964 615.365C911.73 712.432 952.464 809.499 850.197 898.332C781.297 958.132 660.83 969.399 564.63 903.965C532.13 881.865 502.23 851.099 477.964 810.799C458.897 779.165 436.797 749.265 412.097 721.965C377.864 684.699 336.697 609.732 357.064 477.132C389.997 261.332 603.63 236.632 729.73 260.465C855.83 284.299 921.264 356.232 942.497 452.432Z" fill="#FEE4BF"/>
<path d="M527.795 621.866C527.795 621.866 514.362 556.866 451.095 564.666C396.495 571.6 377.428 702.466 501.362 738.866" fill="#FEE4BF"/>
<path d="M497.459 679.499C497.459 679.499 481.859 669.532 483.593 652.199C486.193 631.832 483.593 619.266 474.059 615.366C450.226 605.399 445.459 633.132 446.326 636.599" stroke="#423232" stroke-width="13.4786" stroke-miterlimit="10" stroke-linecap="round" stroke-linejoin="round"/>
<path d="M828.094 721.533C828.094 721.533 844.561 722.399 860.161 703.766C868.828 693.366 876.194 680.366 871.428 676.466C866.661 672.133 788.228 684.266 783.028 694.666C777.828 705.066 808.161 721.533 828.094 721.533Z" fill="#EFBDA5"/>
<path d="M841.093 575.931C841.093 575.931 841.96 617.098 868.393 663.031C880.093 683.398 862.326 716.764 823.76 722.398" stroke="#423232" stroke-width="13.4786" stroke-miterlimit="10" stroke-linecap="round" stroke-linejoin="round"/>
<path opacity="0.42" d="M606.227 743.632C630.877 743.632 650.86 727.141 650.86 706.799C650.86 686.456 630.877 669.965 606.227 669.965C581.577 669.965 561.594 686.456 561.594 706.799C561.594 727.141 581.577 743.632 606.227 743.632Z" fill="#F2A5B2"/>
<path opacity="0.42" d="M926.028 670.832C924.728 695.098 925.161 718.932 923.428 742.765C904.361 738.432 890.494 724.132 890.494 707.232C890.494 689.032 905.661 674.298 926.028 670.832Z" fill="#F2A5B2"/>
<path d="M1159.62 1463.8H32.0819C32.0819 1463.8 28.6153 1190.8 125.249 1063.84C195.882 970.671 324.582 945.971 403.449 923.005C423.815 917.371 441.582 910.871 456.315 906.971C461.082 919.971 509.182 1047.37 624.449 1094.17C723.682 1134.47 782.615 1107.6 791.715 1062.97C797.349 1034.37 779.582 987.571 770.482 972.405C765.282 968.071 761.815 961.571 760.082 955.071L756.615 940.771C764.415 939.038 771.782 936.871 779.582 934.704C783.482 935.571 787.382 936.438 791.282 937.305C847.182 950.738 963.315 953.338 1060.38 1035.24C1173.48 1128.84 1159.62 1463.8 1159.62 1463.8Z" fill="#444444"/>
<path d="M741.016 1169.57C713.283 1174.77 526.083 1161.77 429.016 1032.21C389.149 978.906 396.516 929.506 409.083 905.672C419.916 884.872 444.616 857.139 452.416 857.572V858.006C593.249 968.072 773.083 936.872 780.449 934.706C782.616 933.839 785.216 933.406 787.383 932.539C812.083 946.406 841.983 979.772 839.816 1035.67C836.783 1114.54 760.949 1163.51 741.016 1169.57Z" fill="white"/>
<path d="M409.082 916.94C409.082 916.94 363.149 913.473 341.915 945.973C320.682 978.473 368.782 989.74 391.315 981.073C391.315 981.073 354.915 1000.57 367.915 1031.34C380.915 1062.11 422.515 1044.34 422.515 1044.34C422.515 1044.34 386.115 1084.21 416.882 1114.11C447.649 1144.01 483.615 1114.11 483.615 1114.11C483.615 1114.11 464.115 1159.61 496.615 1176.51C529.115 1193.41 554.249 1148.77 554.249 1148.77C554.249 1148.77 543.849 1195.14 575.482 1212.04C607.115 1228.94 629.215 1189.51 633.982 1174.77C633.982 1174.77 633.982 1224.17 678.615 1225.91C723.249 1227.64 718.482 1143.14 718.482 1143.14L409.082 916.94Z" fill="white"/>
<path d="M751.416 1159.61C751.416 1159.61 765.283 1192.54 793.449 1190.81C821.616 1189.51 828.549 1157.87 815.983 1131.01C815.983 1131.01 839.816 1147.04 864.516 1131.01C889.649 1114.97 867.116 1076.41 853.249 1071.21C853.249 1071.21 893.549 1073.37 891.383 1042.61C889.216 1011.84 854.549 1007.94 854.549 1007.94C854.549 1007.94 884.449 1005.77 885.749 981.506C887.049 957.239 847.183 934.706 791.283 937.306C791.283 937.306 810.349 1006.21 791.716 1063.41C773.949 1119.74 751.416 1159.61 751.416 1159.61Z" fill="white"/>
<path d="M437.247 871.006C437.247 871.006 406.481 871.006 380.481 887.473C347.547 907.84 370.947 948.573 418.181 934.273C465.414 919.973 437.247 871.006 437.247 871.006Z" fill="white"/>
<path d="M834.615 951.173C834.615 951.173 866.682 945.973 859.748 932.54C852.815 919.973 826.815 912.606 821.615 915.64C812.082 921.273 799.948 927.773 787.382 931.673C754.015 942.506 825.515 957.673 834.615 951.173Z" fill="white"/>
<path d="M723.681 1153.97C723.681 1153.97 686.414 1254.07 714.147 1271.84C741.881 1289.61 740.147 1176.94 740.147 1176.94C740.147 1176.94 762.247 1268.81 797.781 1258.84C832.881 1248.44 747.514 1149.21 741.014 1147.47" stroke="white" stroke-width="13.4786" stroke-miterlimit="10" stroke-linecap="round"/>
<path d="M272.146 962.873C272.146 962.873 300.746 1225.47 53.7461 1245.41C53.7461 1245.41 13.8794 1113.67 89.2794 1014.01C159.046 921.273 272.146 962.873 272.146 962.873Z" fill="#D8D8D8"/>
<path d="M247.88 956.806C210.613 949.873 139.113 947.706 88.8467 1014.01C61.9801 1049.97 49.4134 1089.84 45.0801 1126.67C77.5801 1125.37 110.08 1119.74 141.28 1107.61C204.98 1083.34 239.213 1023.11 247.88 956.806Z" fill="#D8D8D8"/>
<path d="M167.28 1029.17C194.147 1011.41 216.68 985.407 228.38 953.774C188.947 950.74 131.313 957.674 88.8468 1013.57C82.7801 1021.81 77.5801 1030.04 72.8135 1038.27C101.847 1059.94 137.813 1047.81 167.28 1029.17Z" fill="#F7F7F7"/>
<path d="M272.148 962.872C272.148 962.872 263.048 959.405 247.882 956.805C239.215 1023.54 204.982 1083.77 141.282 1107.61C110.082 1119.74 78.015 1125.81 45.0817 1126.67C36.8484 1191.67 53.315 1245.41 53.315 1245.41C300.748 1225.47 272.148 962.872 272.148 962.872Z" fill="#A8A8A8"/>
<path d="M948.15 971.54C948.15 971.54 973.717 1063.84 1027.02 1132.31C1061.25 1176.07 1097.65 1210.31 1149.22 1235.44C1149.22 1235.44 1174.78 1113.67 1124.52 1040.44C1054.75 938.173 948.15 971.54 948.15 971.54Z" fill="#D8D8D8"/>
<path d="M968.084 967.638C955.517 969.372 948.15 971.538 948.15 971.538C948.15 971.538 973.717 1063.84 1027.02 1132.3C1061.25 1176.07 1097.65 1210.3 1149.22 1235.44C1149.22 1235.44 1160.48 1181.7 1153.12 1124.07C1119.75 1114.1 1088.12 1099.8 1059.95 1081.17C1018.35 1054.74 980.217 1014.87 968.084 967.638Z" fill="#A8A8A8"/>
<path d="M968.083 967.64C979.783 1014.87 1018.35 1054.74 1059.95 1081.17C1088.12 1099.37 1119.75 1114.11 1153.12 1124.07C1149.65 1095.04 1140.98 1065.14 1124.52 1040.44C1073.38 965.473 1002.32 963.307 968.083 967.64Z" fill="#D8D8D8"/>
<path d="M1118.02 1031.77C1081.18 983.238 1035.68 969.371 1001.02 966.771C1022.25 1012.7 1069.48 1033.07 1118.02 1031.77Z" fill="#F7F7F7"/>
<path d="M433.781 871.006C433.781 871.006 416.881 898.74 415.581 925.606C414.281 952.04 464.981 1043.47 561.614 1093.31C666.481 1147.47 738.414 1137.94 738.414 1137.94C738.414 1137.94 807.314 1104.14 827.681 1044.34C845.881 990.173 824.648 942.506 815.548 926.04" stroke="#D8D8D8" stroke-width="13.4786" stroke-miterlimit="10" stroke-linecap="round"/>
<path d="M738.847 1137.94C738.847 1137.94 743.614 1016.6 730.181 945.538" stroke="#D8D8D8" stroke-width="13.4786" stroke-miterlimit="10" stroke-linecap="round"/>
<path d="M736.681 1022.24C748.407 1022.24 757.914 1012.73 757.914 1001.01C757.914 989.278 748.407 979.772 736.681 979.772C724.954 979.772 715.447 989.278 715.447 1001.01C715.447 1012.73 724.954 1022.24 736.681 1022.24Z" fill="#F4D16C"/>
<path d="M739.282 1087.24C751.009 1087.24 760.515 1077.73 760.515 1066C760.515 1054.28 751.009 1044.77 739.282 1044.77C727.555 1044.77 718.049 1054.28 718.049 1066C718.049 1077.73 727.555 1087.24 739.282 1087.24Z" fill="#F4D16C"/>
<path d="M715.182 586.763C715.182 586.763 684.849 587.196 654.082 564.229" stroke="#423232" stroke-width="13.4786" stroke-miterlimit="10" stroke-linecap="round" stroke-linejoin="round"/>
<path d="M843.884 593.696C843.884 593.696 875.084 588.063 884.184 575.929" stroke="#423232" stroke-width="13.4786" stroke-miterlimit="10" stroke-linecap="round" stroke-linejoin="round"/>
<path d="M735.986 553.397C744.219 558.164 754.619 551.664 755.053 541.697C755.053 536.497 754.186 530.864 750.719 526.097C740.319 512.231 689.619 490.997 654.519 500.097C624.186 507.897 698.286 531.731 735.986 553.397Z" fill="#423232"/>
<path d="M869.02 558.596C862.954 563.362 852.987 557.729 851.687 548.629C850.82 543.862 851.254 538.662 853.42 534.329C860.354 521.329 892.42 503.562 918.42 512.229C940.954 520.462 898.054 537.362 869.02 558.596Z" fill="#423232"/>
<path d="M666.215 572.031C662.749 575.064 660.582 579.831 660.149 584.597L659.715 596.731C659.282 607.131 667.082 615.797 677.049 616.231C687.449 616.664 696.115 608.864 696.549 598.897L696.982 586.764C696.982 586.331 696.982 585.897 696.982 585.464C685.715 584.597 675.749 579.831 666.215 572.031Z" fill="#423232"/>
<path d="M843.888 592.831C843.888 593.265 843.888 593.265 843.888 593.698L843.455 604.964C843.021 614.498 850.388 622.731 859.921 623.165C869.455 623.598 877.688 616.231 878.121 606.698L878.555 595.431C878.988 591.098 877.255 587.198 875.088 584.165C865.555 589.798 855.155 591.098 843.888 592.831Z" fill="#423232"/>
<path d="M816.925 774.866C805.693 779.808 800.301 769.924 782.779 778.46C770.199 784.301 763.46 786.098 748.184 777.113C738.299 770.823 726.169 779.808 714.487 762.735" stroke="#423232" stroke-width="13.4786" stroke-miterlimit="10" stroke-linecap="round" stroke-linejoin="round"/>
<path d="M891.778 209.483C891.778 209.483 870.112 138.85 780.845 132.783C682.045 126.283 648.245 185.65 648.245 185.65C648.245 185.65 573.278 122.817 466.678 171.783C331.045 234.183 361.378 364.617 361.378 364.617C361.378 364.617 215.345 566.117 265.612 820.917C265.612 820.917 427.678 891.55 486.612 873.35L473.178 728.617C379.145 682.684 399.512 571.317 449.778 564.817C488.345 560.05 508.712 582.583 518.245 600.783C519.545 602.517 543.378 595.583 546.845 537.517C552.912 445.65 575.878 349.883 769.578 411.417C788.645 417.483 807.278 429.183 825.912 427.017C857.112 423.983 928.178 382.383 943.778 469.917C944.211 471.65 944.212 473.383 944.645 475.55V475.983C944.645 476.85 945.078 477.717 945.078 478.583C945.078 479.017 945.078 479.883 945.511 480.75C945.511 481.617 945.945 482.917 945.945 483.783C945.945 484.65 945.945 485.517 946.378 486.383C946.378 487.25 946.378 487.683 946.378 488.55C946.378 489.85 946.378 491.15 946.812 492.45C946.812 492.883 946.812 493.317 946.812 494.183C946.812 495.483 946.812 496.783 946.812 497.65C946.812 498.083 946.812 498.517 946.812 498.95C946.812 500.683 946.812 501.983 946.812 503.717C946.812 504.15 946.812 504.583 946.812 505.45C946.812 507.183 946.812 508.917 946.812 510.65V511.083C946.812 512.817 946.812 514.55 946.378 516.717C946.378 517.15 946.378 517.583 946.378 518.017C946.378 520.183 945.945 521.917 945.945 524.083C945.945 524.517 945.945 524.95 945.945 525.383C945.945 527.55 945.511 529.717 945.511 531.883C945.511 532.317 945.511 532.317 945.511 532.75C945.078 534.917 945.078 537.517 944.645 540.117C944.645 540.55 944.645 540.983 944.645 541.417C944.212 544.017 944.211 546.617 943.778 549.217C941.178 567.417 937.278 589.083 931.645 615.95C927.745 634.583 926.012 652.783 924.712 671.417C923.412 695.683 923.845 719.517 922.111 743.35C919.511 782.35 912.145 820.917 885.712 858.183C924.278 872.917 987.545 877.25 987.545 877.25C1055.14 762.417 1006.61 530.15 988.412 456.05C991.012 453.883 1063.38 214.25 891.778 209.483Z" fill="#423232"/>
</g>
</svg>
