<svg width="1300" height="1300" viewBox="0 0 1300 1300" fill="none" xmlns="http://www.w3.org/2000/svg">
<path d="M650 1300C290.71 1300 0 1008.86 0 650C0 290.71 291.141 0 650 0C1009.29 0 1300 291.141 1300 650C1300.43 1009.29 1009.29 1300 650 1300Z" fill="#1D1075"/>
<mask id="mask0_324_2318" style="mask-type:alpha" maskUnits="userSpaceOnUse" x="0" y="0" width="1301" height="1300">
<path d="M650 1300C290.71 1300 0 1008.86 0 650C0 290.71 291.141 0 650 0C1009.29 0 1300 291.141 1300 650C1300.43 1009.29 1009.29 1300 650 1300Z" fill="#F7C0B5"/>
</mask>
<g mask="url(#mask0_324_2318)">
<path d="M1015.73 1197.33C1012.7 1199.5 1009.23 1201.67 1006.2 1203.83C1002.73 1206 999.698 1208.17 996.231 1209.9C993.198 1211.63 990.598 1213.37 987.565 1215.1C987.131 1215.53 986.698 1215.53 986.265 1215.97C976.298 1222.03 965.898 1227.67 955.498 1232.87C952.465 1234.6 948.998 1236.33 945.965 1237.63C945.965 1237.63 945.531 1238.07 945.098 1238.07C941.631 1239.8 938.165 1241.53 934.698 1243.27C927.765 1246.73 920.398 1249.77 913.465 1252.8C909.998 1254.53 906.098 1255.83 902.631 1257.13C899.165 1258.43 895.265 1260.17 891.798 1261.47C888.331 1262.77 884.431 1264.5 880.965 1265.8C880.965 1265.8 880.965 1265.8 880.531 1265.8C877.065 1267.1 873.165 1268.4 869.698 1269.7C861.898 1272.3 853.665 1274.9 845.865 1277.5C843.265 1278.37 840.231 1279.23 837.631 1280.1C829.398 1282.7 821.165 1284.87 812.931 1286.6C809.898 1287.47 806.865 1287.9 803.398 1288.77C795.598 1290.5 787.365 1292.23 779.565 1293.97C777.831 1294.4 776.531 1294.4 774.798 1294.83C772.198 1295.27 769.165 1295.7 766.565 1296.13C762.665 1296.57 759.198 1297.43 755.298 1297.87C753.565 1298.3 751.831 1298.3 750.098 1298.73C747.931 1299.17 745.331 1299.6 742.731 1299.6C735.798 1300.47 728.431 1301.33 721.498 1302.2C719.331 1302.63 716.731 1302.63 714.565 1303.07H714.131C711.098 1303.5 708.065 1303.5 705.031 1303.93C701.998 1304.37 698.965 1304.37 695.931 1304.37C694.198 1304.37 692.031 1304.8 690.298 1304.8C686.831 1304.8 683.798 1305.23 680.765 1305.23C676.431 1305.23 672.531 1305.67 668.198 1305.67C663.865 1305.67 659.965 1305.67 655.631 1305.67C652.598 1305.67 649.565 1305.67 646.531 1305.67C464.098 1303.07 299.431 1225.5 182.431 1102.43C182.431 1102.43 182.431 1102 181.998 1102C195.431 1075.57 245.265 1027.9 297.265 988.465C363.131 938.632 456.298 907.865 456.298 907.865C456.298 907.865 517.398 897.898 744.031 945.132C916.931 981.532 990.598 1129.3 1015.73 1197.33Z" fill="#FEE4BF"/>
<path d="M792.13 1065.16C783.03 1109.8 724.097 1136.23 624.864 1096.36C503.097 1046.96 456.297 907.865 456.297 907.865C449.797 808.198 434.63 722.831 434.63 722.831C575.464 710.698 741.864 875.365 741.864 875.365L760.93 956.831C762.664 963.765 766.13 969.831 771.33 974.165C780.43 989.765 798.197 1036.56 792.13 1065.16Z" fill="#FEE4BF"/>
<path d="M771.332 974.599C688.566 970.266 627.466 958.133 562.032 840.699C617.499 889.666 682.932 908.299 751.832 916.966L760.932 956.832C762.666 964.199 766.132 970.266 771.332 974.599Z" fill="#EFBDA5"/>
<path d="M942.498 452.431C950.298 488.831 954.198 518.298 932.965 615.365C911.731 712.431 952.465 809.498 850.198 898.331C781.298 958.131 660.831 969.398 564.631 903.965C532.131 881.865 502.231 851.098 477.965 810.798C458.898 779.165 436.798 749.265 412.098 721.965C377.865 684.698 336.698 609.731 357.065 477.131C389.998 261.332 603.631 236.632 729.731 260.465C855.831 284.298 921.265 356.231 942.498 452.431Z" fill="#FEE4BF"/>
<path d="M527.799 621.865C527.799 621.865 514.366 556.865 451.099 564.665C396.499 571.599 377.432 702.465 501.366 738.865" fill="#FEE4BF"/>
<path d="M497.464 679.499C497.464 679.499 481.864 669.532 483.598 652.199C486.198 631.832 483.598 619.265 474.064 615.365C450.231 605.399 445.464 633.132 446.331 636.599" stroke="#423232" stroke-width="13" stroke-miterlimit="10" stroke-linecap="round" stroke-linejoin="round"/>
<path d="M828.099 721.531C828.099 721.531 844.565 722.398 860.165 703.765C868.832 693.365 876.199 680.365 871.432 676.465C866.665 672.131 788.232 684.265 783.032 694.665C777.832 705.065 808.165 721.531 828.099 721.531Z" fill="#EFBDA5"/>
<path d="M841.098 575.932C841.098 575.932 841.965 617.098 868.398 663.032C880.098 683.398 862.332 716.765 823.765 722.398" stroke="#423232" stroke-width="13" stroke-miterlimit="10" stroke-linecap="round" stroke-linejoin="round"/>
<path opacity="0.42" d="M606.232 743.631C630.882 743.631 650.865 727.14 650.865 706.797C650.865 686.455 630.882 669.964 606.232 669.964C581.582 669.964 561.599 686.455 561.599 706.797C561.599 727.14 581.582 743.631 606.232 743.631Z" fill="#F2A5B2"/>
<path opacity="0.42" d="M926.031 670.831C924.731 695.098 925.165 718.931 923.431 742.764C904.365 738.431 890.498 724.131 890.498 707.231C890.498 689.031 905.665 674.298 926.031 670.831Z" fill="#F2A5B2"/>
<path d="M1159.62 1463.81H32.0819C32.0819 1463.81 28.6153 1190.81 125.249 1063.84C195.882 970.673 324.582 945.973 403.449 923.006C423.815 917.373 441.582 910.873 456.315 906.973C461.082 919.973 509.182 1047.37 624.449 1094.17C723.682 1134.47 782.615 1107.61 791.715 1062.97C797.349 1034.37 779.582 987.573 770.482 972.406C765.282 968.073 761.815 961.573 760.082 955.073L756.615 940.773C764.415 939.039 771.782 936.873 779.582 934.706C783.482 935.573 787.382 936.439 791.282 937.306C847.182 950.739 963.315 953.339 1060.38 1035.24C1173.48 1128.84 1159.62 1463.81 1159.62 1463.81Z" fill="#444444"/>
<path d="M741.015 1169.57C713.282 1174.77 526.082 1161.77 429.016 1032.2C389.149 978.905 396.516 929.505 409.082 905.671C419.916 884.871 444.616 857.138 452.416 857.571V858.005C593.249 968.071 773.082 936.871 780.449 934.705C782.616 933.838 785.216 933.405 787.382 932.538C812.082 946.405 841.982 979.771 839.815 1035.67C836.782 1114.54 760.949 1163.5 741.015 1169.57Z" fill="white"/>
<path d="M409.082 916.937C409.082 916.937 363.149 913.471 341.915 945.971C320.682 978.471 368.782 989.737 391.315 981.071C391.315 981.071 354.915 1000.57 367.915 1031.34C380.915 1062.1 422.515 1044.34 422.515 1044.34C422.515 1044.34 386.115 1084.2 416.882 1114.1C447.649 1144 483.615 1114.1 483.615 1114.1C483.615 1114.1 464.115 1159.6 496.615 1176.5C529.115 1193.4 554.249 1148.77 554.249 1148.77C554.249 1148.77 543.849 1195.14 575.482 1212.04C607.115 1228.94 629.215 1189.5 633.982 1174.77C633.982 1174.77 633.982 1224.17 678.615 1225.9C723.249 1227.64 718.482 1143.14 718.482 1143.14L409.082 916.937Z" fill="white"/>
<path d="M751.415 1159.61C751.415 1159.61 765.281 1192.54 793.448 1190.81C821.615 1189.51 828.548 1157.87 815.981 1131.01C815.981 1131.01 839.815 1147.04 864.515 1131.01C889.648 1114.97 867.115 1076.41 853.248 1071.21C853.248 1071.21 893.548 1073.37 891.381 1042.61C889.215 1011.84 854.548 1007.94 854.548 1007.94C854.548 1007.94 884.448 1005.77 885.748 981.506C887.048 957.239 847.181 934.706 791.281 937.306C791.281 937.306 810.348 1006.21 791.715 1063.41C773.948 1119.74 751.415 1159.61 751.415 1159.61Z" fill="white"/>
<path d="M437.25 871.004C437.25 871.004 406.483 871.004 380.483 887.471C347.55 907.837 370.95 948.571 418.183 934.271C465.416 919.971 437.25 871.004 437.25 871.004Z" fill="white"/>
<path d="M834.614 951.172C834.614 951.172 866.681 945.972 859.748 932.539C852.814 919.972 826.814 912.605 821.614 915.639C812.081 921.272 799.948 927.772 787.381 931.672C754.014 942.505 825.514 957.672 834.614 951.172Z" fill="white"/>
<path d="M723.683 1153.97C723.683 1153.97 686.416 1254.07 714.149 1271.84C741.883 1289.61 740.149 1176.94 740.149 1176.94C740.149 1176.94 762.249 1268.81 797.783 1258.84C832.883 1248.44 747.516 1149.21 741.016 1147.47" stroke="white" stroke-width="13" stroke-miterlimit="10" stroke-linecap="round"/>
<path d="M272.149 962.872C272.149 962.872 300.749 1225.47 53.7485 1245.41C53.7485 1245.41 13.8819 1113.67 89.2819 1014.01C159.049 921.272 272.149 962.872 272.149 962.872Z" fill="#D8D8D8"/>
<path d="M247.881 956.804C210.614 949.871 139.114 947.704 88.8477 1014C61.9811 1049.97 49.4144 1089.84 45.0811 1126.67C77.5811 1125.37 110.081 1119.74 141.281 1107.6C204.981 1083.34 239.214 1023.1 247.881 956.804Z" fill="#D8D8D8"/>
<path d="M167.283 1029.17C194.15 1011.4 216.683 985.404 228.383 953.771C188.95 950.738 131.316 957.671 88.8497 1013.57C82.7831 1021.8 77.5831 1030.04 72.8164 1038.27C101.85 1059.94 137.816 1047.8 167.283 1029.17Z" fill="#F7F7F7"/>
<path d="M272.149 962.872C272.149 962.872 263.049 959.406 247.882 956.806C239.215 1023.54 204.982 1083.77 141.282 1107.61C110.082 1119.74 78.0155 1125.81 45.0822 1126.67C36.8489 1191.67 53.3155 1245.41 53.3155 1245.41C300.749 1225.47 272.149 962.872 272.149 962.872Z" fill="#A8A8A8"/>
<path d="M948.149 971.539C948.149 971.539 973.716 1063.84 1027.02 1132.31C1061.25 1176.07 1097.65 1210.31 1149.22 1235.44C1149.22 1235.44 1174.78 1113.67 1124.52 1040.44C1054.75 938.172 948.149 971.539 948.149 971.539Z" fill="#D8D8D8"/>
<path d="M968.083 967.639C955.516 969.372 948.149 971.539 948.149 971.539C948.149 971.539 973.716 1063.84 1027.02 1132.31C1061.25 1176.07 1097.65 1210.31 1149.22 1235.44C1149.22 1235.44 1160.48 1181.71 1153.12 1124.07C1119.75 1114.11 1088.12 1099.81 1059.95 1081.17C1018.35 1054.74 980.216 1014.87 968.083 967.639Z" fill="#A8A8A8"/>
<path d="M968.081 967.639C979.781 1014.87 1018.35 1054.74 1059.95 1081.17C1088.11 1099.37 1119.75 1114.11 1153.11 1124.07C1149.65 1095.04 1140.98 1065.14 1124.51 1040.44C1073.38 965.472 1002.31 963.306 968.081 967.639Z" fill="#D8D8D8"/>
<path d="M1118.01 1031.77C1081.18 983.238 1035.68 969.371 1001.01 966.771C1022.25 1012.7 1069.48 1033.07 1118.01 1031.77Z" fill="#F7F7F7"/>
<path d="M433.782 871.004C433.782 871.004 416.882 898.737 415.582 925.604C414.282 952.037 464.982 1043.47 561.616 1093.3C666.482 1147.47 738.416 1137.94 738.416 1137.94C738.416 1137.94 807.316 1104.14 827.682 1044.34C845.882 990.171 824.649 942.504 815.549 926.037" stroke="#D8D8D8" stroke-width="13" stroke-miterlimit="10" stroke-linecap="round"/>
<path d="M738.848 1137.94C738.848 1137.94 743.615 1016.6 730.182 945.538" stroke="#D8D8D8" stroke-width="13" stroke-miterlimit="10" stroke-linecap="round"/>
<path d="M736.682 1022.24C748.409 1022.24 757.915 1012.73 757.915 1001C757.915 989.278 748.409 979.771 736.682 979.771C724.955 979.771 715.449 989.278 715.449 1001C715.449 1012.73 724.955 1022.24 736.682 1022.24Z" fill="#F4D16C"/>
<path d="M739.283 1087.24C751.009 1087.24 760.516 1077.73 760.516 1066C760.516 1054.28 751.009 1044.77 739.283 1044.77C727.556 1044.77 718.049 1054.28 718.049 1066C718.049 1077.73 727.556 1087.24 739.283 1087.24Z" fill="#F4D16C"/>
<path d="M743.042 526.549C752.575 527.849 759.942 517.882 756.475 508.349C754.742 503.149 751.709 498.382 746.942 495.349C732.209 486.249 677.175 485.382 648.142 506.182C622.575 525.249 699.709 520.482 743.042 526.549Z" fill="#423232"/>
<path d="M863.074 531.315C855.274 531.315 850.508 521.348 854.408 513.115C856.574 508.782 859.608 504.882 863.941 502.715C877.374 496.215 913.341 500.115 929.374 522.215C943.674 541.715 899.041 530.882 863.074 531.315Z" fill="#423232"/>
<path d="M727.875 581.148C694.075 595.448 656.375 577.682 656.375 577.682" stroke="#423232" stroke-width="13" stroke-miterlimit="10" stroke-linecap="round" stroke-linejoin="round"/>
<path d="M899.043 589.816C899.043 589.816 875.643 604.116 846.176 587.216" stroke="#423232" stroke-width="13" stroke-miterlimit="10" stroke-linecap="round" stroke-linejoin="round"/>
<path d="M807.564 767.297C791.964 776.397 769.43 773.797 749.93 764.264" stroke="#423232" stroke-width="13" stroke-miterlimit="10" stroke-linecap="round" stroke-linejoin="round"/>
<path d="M752.098 749.097C752.098 749.097 752.098 768.163 730.864 775.963" stroke="#423232" stroke-width="13" stroke-miterlimit="10" stroke-linecap="round" stroke-linejoin="round"/>
<path d="M952.022 313.038C941.622 281.405 926.889 254.105 911.722 239.371C880.089 208.171 869.689 250.205 869.689 250.205C869.689 250.205 821.589 160.505 755.289 148.371C708.055 139.705 720.622 194.305 720.622 194.305C720.622 194.305 663.422 133.205 584.122 133.205C521.289 133.205 545.122 187.371 545.122 187.371C545.122 187.371 500.489 123.238 453.255 134.505C406.022 145.771 423.789 238.938 423.789 238.938C386.089 144.471 321.955 236.338 311.122 433.938C304.622 551.371 339.289 627.638 362.689 665.338C383.489 702.605 406.889 728.605 419.889 752.005C438.522 785.371 447.622 821.771 447.622 821.771C484.455 755.905 484.889 720.371 484.889 720.371C376.555 678.771 396.055 557.871 448.922 550.938C504.389 544.005 521.722 593.405 524.755 605.538C544.689 581.705 490.522 427.005 586.722 389.305C679.889 352.905 737.955 406.638 837.622 420.071C868.822 424.405 898.289 401.438 920.822 405.338C927.755 406.638 932.955 411.838 935.122 418.771C936.855 425.271 938.589 431.771 940.322 438.705C946.389 465.138 1059.06 333.838 952.022 313.038Z" fill="#423232"/>
<path opacity="0.6" d="M582.175 675.398C582.175 675.398 588.242 688.398 606.442 690.132C624.642 691.865 845.642 641.598 853.442 642.898C861.242 644.198 874.242 648.965 874.242 648.965L925.375 681.465L926.242 658.932C926.242 658.932 897.642 623.398 827.875 626.865C758.109 630.332 582.175 675.398 582.175 675.398Z" fill="#B7AEA9"/>
<path d="M592.575 469.998C575.675 469.564 561.375 482.998 561.375 499.898V539.331C561.375 559.264 545.342 575.731 524.975 575.731H510.675L524.975 601.298C544.909 601.298 561.375 617.331 561.375 637.697V651.564C561.375 670.198 577.842 684.064 596.042 681.464L837.842 643.764C843.042 642.898 847.809 642.897 853.009 643.331L854.309 478.231L592.575 469.998Z" fill="#5E4949"/>
<path d="M944.44 480.398L854.74 477.798L853.44 642.898C860.807 643.765 867.74 645.498 874.24 648.965L922.773 673.231C935.34 679.298 950.073 671.064 951.373 657.198L964.807 502.931C965.673 491.231 956.573 480.831 944.44 480.398Z" fill="#423232"/>
<path d="M657.141 538.897L908.041 544.531C921.907 544.964 932.741 557.097 931.007 570.964C929.707 583.097 919.741 592.197 907.607 592.197H656.707C643.274 592.197 632.441 580.931 632.874 567.497L633.307 561.864C633.741 548.431 644.574 538.897 657.141 538.897Z" fill="#E26076" stroke="#423232" stroke-width="13" stroke-miterlimit="10" stroke-linecap="round" stroke-linejoin="round"/>
<path d="M688.342 573.996H664.508C659.742 573.996 655.842 570.096 655.842 565.33C655.842 560.563 659.742 556.663 664.508 556.663H688.342C693.108 556.663 697.008 560.563 697.008 565.33C696.575 570.096 693.108 573.996 688.342 573.996Z" fill="white"/>
</g>
</svg>
