<svg width="1300" height="1300" viewBox="0 0 1300 1300" fill="none" xmlns="http://www.w3.org/2000/svg">
<path d="M650 1300C290.71 1300 0 1008.86 0 650C0 290.71 291.141 0 650 0C1009.29 0 1300 291.141 1300 650C1300.43 1009.29 1009.29 1300 650 1300Z" fill="#1D1075"/>
<mask id="mask0_310_972" style="mask-type:alpha" maskUnits="userSpaceOnUse" x="0" y="0" width="1300" height="1300">
<path d="M650 1300C290.71 1300 0 1008.86 0 650C0 290.71 291.141 0 650 0C1009.29 0 1300 291.141 1300 650C1300.43 1009.29 1009.29 1300 650 1300Z" fill="#F7C0B5"/>
</mask>
<g mask="url(#mask0_310_972)">
<path d="M1014 1197.33C1010.97 1199.5 1007.5 1201.66 1004.47 1203.83C1001 1206 997.966 1208.16 994.499 1209.9C991.466 1211.63 988.866 1213.36 985.833 1215.1C985.399 1215.53 984.966 1215.53 984.533 1215.96C974.566 1222.03 964.166 1227.66 953.766 1232.86C950.733 1234.6 947.266 1236.33 944.233 1237.63C944.233 1237.63 943.799 1238.06 943.366 1238.06C939.899 1239.8 936.433 1241.53 932.966 1243.26C926.033 1246.73 918.666 1249.76 911.733 1252.8C908.266 1254.53 904.366 1255.83 900.899 1257.13C897.433 1258.43 893.533 1260.16 890.066 1261.46C886.599 1262.76 882.699 1264.5 879.233 1265.8C879.233 1265.8 879.233 1265.8 878.799 1265.8C875.333 1267.1 871.433 1268.4 867.966 1269.7C860.166 1272.3 851.933 1274.9 844.133 1277.5C841.533 1278.36 838.499 1279.23 835.899 1280.1C827.666 1282.7 819.433 1284.86 811.199 1286.6C808.166 1287.46 805.133 1287.9 801.666 1288.76C793.866 1290.5 785.633 1292.23 777.833 1293.96C776.099 1294.4 774.799 1294.4 773.066 1294.83C770.466 1295.26 767.433 1295.7 764.833 1296.13C760.933 1296.56 757.466 1297.43 753.566 1297.86C751.833 1298.3 750.099 1298.3 748.366 1298.73C746.199 1299.16 743.599 1299.6 740.999 1299.6C734.066 1300.46 726.699 1301.33 719.766 1302.2C717.599 1302.63 714.999 1302.63 712.833 1303.06H712.399C709.366 1303.5 706.333 1303.5 703.299 1303.93C700.266 1304.36 697.233 1304.36 694.199 1304.36C692.466 1304.36 690.3 1304.8 688.566 1304.8C685.1 1304.8 682.066 1305.23 679.033 1305.23C674.7 1305.23 670.8 1305.66 666.466 1305.66C662.133 1305.66 658.233 1305.66 653.9 1305.66C650.866 1305.66 647.833 1305.66 644.8 1305.66C462.366 1303.06 297.7 1225.5 180.7 1102.43C180.7 1102.43 180.7 1102 180.267 1102C193.7 1075.56 243.533 1027.9 295.533 988.465C361.4 938.632 454.566 907.865 454.566 907.865C454.566 907.865 515.666 897.898 742.299 945.132C915.199 981.532 988.866 1129.3 1014 1197.33Z" fill="#F7D3B5"/>
<path d="M790.398 1065.16C781.298 1109.8 722.365 1136.23 623.132 1096.36C501.365 1046.96 454.565 907.865 454.565 907.865C448.065 808.198 432.898 722.831 432.898 722.831C573.732 710.698 740.132 875.365 740.132 875.365L759.198 956.831C760.932 963.765 764.398 969.831 769.598 974.165C778.698 989.765 796.465 1036.56 790.398 1065.16Z" fill="#F7D3B5"/>
<path d="M769.6 974.598C686.833 970.265 625.733 958.132 560.3 840.698C615.766 889.665 681.2 908.298 750.1 916.965L759.2 956.831C760.933 964.198 764.4 970.265 769.6 974.598Z" fill="#EFBDA5"/>
<path d="M940.768 452.432C948.568 488.832 952.468 518.298 931.235 615.365C910.001 712.432 950.735 809.498 848.468 898.331C779.568 958.131 659.102 969.398 562.902 903.965C530.402 881.865 500.502 851.098 476.235 810.798C457.168 779.165 435.068 749.265 410.368 721.965C376.135 684.698 334.968 609.732 355.335 477.132C388.268 261.332 601.902 236.632 728.001 260.465C854.101 284.298 919.535 356.232 940.768 452.432Z" fill="#F7D3B5"/>
<path d="M526.066 621.865C526.066 621.865 512.633 556.865 449.366 564.665C394.766 571.598 375.7 702.465 499.633 738.865" fill="#F7D3B5"/>
<path d="M495.731 679.498C495.731 679.498 480.131 669.531 481.864 652.198C484.464 631.831 481.864 619.264 472.331 615.364C448.498 605.398 443.731 633.131 444.598 636.598" stroke="#423232" stroke-width="13.4786" stroke-miterlimit="10" stroke-linecap="round" stroke-linejoin="round"/>
<path d="M826.366 721.532C826.366 721.532 842.832 722.399 858.432 703.766C867.099 693.366 874.466 680.366 869.699 676.466C864.932 672.132 786.499 684.266 781.299 694.666C776.099 705.066 806.432 721.532 826.366 721.532Z" fill="#EFBDA5"/>
<path d="M839.365 575.932C839.365 575.932 840.231 617.098 866.664 663.032C878.364 683.398 860.598 716.765 822.031 722.398" stroke="#423232" stroke-width="13.4786" stroke-miterlimit="10" stroke-linecap="round" stroke-linejoin="round"/>
<path opacity="0.42" d="M604.499 743.631C629.149 743.631 649.132 727.141 649.132 706.798C649.132 686.456 629.149 669.965 604.499 669.965C579.848 669.965 559.865 686.456 559.865 706.798C559.865 727.141 579.848 743.631 604.499 743.631Z" fill="#ED938A"/>
<path opacity="0.42" d="M924.299 670.832C922.999 695.098 923.432 718.932 921.699 742.765C902.632 738.432 888.766 724.132 888.766 707.232C888.766 689.032 903.932 674.298 924.299 670.832Z" fill="#ED938A"/>
<path d="M1166.53 1467.78L68.8989 1443.51C57.6322 1167.05 171.166 1021.01 215.799 992.413C299.432 938.247 408.199 922.213 459.332 917.447C472.332 949.513 521.732 1054.81 624.432 1096.41C723.665 1136.71 782.599 1109.85 791.699 1065.21C797.332 1036.61 779.565 989.813 770.465 974.647C765.265 970.313 761.799 963.813 760.065 957.313L756.599 943.013C763.965 941.28 771.332 939.547 778.699 936.947C960.265 957.313 1033.93 1006.71 1077.27 1091.21C1121.9 1178.31 1166.53 1467.78 1166.53 1467.78Z" fill="#474E51"/>
<path d="M261.301 1466.05C261.301 1466.05 255.668 1325.65 250.034 1299.65" stroke="#544D4D" stroke-width="13.4786" stroke-miterlimit="10" stroke-linecap="round" stroke-linejoin="round"/>
<path d="M1029.16 1466.05C1029.16 1466.05 1016.16 1378.95 1016.16 1363.78C1016.16 1349.05 1027.43 1300.51 1029.16 1258.05" stroke="#544D4D" stroke-width="13.4786" stroke-miterlimit="10" stroke-linecap="round" stroke-linejoin="round"/>
<path d="M685.533 1189.15L669.933 1512.41C669.933 1512.41 807.299 1606.01 807.299 1603.41C807.299 1600.81 872.299 1487.28 872.299 1487.28L770.899 1176.15C770.899 1176.15 757.899 1189.58 685.533 1189.15Z" fill="#D85656"/>
<path d="M716.733 1085.15C716.733 1085.15 657.366 1141.05 649.566 1155.78C641.766 1170.51 682.933 1193.91 682.933 1193.91C682.933 1193.91 749.233 1207.78 779.133 1180.91C779.133 1180.91 796.033 1162.28 792.566 1144.51C789.533 1127.18 716.733 1085.15 716.733 1085.15Z" fill="#EA6363"/>
<path d="M446.766 866.313L452.399 865.013C468.432 916.58 570.266 1038.35 716.732 1085.15L625.732 1199.98C619.666 1207.78 608.832 1209.08 601.032 1203.45C563.766 1175.71 464.099 1094.25 423.366 990.246C414.699 968.58 412.966 944.746 417.299 922.213L422.932 891.447C425.099 878.88 434.632 868.913 446.766 866.313Z" fill="white"/>
<path d="M838.063 1160.55C835.463 1174.85 818.563 1180.48 807.729 1170.51L716.296 1085.15C716.296 1085.15 769.596 1034.45 756.596 942.58C774.362 938.68 791.263 933.047 806.863 925.68C807.296 926.547 813.363 938.247 820.296 957.747C835.029 998.047 853.663 1072.15 838.063 1160.55Z" fill="white"/>
<path d="M685.652 622.173C675.252 621.74 667.452 613.073 668.319 602.673L668.752 590.54C669.185 580.14 677.852 572.34 688.252 573.206C698.652 573.64 706.452 582.306 705.585 592.706L705.152 604.84C704.719 614.806 696.052 622.606 685.652 622.173Z" fill="#423232"/>
<path d="M868.085 628.672C858.552 628.239 851.185 620.006 851.619 610.472L852.052 599.206C852.485 589.672 860.719 582.306 870.252 582.739C879.785 583.172 887.152 591.406 886.719 600.939L886.285 612.206C885.852 621.739 877.619 629.106 868.085 628.672Z" fill="#423232"/>
<path d="M727.689 597.04C727.689 597.04 716.422 581.007 696.922 577.974C680.889 575.374 663.122 583.174 660.522 592.274" stroke="#423232" stroke-width="13.4786" stroke-miterlimit="10" stroke-linecap="round" stroke-linejoin="round"/>
<path d="M855.519 600.94C855.519 600.94 855.519 587.073 875.452 587.073C891.919 587.073 898.852 602.24 898.852 602.24" stroke="#423232" stroke-width="13.4786" stroke-miterlimit="10" stroke-linecap="round" stroke-linejoin="round"/>
<path d="M752.385 521.639C761.918 520.773 766.685 509.506 761.485 500.839C758.452 496.506 754.552 492.606 748.918 490.439C732.452 485.239 678.718 496.939 655.318 523.806C634.518 548.506 709.052 525.539 752.385 521.639Z" fill="#423232"/>
<path d="M866.786 528.572C859.419 526.406 857.252 515.572 863.319 508.639C866.352 505.172 870.686 502.139 875.453 501.272C890.186 498.672 923.986 512.106 933.519 537.672C942.186 559.772 901.886 537.239 866.786 528.572Z" fill="#423232"/>
<path d="M811.084 785.598C811.084 785.598 793.113 764.482 718.98 785.598" stroke="#423232" stroke-width="13.4786" stroke-miterlimit="10" stroke-linecap="round" stroke-linejoin="round"/>
<path d="M940.302 574.422C952.002 508.555 948.536 482.555 941.602 451.789C939.436 442.255 936.836 433.155 933.802 424.055C910.836 405.855 886.569 394.155 849.736 388.955C750.502 375.522 672.069 384.622 588.436 402.822C536.003 414.089 546.836 595.222 526.469 619.055C523.003 606.922 506.103 557.522 450.636 564.455C398.203 570.955 378.269 692.289 486.603 733.889C485.736 757.722 463.636 801.922 445.869 811.889C445.869 811.889 442.836 780.255 408.169 738.655C373.503 697.055 304.169 589.155 350.969 431.422C397.769 273.689 609.669 191.356 806.836 271.522C840.636 285.389 868.369 304.889 890.469 325.256C942.469 372.922 970.202 442.255 961.969 512.022C959.802 535.422 953.302 557.955 940.302 574.422Z" fill="#423232"/>
<path d="M872.705 377.255C872.705 377.255 744.872 573.122 506.538 512.455C506.538 512.455 460.172 395.888 561.138 351.255C662.538 307.055 848.438 338.255 872.705 377.255Z" fill="#423232"/>
<path d="M859.27 379.855C859.27 379.855 875.737 425.355 908.237 462.188C929.47 486.022 957.203 505.955 991.87 506.822C991.87 506.822 1002.7 388.955 925.57 343.022C848.437 296.655 859.27 379.855 859.27 379.855Z" fill="#423232"/>
<path d="M542.502 304.889C542.502 304.889 402.968 87.7888 280.335 245.089C157.702 402.389 291.602 813.189 217.068 936.689C217.068 936.689 302.435 874.722 324.968 753.389C324.968 753.389 327.568 803.655 312.402 873.855C312.402 873.855 402.968 769.422 402.968 644.189C402.968 518.955 493.535 336.955 542.502 304.889Z" fill="#423232"/>
<path d="M948.103 549.289C963.703 615.589 948.103 730.422 948.103 730.422C948.103 730.422 1138.77 427.522 984.503 312.689C854.503 215.622 574.137 314.422 574.137 314.422C574.137 314.422 837.17 251.155 888.303 372.055C935.103 481.255 940.303 443.555 955.037 508.555C957.203 515.055 945.937 540.189 948.103 549.289Z" fill="#423232"/>
<path d="M475.237 697.089L482.604 711.822C483.904 714.422 486.504 716.155 489.104 716.589L505.571 719.189C512.937 720.055 515.537 729.155 510.337 734.355L498.637 746.055C496.471 748.222 495.604 750.822 496.037 753.855L498.637 770.322C499.937 777.689 492.137 782.889 485.637 779.855L470.904 772.055C468.304 770.755 465.271 770.755 462.671 772.055L447.937 779.855C441.437 783.322 433.637 777.689 434.937 770.322L437.537 753.855C437.971 750.822 437.104 748.222 434.937 746.055L423.237 734.355C418.037 729.155 421.071 720.489 428.004 719.189L444.471 716.589C447.504 716.155 449.671 714.422 450.971 711.822L458.337 697.089C462.671 690.155 472.204 690.155 475.237 697.089Z" fill="#FFDE55"/>
<path d="M941.071 745.621C938.904 747.788 938.038 750.821 938.471 753.421L941.071 769.888C942.371 777.255 934.571 782.888 928.071 779.421L919.404 774.655C922.438 753.421 923.304 731.755 923.738 710.088L924.604 711.821C925.904 714.421 928.504 716.155 931.104 716.588L947.571 718.755C954.938 719.621 957.971 728.721 952.338 733.921L941.071 745.621Z" fill="#FFDE55"/>
</g>
</svg>
