<svg width="1300" height="1300" viewBox="0 0 1300 1300" fill="none" xmlns="http://www.w3.org/2000/svg">
<path d="M650 1300C290.71 1300 0 1008.86 0 650C0 290.71 291.141 0 650 0C1009.29 0 1300 291.141 1300 650C1300.43 1009.29 1009.29 1300 650 1300Z" fill="#1D1075"/>
<mask id="mask0_324_1643" style="mask-type:alpha" maskUnits="userSpaceOnUse" x="0" y="0" width="1301" height="1300">
<path d="M650 1300C290.71 1300 0 1008.86 0 650C0 290.71 291.141 0 650 0C1009.29 0 1300 291.141 1300 650C1300.43 1009.29 1009.29 1300 650 1300Z" fill="#F7C0B5"/>
</mask>
<g mask="url(#mask0_324_1643)">
<path d="M1012.27 1197.33C1009.23 1199.49 1005.77 1201.66 1002.73 1203.83C999.265 1205.99 996.232 1208.16 992.765 1209.89C989.732 1211.63 987.132 1213.36 984.099 1215.09C983.665 1215.53 983.232 1215.53 982.799 1215.96C972.832 1222.03 962.432 1227.66 952.032 1232.86C948.999 1234.59 945.532 1236.33 942.499 1237.63C942.499 1237.63 942.066 1238.06 941.632 1238.06C938.166 1239.79 934.699 1241.53 931.232 1243.26C924.299 1246.73 916.932 1249.76 909.999 1252.79C906.532 1254.53 902.632 1255.83 899.166 1257.13C895.699 1258.43 891.799 1260.16 888.332 1261.46C884.866 1262.76 880.966 1264.49 877.499 1265.79C877.499 1265.79 877.499 1265.79 877.065 1265.79C873.599 1267.09 869.699 1268.39 866.232 1269.69C858.432 1272.29 850.199 1274.89 842.399 1277.49C839.799 1278.36 836.766 1279.23 834.166 1280.09C825.932 1282.69 817.699 1284.86 809.466 1286.59C806.432 1287.46 803.399 1287.89 799.932 1288.76C792.132 1290.49 783.899 1292.23 776.099 1293.96C774.365 1294.39 773.066 1294.39 771.332 1294.83C768.732 1295.26 765.699 1295.69 763.099 1296.13C759.199 1296.56 755.732 1297.43 751.832 1297.86C750.099 1298.29 748.366 1298.29 746.632 1298.73C744.466 1299.16 741.865 1299.59 739.265 1299.59C732.332 1300.46 724.966 1301.33 718.032 1302.19C715.866 1302.63 713.266 1302.63 711.099 1303.06H710.666C707.632 1303.49 704.599 1303.49 701.566 1303.93C698.532 1304.36 695.499 1304.36 692.466 1304.36C690.732 1304.36 688.566 1304.79 686.832 1304.79C683.366 1304.79 680.332 1305.23 677.299 1305.23C672.966 1305.23 669.066 1305.66 664.732 1305.66C660.399 1305.66 656.499 1305.66 652.166 1305.66C649.132 1305.66 646.099 1305.66 643.066 1305.66C460.632 1303.06 295.966 1225.49 178.966 1102.43C178.966 1102.43 178.966 1101.99 178.532 1101.99C191.966 1075.56 241.799 1027.89 293.799 988.461C359.666 938.628 452.832 907.861 452.832 907.861C452.832 907.861 513.932 897.895 740.566 945.128C913.465 981.528 987.132 1129.29 1012.27 1197.33Z" fill="#C99589"/>
<path d="M788.665 1065.16C779.565 1109.8 720.631 1136.23 621.398 1096.36C499.631 1046.96 452.831 907.863 452.831 907.863C446.331 808.196 431.165 722.829 431.165 722.829C571.998 710.696 738.398 875.363 738.398 875.363L757.465 956.829C759.198 963.763 762.665 969.829 767.865 974.163C776.965 989.763 794.731 1036.56 788.665 1065.16Z" fill="#C99589"/>
<path d="M767.866 974.597C685.1 970.264 624 958.131 558.566 840.697C614.033 889.664 679.466 908.297 748.366 916.964L757.466 956.831C759.2 964.197 762.666 970.264 767.866 974.597Z" fill="#A56663"/>
<path d="M939.032 452.43C946.832 488.83 950.732 518.296 929.499 615.363C908.265 712.43 948.999 809.496 846.732 898.33C777.832 958.13 657.365 969.396 561.165 903.963C528.665 881.863 498.765 851.096 474.499 810.796C455.432 779.163 433.332 749.263 408.632 721.963C374.399 684.696 333.232 609.73 353.599 477.13C386.532 261.33 600.165 236.63 726.265 260.463C852.365 284.296 917.799 356.23 939.032 452.43Z" fill="#C99589"/>
<path d="M524.333 621.86C524.333 621.86 510.9 556.861 447.633 564.661C393.033 571.594 373.966 702.46 497.9 738.86" fill="#C99589"/>
<path d="M493.998 679.497C493.998 679.497 478.398 669.53 480.132 652.197C482.732 631.83 480.132 619.263 470.598 615.363C446.765 605.397 441.998 633.13 442.865 636.597" stroke="#423232" stroke-width="13" stroke-miterlimit="10" stroke-linecap="round" stroke-linejoin="round"/>
<path d="M824.633 721.529C824.633 721.529 841.1 722.396 856.7 703.763C865.366 693.363 872.733 680.363 867.966 676.463C863.2 672.129 784.766 684.263 779.566 694.663C774.366 705.063 804.7 721.529 824.633 721.529Z" fill="#A56663"/>
<path d="M837.633 575.928C837.633 575.928 838.499 617.094 864.933 663.028C876.633 683.394 858.866 716.761 820.299 722.394" stroke="#423232" stroke-width="13" stroke-miterlimit="10" stroke-linecap="round" stroke-linejoin="round"/>
<path d="M1057.78 1116.6C996.25 1037.3 900.917 1004.37 848.484 984.871C844.15 963.205 835.917 939.371 822.917 916.405C802.984 928.538 780.017 937.638 756.184 942.405L759.65 956.705C761.384 963.638 770.05 995.705 756.617 1036.87C745.35 1071.54 699.85 1087.14 622.717 1052.04C472.35 984.005 455.017 907.305 455.017 907.305C452.417 865.705 448.084 826.705 444.184 795.071C397.384 805.471 343.217 826.705 313.75 871.338C277.35 925.938 263.917 981.405 267.384 1025.6C204.117 1065.9 106.184 1127 74.1171 1236.2C32.5171 1378.34 39.4504 1465.44 39.4504 1465.44H1159.18C1157.88 1465.87 1141.42 1224.5 1057.78 1116.6Z" fill="#6060D8"/>
<path d="M388.284 974.474C388.284 974.474 414.718 1077.17 530.418 1148.24" stroke="#423232" stroke-width="13" stroke-miterlimit="10" stroke-linecap="round" stroke-linejoin="round"/>
<path d="M848.051 984.871C848.051 984.871 878.818 1117.9 811.651 1179" stroke="#423232" stroke-width="13" stroke-miterlimit="10" stroke-linecap="round" stroke-linejoin="round"/>
<path d="M639.185 1158.64C639.185 1158.64 616.651 1224.51 622.718 1270.01" stroke="#423232" stroke-width="13" stroke-miterlimit="10" stroke-linecap="round" stroke-linejoin="round"/>
<path d="M777.419 1154.74C777.419 1154.74 794.319 1191.57 806.452 1250.07" stroke="#423232" stroke-width="13" stroke-miterlimit="10" stroke-linecap="round" stroke-linejoin="round"/>
<path d="M266.517 1026.04C266.517 1026.04 302.05 1170.77 513.517 1213.24" stroke="#423232" stroke-width="13" stroke-miterlimit="10" stroke-linecap="round" stroke-linejoin="round"/>
<path d="M626.617 1279.97L607.55 1278.24C600.617 1277.37 595.417 1270.87 596.717 1263.94L603.217 1231.44C604.95 1222.34 613.617 1215.84 622.717 1217.14C631.817 1218.01 639.184 1225.81 639.184 1235.34L639.617 1268.71C639.617 1275.21 633.55 1280.84 626.617 1279.97Z" fill="white"/>
<path d="M825.519 1260.04L807.319 1266.54C800.385 1269.14 793.019 1264.81 791.719 1257.87L783.919 1225.81C781.752 1216.71 786.519 1207.61 795.619 1204.14C804.285 1201.11 814.252 1205.01 818.152 1213.24L832.452 1243.14C835.485 1249.64 832.452 1257.44 825.519 1260.04Z" fill="white"/>
<path d="M1016.62 1250.07C1016.62 1250.07 1040.88 1386.14 1031.35 1465.87" stroke="#544D4D" stroke-width="13" stroke-miterlimit="10" stroke-linecap="round" stroke-linejoin="round"/>
<path d="M683.943 619.44C673.543 619.006 665.743 610.34 666.61 599.94L667.043 587.806C667.476 577.406 676.143 569.606 686.543 570.473C696.943 570.906 704.743 579.573 703.876 589.973L703.443 602.106C703.01 612.073 694.343 619.873 683.943 619.44Z" fill="#423232"/>
<path d="M866.376 625.94C856.843 625.506 849.476 617.273 849.91 607.74L850.343 596.473C850.776 586.94 859.01 579.573 868.543 580.006C878.076 580.44 885.443 588.673 885.01 598.206L884.576 609.473C884.143 619.006 875.91 626.373 866.376 625.94Z" fill="#423232"/>
<path d="M725.977 594.306C725.977 594.306 714.711 578.273 695.211 575.239C679.177 572.639 661.411 580.439 658.811 589.539" stroke="#423232" stroke-width="13" stroke-miterlimit="10" stroke-linecap="round" stroke-linejoin="round"/>
<path d="M853.811 598.206C853.811 598.206 853.811 584.339 873.744 584.339C890.211 584.339 897.144 599.506 897.144 599.506" stroke="#423232" stroke-width="13" stroke-miterlimit="10" stroke-linecap="round" stroke-linejoin="round"/>
<path d="M743.743 524.54C752.843 527.573 761.943 519.34 760.209 509.373C759.343 504.173 757.176 498.973 752.843 495.073C739.843 483.373 686.109 472.973 653.609 488.14C625.009 502.006 702.143 510.673 743.743 524.54Z" fill="#423232"/>
<path d="M873.309 531.472C865.942 534.072 858.142 526.272 859.442 517.172C859.875 512.405 861.609 507.639 865.075 504.172C875.475 493.772 911.008 485.539 933.542 501.572C953.042 515.005 907.109 518.905 873.309 531.472Z" fill="#423232"/>
<path d="M807.564 767.297C791.964 776.397 769.43 773.797 749.93 764.264" stroke="#423232" stroke-width="13" stroke-miterlimit="10" stroke-linecap="round" stroke-linejoin="round"/>
<path d="M752.098 749.097C752.098 749.097 752.098 768.163 730.864 775.963" stroke="#423232" stroke-width="13" stroke-miterlimit="10" stroke-linecap="round" stroke-linejoin="round"/>
<path d="M971.542 366.632C940.775 477.999 852.808 455.899 767.875 429.032C468.442 334.132 520.008 624.032 516.108 618.832C506.575 600.632 486.208 578.099 447.642 582.866C397.375 589.366 377.008 700.732 471.042 746.666C468.875 766.599 454.575 783.499 438.108 795.632C393.908 758.366 325.442 686.432 299.875 582.432C290.342 544.299 294.242 512.666 298.142 487.966C310.708 411.266 358.375 395.233 358.375 395.233C360.108 314.199 444.608 224.933 586.742 227.966C729.308 230.133 1002.31 255.266 971.542 366.632Z" fill="#423232"/>
<path d="M975.008 500.532C970.675 528.699 958.541 550.365 941.641 566.399C948.141 519.165 944.675 496.632 939.041 470.199C926.908 416.032 900.908 369.232 857.575 334.565C879.241 332.832 901.341 337.599 921.275 350.165C921.275 350.165 949.875 370.099 960.708 434.232C964.175 452.865 978.908 472.799 975.008 500.532Z" fill="#423232"/>
<path d="M621.408 228.398C621.408 228.398 786.075 164.265 844.141 185.498C892.241 203.265 874.908 252.665 874.908 252.665C874.908 252.665 957.242 231.865 1001.87 285.598C1046.51 339.331 994.941 409.098 965.475 434.665C965.475 434.665 1011.84 446.798 1007.07 486.231C1001.44 535.631 941.208 565.965 941.208 565.965C941.208 565.965 962.008 523.498 958.975 482.765C955.941 442.031 960.708 412.998 930.808 383.531C900.908 353.631 829.842 381.798 753.142 343.665C676.875 305.531 621.408 228.398 621.408 228.398Z" fill="#423232"/>
<path d="M749.233 669.067H648.267C621.833 669.067 600.6 647.834 600.6 621.401V580.234C600.6 553.801 621.833 532.567 648.267 532.567H749.233C775.667 532.567 796.9 553.801 796.9 580.234V621.401C796.9 647.834 775.233 669.067 749.233 669.067Z" stroke="#423232" stroke-width="13" stroke-miterlimit="10" stroke-linecap="round" stroke-linejoin="round"/>
<path d="M923.432 532.567H873.599C856.266 532.567 841.966 546.867 841.966 564.201V601.901C848.032 623.567 856.699 644.367 869.699 663.001C870.999 663.001 872.299 663.434 873.599 663.434H923.432C940.766 663.434 955.066 649.134 955.066 631.801V564.201C955.499 546.434 941.199 532.567 923.432 532.567Z" stroke="#423232" stroke-width="13" stroke-miterlimit="10" stroke-linecap="round" stroke-linejoin="round"/>
<path d="M796.899 572.001C811.633 570.268 830.266 568.968 845.866 570.701" stroke="#423232" stroke-width="13" stroke-miterlimit="10" stroke-linecap="round" stroke-linejoin="round"/>
<path d="M600.599 575.033L500.066 578.5" stroke="#423232" stroke-width="13" stroke-miterlimit="10" stroke-linecap="round" stroke-linejoin="round"/>
</g>
</svg>
