<svg width="1300" height="1300" viewBox="0 0 1300 1300" fill="none" xmlns="http://www.w3.org/2000/svg">
<path d="M650 1300C290.71 1300 0 1008.86 0 650C0 290.71 291.141 0 650 0C1009.29 0 1300 291.141 1300 650C1300.43 1009.29 1009.29 1300 650 1300Z" fill="#1D1075"/>
<mask id="mask0_324_2221" style="mask-type:alpha" maskUnits="userSpaceOnUse" x="0" y="0" width="1301" height="1300">
<path d="M650 1300C290.71 1300 0 1008.86 0 650C0 290.71 291.141 0 650 0C1009.29 0 1300 291.141 1300 650C1300.43 1009.29 1009.29 1300 650 1300Z" fill="#F7C0B5"/>
</mask>
<g mask="url(#mask0_324_2221)">
<path d="M1015.73 1197.33C1012.7 1199.49 1009.23 1201.66 1006.2 1203.83C1002.73 1205.99 999.698 1208.16 996.231 1209.89C993.198 1211.63 990.598 1213.36 987.565 1215.09C987.131 1215.53 986.698 1215.53 986.265 1215.96C976.298 1222.03 965.898 1227.66 955.498 1232.86C952.465 1234.59 948.998 1236.33 945.965 1237.63C945.965 1237.63 945.531 1238.06 945.098 1238.06C941.631 1239.79 938.165 1241.53 934.698 1243.26C927.765 1246.73 920.398 1249.76 913.465 1252.79C909.998 1254.53 906.098 1255.83 902.631 1257.13C899.165 1258.43 895.265 1260.16 891.798 1261.46C888.331 1262.76 884.431 1264.49 880.965 1265.79C880.965 1265.79 880.965 1265.79 880.531 1265.79C877.065 1267.09 873.165 1268.39 869.698 1269.69C861.898 1272.29 853.665 1274.89 845.865 1277.49C843.265 1278.36 840.231 1279.23 837.631 1280.09C829.398 1282.69 821.165 1284.86 812.931 1286.59C809.898 1287.46 806.865 1287.89 803.398 1288.76C795.598 1290.49 787.365 1292.23 779.565 1293.96C777.831 1294.39 776.531 1294.39 774.798 1294.83C772.198 1295.26 769.165 1295.69 766.565 1296.13C762.665 1296.56 759.198 1297.43 755.298 1297.86C753.565 1298.29 751.831 1298.29 750.098 1298.73C747.931 1299.16 745.331 1299.59 742.731 1299.59C735.798 1300.46 728.431 1301.33 721.498 1302.19C719.331 1302.63 716.731 1302.63 714.565 1303.06H714.131C711.098 1303.49 708.065 1303.49 705.031 1303.93C701.998 1304.36 698.965 1304.36 695.931 1304.36C694.198 1304.36 692.031 1304.79 690.298 1304.79C686.831 1304.79 683.798 1305.23 680.765 1305.23C676.431 1305.23 672.531 1305.66 668.198 1305.66C663.865 1305.66 659.965 1305.66 655.631 1305.66C652.598 1305.66 649.565 1305.66 646.531 1305.66C464.098 1303.06 299.431 1225.49 182.431 1102.43C182.431 1102.43 182.431 1101.99 181.998 1101.99C195.431 1075.56 245.265 1027.89 297.265 988.461C363.131 938.628 456.298 907.861 456.298 907.861C456.298 907.861 517.398 897.895 744.031 945.128C916.931 981.528 990.598 1129.29 1015.73 1197.33Z" fill="#FEE4BF"/>
<path d="M792.13 1065.16C783.03 1109.8 724.097 1136.23 624.864 1096.36C503.097 1046.96 456.297 907.863 456.297 907.863C449.797 808.196 434.63 722.829 434.63 722.829C575.464 710.696 741.864 875.363 741.864 875.363L760.93 956.829C762.664 963.763 766.13 969.829 771.33 974.163C780.43 989.763 798.197 1036.56 792.13 1065.16Z" fill="#FEE4BF"/>
<path d="M771.332 974.597C688.566 970.264 627.466 958.131 562.032 840.697C617.499 889.664 682.932 908.297 751.832 916.964L760.932 956.831C762.666 964.197 766.132 970.264 771.332 974.597Z" fill="#EFBDA5"/>
<path d="M942.498 452.43C950.298 488.83 954.198 518.296 932.965 615.363C911.731 712.43 952.465 809.496 850.198 898.33C781.298 958.13 660.831 969.396 564.631 903.963C532.131 881.863 502.231 851.096 477.965 810.796C458.898 779.163 436.798 749.263 412.098 721.963C377.865 684.696 336.698 609.73 357.065 477.13C389.998 261.33 603.631 236.63 729.731 260.463C855.831 284.296 921.265 356.23 942.498 452.43Z" fill="#FEE4BF"/>
<path d="M527.799 621.86C527.799 621.86 514.366 556.861 451.099 564.661C396.499 571.594 377.432 702.46 501.366 738.86" fill="#FEE4BF"/>
<path d="M497.464 679.497C497.464 679.497 481.864 669.53 483.598 652.197C486.198 631.83 483.598 619.263 474.064 615.363C450.231 605.397 445.464 633.13 446.331 636.597" stroke="#423232" stroke-width="13" stroke-miterlimit="10" stroke-linecap="round" stroke-linejoin="round"/>
<path d="M828.099 721.529C828.099 721.529 844.565 722.396 860.165 703.763C868.832 693.363 876.199 680.363 871.432 676.463C866.665 672.129 788.232 684.263 783.032 694.663C777.832 705.063 808.165 721.529 828.099 721.529Z" fill="#EFBDA5"/>
<path d="M841.098 575.928C841.098 575.928 841.965 617.094 868.398 663.028C880.098 683.394 862.332 716.761 823.765 722.394" stroke="#423232" stroke-width="13" stroke-miterlimit="10" stroke-linecap="round" stroke-linejoin="round"/>
<path opacity="0.42" d="M606.232 743.629C630.882 743.629 650.865 727.138 650.865 706.795C650.865 686.453 630.882 669.962 606.232 669.962C581.582 669.962 561.599 686.453 561.599 706.795C561.599 727.138 581.582 743.629 606.232 743.629Z" fill="#F2A5B2"/>
<path opacity="0.42" d="M926.031 670.829C924.731 695.096 925.165 718.929 923.431 742.762C904.365 738.429 890.498 724.129 890.498 707.229C890.498 689.029 905.665 674.296 926.031 670.829Z" fill="#F2A5B2"/>
<path d="M1158.24 1464.67H62.7764C62.7764 1464.67 69.2764 1263.6 135.143 1120.17C184.976 1011.83 302.41 951.601 389.943 920.401C414.643 911.734 437.176 905.234 454.51 900.468C454.51 902.634 454.943 904.368 454.943 906.534C454.943 906.534 494.376 994.934 616.143 1043.9C715.376 1084.2 750.043 1068.17 759.143 1023.53C764.776 994.934 779.076 988.434 769.976 973.268C764.776 968.934 761.31 962.434 759.576 955.934L756.11 941.634C764.343 939.901 772.143 937.734 779.943 935.134C782.543 934.268 784.71 933.401 787.31 932.534C843.21 947.268 927.276 982.368 1026.51 1065.57C1138.31 1159.6 1158.24 1464.67 1158.24 1464.67Z" fill="#CC5292"/>
<mask id="mask1_324_2221" style="mask-type:alpha" maskUnits="userSpaceOnUse" x="62" y="900" width="1097" height="565">
<path d="M1158.24 1464.67H62.7764C62.7764 1464.67 69.2764 1263.6 135.143 1120.17C184.976 1011.83 302.41 951.601 389.943 920.401C414.643 911.734 437.176 905.234 454.51 900.468C454.51 902.634 454.943 904.368 454.943 906.534C454.943 906.534 494.376 994.934 616.143 1043.9C715.376 1084.2 750.043 1068.17 759.143 1023.53C764.776 994.934 779.076 988.434 769.976 973.268C764.776 968.934 761.31 962.434 759.576 955.934L756.11 941.634C764.343 939.901 772.143 937.734 779.943 935.134C782.543 934.268 784.71 933.401 787.31 932.534C843.21 947.268 927.276 982.368 1026.51 1065.57C1138.31 1159.6 1158.24 1464.67 1158.24 1464.67Z" fill="#CC5292"/>
</mask>
<g mask="url(#mask1_324_2221)">
<path d="M119.108 1306.5C83.575 1306.5 51.5083 1283.96 39.8083 1250.6C32.0083 1229.36 33.3083 1206.4 42.8417 1186.03C52.375 1165.66 69.275 1150.06 90.5083 1142.7C99.6083 1139.23 109.142 1137.5 119.108 1137.5C154.642 1137.5 186.708 1160.03 198.408 1193.4C214.008 1237.16 191.475 1285.7 147.708 1301.3C138.608 1304.76 129.075 1306.5 119.108 1306.5Z" stroke="#6F2696" stroke-width="13" stroke-miterlimit="10" stroke-linecap="round" stroke-linejoin="round"/>
<path d="M158.108 1208.13C165.908 1229.36 154.641 1253.2 133.408 1260.56C112.174 1268.36 88.3411 1257.1 80.9745 1235.86C73.1745 1214.63 84.4411 1190.8 105.674 1183.43C126.908 1175.63 150.308 1186.9 158.108 1208.13Z" fill="white"/>
<path d="M216.608 1100.23C181.075 1100.23 149.008 1077.7 137.308 1044.33C129.508 1023.1 130.808 1000.13 140.342 979.767C149.875 959.4 166.775 943.8 188.008 936.433C197.108 932.967 206.642 931.233 216.608 931.233C252.142 931.233 284.208 953.767 295.908 987.133C303.708 1008.37 302.408 1031.33 292.875 1051.7C283.342 1072.07 266.442 1087.67 245.208 1095.03C235.675 1098.5 226.142 1100.23 216.608 1100.23Z" stroke="#6F2696" stroke-width="13" stroke-miterlimit="10" stroke-linecap="round" stroke-linejoin="round"/>
<path d="M255.174 1001.87C262.974 1023.1 251.708 1046.93 230.474 1054.3C209.241 1062.1 185.408 1050.83 178.041 1029.6C170.241 1008.37 181.508 984.535 202.741 977.168C223.974 969.368 247.374 980.201 255.174 1001.87Z" fill="white"/>
<path d="M312.374 896.566C276.841 896.566 244.774 874.033 233.074 840.666C217.474 796.9 240.007 748.366 283.774 732.766C292.874 729.3 302.407 727.566 312.374 727.566C347.907 727.566 379.974 750.1 391.674 783.466C407.274 827.233 384.741 875.766 340.974 891.366C331.874 894.833 322.341 896.566 312.374 896.566Z" stroke="#6F2696" stroke-width="13" stroke-miterlimit="10" stroke-linecap="round" stroke-linejoin="round"/>
<path d="M367.841 1307.37C332.308 1307.37 300.241 1284.83 288.541 1251.47C280.741 1230.23 282.041 1207.27 291.575 1186.9C301.108 1166.53 318.008 1150.93 339.241 1143.57C348.341 1140.1 357.875 1138.37 367.841 1138.37C403.375 1138.37 435.441 1160.9 447.141 1194.27C454.941 1215.5 453.641 1238.47 444.108 1258.83C434.575 1279.2 417.675 1294.8 396.441 1302.17C387.341 1305.63 377.375 1307.37 367.841 1307.37Z" stroke="#6F2696" stroke-width="13" stroke-miterlimit="10" stroke-linecap="round" stroke-linejoin="round"/>
<path d="M406.409 1209C414.209 1230.23 402.942 1254.07 381.709 1261.43C360.476 1269.23 336.642 1257.97 329.276 1236.73C321.476 1215.5 332.742 1191.67 353.976 1184.3C375.209 1176.5 398.609 1187.33 406.409 1209Z" fill="white"/>
<path d="M464.908 1100.67C429.374 1100.67 397.308 1078.13 385.608 1044.77C377.808 1023.53 379.108 1000.57 388.641 980.198C398.174 959.832 415.074 944.232 436.308 936.865C445.408 933.398 454.941 931.665 464.908 931.665C500.441 931.665 532.508 954.198 544.208 987.565C552.008 1008.8 550.708 1031.77 541.174 1052.13C531.641 1072.5 514.741 1088.1 493.508 1095.47C484.408 1098.93 474.874 1100.67 464.908 1100.67Z" stroke="#6F2696" stroke-width="13" stroke-miterlimit="10" stroke-linecap="round" stroke-linejoin="round"/>
<path d="M503.909 1002.3C511.709 1023.53 500.442 1047.37 479.209 1054.73C457.976 1062.53 434.142 1051.27 426.776 1030.03C418.976 1008.8 430.242 984.965 451.476 977.598C472.709 969.798 496.109 981.065 503.909 1002.3Z" fill="white"/>
<path d="M561.108 896.998C525.575 896.998 493.508 874.465 481.808 841.098C474.008 819.865 475.308 796.898 484.842 776.531C494.375 756.165 511.275 740.565 532.508 733.198C541.608 729.731 551.142 727.998 561.108 727.998C596.642 727.998 628.708 750.531 640.408 783.898C656.008 827.665 633.475 876.198 589.708 891.798C580.175 895.698 570.642 896.998 561.108 896.998Z" stroke="#6F2696" stroke-width="13" stroke-miterlimit="10" stroke-linecap="round" stroke-linejoin="round"/>
<path d="M623.942 1292.2C588.409 1292.2 556.343 1269.67 544.643 1236.3C529.043 1192.53 551.576 1144 595.343 1128.4C604.443 1124.93 613.976 1123.2 623.942 1123.2C659.476 1123.2 691.542 1145.73 703.242 1179.1C711.042 1200.33 709.742 1223.3 700.209 1243.67C690.676 1264.03 673.776 1279.63 652.543 1287C643.009 1290.47 633.476 1292.2 623.942 1292.2Z" stroke="#6F2696" stroke-width="13" stroke-miterlimit="10" stroke-linecap="round" stroke-linejoin="round"/>
<path d="M662.507 1193.83C670.307 1215.07 659.04 1238.9 637.807 1246.27C616.574 1254.07 592.741 1242.8 585.374 1221.57C577.574 1200.33 588.841 1176.5 610.074 1169.13C631.307 1161.33 654.707 1172.17 662.507 1193.83Z" fill="white"/>
<path d="M719.708 1088.53C684.174 1088.53 652.108 1066 640.408 1032.63C624.808 988.866 647.341 940.332 691.108 924.732C700.208 921.266 709.741 919.532 719.708 919.532C755.241 919.532 787.308 942.066 799.008 975.432C814.608 1019.2 792.074 1067.73 748.308 1083.33C739.208 1086.8 729.241 1088.53 719.708 1088.53Z" stroke="#6F2696" stroke-width="13" stroke-miterlimit="10" stroke-linecap="round" stroke-linejoin="round"/>
<path d="M758.274 990.167C766.074 1011.4 754.808 1035.23 733.574 1042.6C712.341 1050.4 688.508 1039.13 681.141 1017.9C673.341 996.667 684.608 972.834 705.841 965.467C727.074 957.667 750.908 968.5 758.274 990.167Z" fill="white"/>
<path d="M872.242 1292.63C836.709 1292.63 804.642 1270.1 792.942 1236.73C777.342 1192.97 799.875 1144.43 843.642 1128.83C852.742 1125.37 862.275 1123.63 872.242 1123.63C907.775 1123.63 939.842 1146.17 951.542 1179.53C959.342 1200.77 958.042 1223.73 948.509 1244.1C938.975 1264.47 922.075 1280.07 900.842 1287.43C891.742 1290.9 882.208 1292.63 872.242 1292.63Z" stroke="#6F2696" stroke-width="13" stroke-miterlimit="10" stroke-linecap="round" stroke-linejoin="round"/>
<path d="M910.808 1194.27C918.608 1215.5 907.342 1239.33 886.108 1246.7C864.875 1254.5 841.042 1243.23 833.675 1222C825.875 1200.77 837.142 1176.93 858.375 1169.57C879.608 1161.77 903.442 1173.03 910.808 1194.27Z" fill="white"/>
<path d="M968.008 1088.97C932.474 1088.97 900.408 1066.43 888.708 1033.07C880.908 1011.83 882.208 988.868 891.741 968.501C901.274 948.134 918.174 932.534 939.408 925.168C948.508 921.701 958.041 919.968 968.008 919.968C1003.54 919.968 1035.61 942.501 1047.31 975.868C1062.91 1019.63 1040.37 1068.17 996.174 1083.77C987.508 1087.23 977.974 1088.97 968.008 1088.97Z" stroke="#6F2696" stroke-width="13" stroke-miterlimit="10" stroke-linecap="round" stroke-linejoin="round"/>
<path d="M1007.01 990.601C1014.81 1011.83 1003.54 1035.67 982.307 1043.03C961.074 1050.83 937.241 1039.57 929.874 1018.33C922.074 997.101 933.341 973.268 954.574 965.901C975.807 958.101 999.207 969.368 1007.01 990.601Z" fill="white"/>
</g>
<path d="M719.276 1076.83C719.71 1077.27 719.71 1077.27 720.143 1077.7C720.143 1077.27 720.143 1076.83 720.143 1076.83C719.71 1076.4 719.276 1076.4 719.276 1076.83Z" fill="white"/>
<path d="M277.276 1464.66L257.776 1304.33" stroke="#544D4D" stroke-width="13" stroke-miterlimit="10" stroke-linecap="round" stroke-linejoin="round"/>
<path d="M1033.88 1249.3C1033.88 1249.3 1020.88 1280.94 1024.78 1312.57C1028.68 1344.2 1039.94 1390.57 1023.91 1464.67" stroke="#544D4D" stroke-width="13" stroke-miterlimit="10" stroke-linecap="round" stroke-linejoin="round"/>
<path d="M822.41 915.633C822.41 915.633 763.043 957.666 648.643 939.9C552.01 924.733 485.71 889.633 461.877 875.333C455.81 871.433 451.477 864.933 451.043 857.566L450.61 851.066C450.61 851.066 430.243 852.8 426.777 881.4C425.043 895.266 425.043 917.366 425.477 936.866C425.91 962.866 436.31 988 454.51 1006.63C483.543 1036.53 543.777 1075.53 612.677 1087.23C778.643 1114.97 823.71 1042.6 822.41 1004.03C821.11 958.966 822.41 915.633 822.41 915.633Z" fill="#CC5292"/>
<path d="M425.477 936.434C425.91 962.434 436.31 987.567 454.51 1006.2C483.544 1036.1 543.777 1075.1 612.677 1086.8C778.644 1114.53 823.71 1042.17 822.41 1003.6" stroke="#993665" stroke-width="13" stroke-miterlimit="10" stroke-linecap="round" stroke-linejoin="round"/>
<path d="M708.443 944.233C708.443 944.233 744.843 948.567 743.976 988.867C743.11 1029.17 744.843 1085.07 744.843 1085.07" stroke="#993665" stroke-width="13" stroke-miterlimit="10" stroke-linecap="round" stroke-linejoin="round"/>
<path d="M685.909 1013.57C695.243 1013.57 702.809 1006 702.809 996.668C702.809 987.334 695.243 979.768 685.909 979.768C676.576 979.768 669.009 987.334 669.009 996.668C669.009 1006 676.576 1013.57 685.909 1013.57Z" fill="white"/>
<path d="M685.909 1068.17C695.243 1068.17 702.809 1060.6 702.809 1051.27C702.809 1041.93 695.243 1034.37 685.909 1034.37C676.576 1034.37 669.009 1041.93 669.009 1051.27C669.009 1060.6 676.576 1068.17 685.909 1068.17Z" fill="white"/>
<path d="M743.042 526.549C752.575 527.849 759.942 517.882 756.475 508.349C754.742 503.149 751.709 498.382 746.942 495.349C732.209 486.249 677.175 485.382 648.142 506.182C622.575 525.249 699.709 520.482 743.042 526.549Z" fill="#423232"/>
<path d="M863.074 531.315C855.274 531.315 850.508 521.348 854.408 513.115C856.574 508.782 859.608 504.882 863.941 502.715C877.374 496.215 913.341 500.115 929.374 522.215C943.674 541.715 899.041 530.882 863.074 531.315Z" fill="#423232"/>
<path d="M727.875 581.148C694.075 595.448 656.375 577.682 656.375 577.682" stroke="#423232" stroke-width="13" stroke-miterlimit="10" stroke-linecap="round" stroke-linejoin="round"/>
<path d="M899.043 589.816C899.043 589.816 875.643 604.116 846.176 587.216" stroke="#423232" stroke-width="13" stroke-miterlimit="10" stroke-linecap="round" stroke-linejoin="round"/>
<path d="M807.564 767.297C791.964 776.397 769.43 773.797 749.93 764.264" stroke="#423232" stroke-width="13" stroke-miterlimit="10" stroke-linecap="round" stroke-linejoin="round"/>
<path d="M752.098 749.097C752.098 749.097 752.098 768.163 730.864 775.963" stroke="#423232" stroke-width="13" stroke-miterlimit="10" stroke-linecap="round" stroke-linejoin="round"/>
<path d="M939.689 578.561C951.389 512.694 947.922 486.694 940.989 455.928C938.822 446.394 936.222 437.294 933.189 428.194C905.889 416.061 883.355 449.861 846.089 444.661C746.855 431.227 671.022 388.761 587.389 406.961C534.955 418.227 526.289 465.461 541.455 552.561C545.789 576.394 545.789 599.361 525.422 623.194C521.955 611.061 505.055 561.661 449.589 568.594C397.155 575.094 377.222 696.427 485.555 738.027C484.689 761.861 462.589 806.061 444.822 816.027C444.822 816.027 441.789 784.394 407.122 742.794C372.455 701.194 303.122 593.294 349.922 435.561C396.722 277.828 608.622 195.494 805.789 275.661C839.589 289.527 867.322 309.028 889.422 329.394C941.422 377.061 969.155 446.394 960.922 516.161C959.189 539.561 952.689 562.094 939.689 578.561Z" fill="#423232"/>
<path d="M496.388 305.56C496.388 305.56 508.955 166.46 433.555 149.56C358.155 132.66 384.155 214.993 407.555 266.56C407.555 266.56 317.422 185.96 277.988 240.56C240.288 292.993 334.755 350.193 334.755 350.193C334.755 350.193 194.788 361.46 224.255 441.193C254.155 520.927 407.555 416.927 407.555 416.927C407.555 416.927 495.955 335.46 496.388 305.56Z" fill="#423232"/>
<path opacity="0.6" d="M582.175 675.398C582.175 675.398 588.242 688.398 606.442 690.132C624.642 691.865 845.642 641.598 853.442 642.898C861.242 644.198 874.242 648.965 874.242 648.965L925.375 681.465L926.242 658.932C926.242 658.932 897.642 623.398 827.875 626.865C758.109 630.332 582.175 675.398 582.175 675.398Z" fill="#B7AEA9"/>
<path d="M592.575 469.998C575.675 469.564 561.375 482.998 561.375 499.898V539.331C561.375 559.264 545.342 575.731 524.975 575.731H510.675L524.975 601.298C544.909 601.298 561.375 617.331 561.375 637.697V651.564C561.375 670.198 577.842 684.064 596.042 681.464L837.842 643.764C843.042 642.898 847.809 642.897 853.009 643.331L854.309 478.231L592.575 469.998Z" fill="#5E4949"/>
<path d="M944.44 480.395L854.74 477.795L853.44 642.895C860.807 643.762 867.74 645.495 874.24 648.962L922.773 673.228C935.34 679.295 950.073 671.062 951.373 657.195L964.807 502.928C965.673 491.228 956.573 480.828 944.44 480.395Z" fill="#423232"/>
<path d="M657.141 538.897L908.041 544.531C921.907 544.964 932.741 557.097 931.007 570.964C929.707 583.097 919.741 592.197 907.607 592.197H656.707C643.274 592.197 632.441 580.931 632.874 567.497L633.307 561.864C633.741 548.431 644.574 538.897 657.141 538.897Z" fill="#E26076" stroke="#423232" stroke-width="13" stroke-miterlimit="10" stroke-linecap="round" stroke-linejoin="round"/>
<path d="M688.342 573.996H664.508C659.742 573.996 655.842 570.096 655.842 565.33C655.842 560.563 659.742 556.663 664.508 556.663H688.342C693.108 556.663 697.008 560.563 697.008 565.33C696.575 570.096 693.108 573.996 688.342 573.996Z" fill="white"/>
</g>
</svg>
