<svg width="1300" height="1300" viewBox="0 0 1300 1300" fill="none" xmlns="http://www.w3.org/2000/svg">
<path d="M650 1300C290.71 1300 0 1008.86 0 650C0 290.71 291.141 0 650 0C1009.29 0 1300 291.141 1300 650C1300.43 1009.29 1009.29 1300 650 1300Z" fill="#1D1075"/>
<mask id="mask0_310_952" style="mask-type:alpha" maskUnits="userSpaceOnUse" x="0" y="0" width="1300" height="1300">
<path d="M650 1300C290.71 1300 0 1008.86 0 650C0 290.71 291.141 0 650 0C1009.29 0 1300 291.141 1300 650C1300.43 1009.29 1009.29 1300 650 1300Z" fill="#1D1075"/>
</mask>
<g mask="url(#mask0_310_952)">
<path d="M1014.86 1197.33C1011.83 1199.5 1008.36 1201.66 1005.33 1203.83C1001.86 1206 998.831 1208.16 995.364 1209.9C992.331 1211.63 989.731 1213.36 986.698 1215.1C986.264 1215.53 985.831 1215.53 985.398 1215.96C975.431 1222.03 965.031 1227.66 954.631 1232.86C951.598 1234.6 948.131 1236.33 945.098 1237.63C945.098 1237.63 944.664 1238.06 944.231 1238.06C940.764 1239.8 937.298 1241.53 933.831 1243.26C926.898 1246.73 919.531 1249.76 912.598 1252.8C909.131 1254.53 905.231 1255.83 901.764 1257.13C898.298 1258.43 894.398 1260.16 890.931 1261.46C887.464 1262.76 883.564 1264.5 880.098 1265.8C880.098 1265.8 880.098 1265.8 879.664 1265.8C876.198 1267.1 872.298 1268.4 868.831 1269.7C861.031 1272.3 852.798 1274.9 844.998 1277.5C842.398 1278.36 839.364 1279.23 836.764 1280.1C828.531 1282.7 820.298 1284.86 812.064 1286.6C809.031 1287.46 805.998 1287.9 802.531 1288.76C794.731 1290.5 786.498 1292.23 778.698 1293.96C776.964 1294.4 775.664 1294.4 773.931 1294.83C771.331 1295.26 768.298 1295.7 765.698 1296.13C761.798 1296.56 758.331 1297.43 754.431 1297.86C752.698 1298.3 750.964 1298.3 749.231 1298.73C747.064 1299.16 744.464 1299.6 741.864 1299.6C734.931 1300.46 727.564 1301.33 720.631 1302.2C718.464 1302.63 715.864 1302.63 713.698 1303.06H713.264C710.231 1303.5 707.198 1303.5 704.164 1303.93C701.131 1304.36 698.098 1304.36 695.064 1304.36C693.331 1304.36 691.164 1304.8 689.431 1304.8C685.964 1304.8 682.931 1305.23 679.898 1305.23C675.564 1305.23 671.664 1305.66 667.331 1305.66C662.998 1305.66 659.098 1305.66 654.764 1305.66C651.731 1305.66 648.698 1305.66 645.664 1305.66C463.231 1303.06 298.565 1225.5 181.565 1102.43C181.565 1102.43 181.565 1102 181.131 1102C194.565 1075.56 244.398 1027.9 296.398 988.465C362.265 938.631 455.431 907.865 455.431 907.865C455.431 907.865 516.531 897.898 743.164 945.131C916.064 981.531 989.731 1129.3 1014.86 1197.33Z" fill="#AD827B"/>
<path d="M791.265 1065.16C782.165 1109.8 723.232 1136.23 623.998 1096.36C502.232 1046.96 455.432 907.865 455.432 907.865C448.932 808.198 433.765 722.831 433.765 722.831C574.598 710.698 740.998 875.365 740.998 875.365L760.065 956.831C761.798 963.765 765.265 969.831 770.465 974.165C779.565 989.765 797.332 1036.56 791.265 1065.16Z" fill="#AD827B"/>
<path d="M770.465 974.599C687.698 970.266 626.598 958.132 561.165 840.699C616.631 889.666 682.065 908.299 750.965 916.966L760.065 956.832C761.798 964.199 765.265 970.266 770.465 974.599Z" fill="#8E5650"/>
<path d="M941.631 452.432C949.431 488.832 953.331 518.299 932.098 615.365C910.864 712.432 951.598 809.498 849.331 898.332C780.431 958.132 659.964 969.398 563.764 903.965C531.264 881.865 501.365 851.098 477.098 810.798C458.031 779.165 435.931 749.265 411.231 721.965C376.998 684.698 335.831 609.732 356.198 477.132C389.131 261.332 602.764 236.632 728.864 260.465C854.964 284.299 920.398 356.232 941.631 452.432Z" fill="#AD827B"/>
<path d="M526.931 621.865C526.931 621.865 513.497 556.865 450.231 564.665C395.631 571.598 376.564 702.465 500.497 738.865" fill="#AD827B"/>
<path d="M496.598 679.498C496.598 679.498 480.998 669.531 482.731 652.198C485.331 631.831 482.731 619.265 473.198 615.365C449.365 605.398 444.598 633.131 445.465 636.598" stroke="#423232" stroke-width="13.4786" stroke-miterlimit="10" stroke-linecap="round" stroke-linejoin="round"/>
<path d="M827.231 721.531C827.231 721.531 843.697 722.398 859.297 703.765C867.964 693.365 875.331 680.365 870.564 676.465C865.797 672.131 787.364 684.265 782.164 694.665C776.964 705.065 807.297 721.531 827.231 721.531Z" fill="#8E605C"/>
<path d="M840.231 575.932C840.231 575.932 841.098 617.099 867.531 663.032C879.231 683.399 861.465 716.765 822.898 722.399" stroke="#423232" stroke-width="13.4786" stroke-miterlimit="10" stroke-linecap="round" stroke-linejoin="round"/>
<path d="M377.175 903.566C377.175 903.566 440.442 878.433 452.142 877.566L453.009 887.533C453.009 887.533 402.742 909.199 399.709 912.666C396.675 916.133 377.175 903.566 377.175 903.566Z" fill="#7E5D6D"/>
<path d="M1158.04 1466.03H62.5762C62.5762 1466.03 69.0762 1264.97 134.943 1121.53C184.776 1013.2 304.376 941.699 391.476 910.499C416.176 901.832 435.243 892.299 453.009 887.532C453.009 889.699 454.309 905.732 454.309 907.466C454.309 907.466 526.243 1006.7 686.576 1005.4C782.776 1004.97 755.909 942.566 755.909 942.566C764.143 940.832 771.943 938.666 779.743 936.066C782.343 935.199 800.543 927.832 802.709 926.966C858.609 941.699 927.076 983.299 1026.31 1066.5C1138.11 1160.53 1158.04 1466.03 1158.04 1466.03Z" fill="#E89D6B"/>
<mask id="mask1_310_952" style="mask-type:alpha" maskUnits="userSpaceOnUse" x="62" y="887" width="1097" height="580">
<path d="M1158.04 1466.03H62.5742C62.5742 1466.03 69.0742 1264.97 134.941 1121.53C184.774 1013.2 304.374 941.699 391.474 910.499C416.174 901.833 435.241 892.299 453.007 887.533C453.007 889.699 454.307 905.733 454.307 907.466C454.307 907.466 526.241 1006.7 686.574 1005.4C782.774 1004.97 755.907 942.566 755.907 942.566C764.141 940.833 771.941 938.666 779.741 936.066C782.341 935.199 800.541 927.833 802.707 926.966C858.607 941.699 927.074 983.299 1026.31 1066.5C1138.11 1160.53 1158.04 1466.03 1158.04 1466.03Z" fill="#E89D6B"/>
</mask>
<g mask="url(#mask1_310_952)">
<path d="M287.477 877.998C311.31 878.864 323.443 879.298 347.277 878.864C368.51 891.431 378.91 897.498 400.577 909.198C422.677 907.898 433.943 907.031 456.043 904.431C478.143 914.831 488.977 920.031 511.077 929.998C533.61 926.531 544.876 924.364 566.976 920.031C589.51 928.698 601.21 932.598 623.743 939.964C646.276 934.331 657.543 930.864 680.076 924.364C703.476 930.431 715.176 933.464 738.576 938.664C761.11 930.431 772.376 926.531 794.91 917.431C818.743 921.331 830.876 923.064 854.71 926.098C876.81 915.698 888.076 910.498 910.176 899.231C934.443 900.531 946.576 900.964 970.843 901.398C992.51 888.398 1003.34 881.898 1025.01 868.464C1052.31 866.298 1065.74 864.998 1093.04 861.964C1090.88 872.364 1090.01 877.564 1088.28 887.964C1065.74 890.564 1054.04 891.864 1031.51 893.598C1009.41 907.464 998.576 914.398 976.043 927.398C951.343 927.398 939.21 926.964 914.51 925.664C891.976 936.931 880.71 942.564 858.176 952.964C833.91 949.931 821.776 948.198 797.51 944.731C774.976 953.831 763.276 958.164 740.743 965.964C716.91 960.764 705.21 957.731 681.81 951.664C659.276 958.164 647.576 961.631 625.043 967.264C602.077 959.464 590.377 955.564 567.41 946.898C544.877 951.231 533.61 953.398 510.643 956.864C488.11 946.898 477.277 942.131 454.743 931.298C432.21 933.464 420.943 934.331 398.843 935.631C377.177 923.931 366.343 917.864 345.11 904.864C325.177 904.864 315.21 904.864 295.277 903.998C292.243 894.031 290.943 888.831 287.477 877.998Z" fill="#1D1075"/>
<path d="M281.408 988.065C305.242 988.498 316.942 988.498 341.208 987.631C362.875 999.765 373.708 1005.4 395.375 1016.66C417.475 1014.93 428.308 1013.63 450.408 1010.6C472.508 1020.56 483.775 1025.33 506.308 1034.43C528.408 1030.53 539.241 1027.93 561.775 1023.16C584.741 1030.96 596.441 1034.86 619.408 1041.8C641.508 1035.3 652.775 1032.26 674.875 1024.9C698.275 1030.53 710.408 1033.13 733.808 1037.9C755.908 1029.23 766.741 1024.9 788.841 1015.36C813.108 1018.83 824.808 1020.13 849.075 1022.3C870.741 1011.46 881.575 1005.83 903.241 994.131C927.508 994.998 940.075 994.998 964.341 994.565C985.575 981.565 995.975 974.632 1017.21 960.765C1044.51 958.165 1058.37 956.865 1085.67 952.965C1083.94 963.365 1083.51 968.565 1081.77 978.531C1058.81 981.565 1047.54 982.865 1025.01 985.031C1003.34 999.331 992.941 1006.26 971.275 1019.7C946.575 1020.13 934.008 1020.13 909.308 1019.26C887.208 1030.96 876.375 1036.6 854.275 1047.86C830.008 1045.7 817.441 1044.4 793.175 1040.93C771.075 1050.46 759.808 1054.8 737.275 1063.46C713.441 1058.7 701.308 1056.1 677.475 1050.46C654.941 1057.83 644.108 1060.86 621.575 1067.36C598.175 1060.43 586.475 1056.53 563.508 1048.73C540.975 1053.5 530.141 1056.1 507.608 1060C485.075 1050.9 473.375 1046.13 450.842 1035.73C428.742 1038.33 417.475 1039.63 395.375 1041.8C373.275 1030.53 362.441 1024.46 340.775 1012.33C320.842 1012.76 310.875 1013.2 291.375 1012.76C287.042 1003.23 285.308 998.032 281.408 988.065Z" fill="#1D1075"/>
<path d="M275.342 1096.4C298.742 1095.96 310.876 1095.53 334.709 1094.66C356.376 1106.36 367.642 1112 389.742 1122.4C411.409 1119.8 422.242 1118.5 443.909 1115.03C466.442 1124.56 477.709 1128.9 500.676 1137.56C522.342 1132.8 533.176 1130.63 555.276 1125C578.676 1132.36 590.376 1135.83 613.776 1142.33C635.442 1135.4 646.276 1131.93 667.942 1124.56C691.776 1129.76 703.909 1131.93 727.742 1136.26C749.409 1127.16 760.242 1122.83 781.475 1112.86C805.742 1115.46 817.875 1116.76 842.142 1118.5C863.375 1107.23 874.209 1101.6 895.009 1089.46C919.709 1089.46 931.842 1089.46 956.542 1088.6C977.342 1075.16 987.742 1068.23 1008.11 1054.36C1035.41 1051.33 1049.28 1049.6 1076.58 1045.26C1075.28 1055.23 1074.84 1060.43 1073.98 1070.83C1051.01 1074.3 1039.74 1076.03 1016.78 1078.63C995.976 1092.93 985.142 1100.3 964.342 1113.73C939.209 1114.6 926.642 1115.03 901.942 1114.6C880.276 1126.73 869.875 1132.36 848.209 1144.06C823.509 1142.33 811.376 1141.46 786.676 1138.43C765.009 1148.4 754.176 1153.16 732.076 1162.26C707.809 1158.36 695.676 1155.76 671.842 1150.56C649.742 1158.36 638.909 1161.83 616.809 1168.76C592.976 1162.26 581.276 1158.8 557.876 1151.43C535.776 1157.06 524.942 1159.66 502.842 1164C479.876 1155.33 468.176 1150.56 445.642 1141.03C423.542 1144.5 412.709 1145.8 390.609 1148.4C368.076 1137.56 357.242 1131.93 335.142 1120.23C315.642 1121.1 305.676 1121.53 286.176 1121.96C281.842 1112 279.676 1106.8 275.342 1096.4Z" fill="#1D1075"/>
<path d="M268.842 1204.3C292.242 1203.43 303.942 1202.56 327.342 1200.83C349.442 1212.1 360.709 1217.3 383.242 1227.26C404.476 1224.23 415.309 1222.5 436.976 1218.6C459.942 1227.7 471.642 1232.03 494.609 1239.83C515.842 1234.63 526.676 1232.03 548.342 1225.96C571.742 1232.9 583.876 1235.93 607.276 1241.56C628.509 1234.2 639.342 1230.3 660.576 1222.5C684.842 1226.83 696.542 1229 720.809 1232.46C742.042 1222.93 752.442 1218.16 773.676 1208.2C798.376 1210.36 810.509 1211.23 835.209 1212.53C856.009 1201.26 866.409 1195.2 887.209 1183.06C911.909 1182.63 924.475 1182.2 949.175 1180.9C969.542 1167.46 979.509 1160.53 999.442 1146.23C1027.18 1142.76 1041.04 1140.6 1068.34 1135.83C1067.48 1145.8 1067.48 1151 1066.61 1160.96C1043.64 1164.86 1032.38 1166.6 1009.41 1169.63C989.042 1184.36 978.642 1191.3 958.276 1205.16C933.142 1206.46 920.576 1206.9 895.442 1207.33C874.642 1219.9 863.809 1225.96 843.009 1237.23C818.309 1235.93 805.742 1235.5 781.042 1233.33C759.809 1243.73 748.976 1248.5 727.742 1258.03C703.042 1254.56 690.909 1252.4 666.642 1248.06C644.975 1256.3 634.142 1260.2 612.476 1267.56C588.642 1261.93 576.509 1258.46 552.676 1251.96C531.009 1258.03 520.176 1260.63 498.509 1265.83C475.109 1257.6 463.409 1253.7 440.009 1244.6C418.342 1248.5 407.509 1250.23 385.842 1253.26C362.876 1242.86 351.609 1237.66 329.509 1226.4C310.009 1228.13 300.476 1228.56 280.976 1229.43C276.209 1219.46 273.609 1214.26 268.842 1204.3Z" fill="#1D1075"/>
<path d="M262.776 1310.9C285.743 1309.16 297.443 1308.3 320.843 1305.7C343.376 1316.1 354.643 1321.3 377.61 1330.83C398.843 1327.36 409.243 1325.2 430.476 1320.86C453.876 1329.1 465.576 1333.43 488.976 1340.8C510.21 1335.16 520.61 1332.13 541.41 1325.63C565.243 1331.7 577.376 1334.73 601.21 1339.93C622.01 1332.13 632.41 1328.23 653.643 1319.56C677.91 1323.46 690.043 1325.2 714.743 1328.23C735.543 1318.26 745.51 1313.5 766.31 1303.1C791.01 1304.83 803.576 1305.26 828.276 1306.13C848.643 1294.43 858.61 1288.36 878.976 1275.8C904.109 1274.93 916.243 1274.5 941.376 1272.76C960.876 1258.9 970.843 1251.96 990.343 1237.66C1018.08 1233.76 1031.94 1231.6 1059.68 1226.4C1059.24 1236.36 1059.24 1241.13 1058.81 1251.1C1035.84 1255.43 1024.58 1257.16 1001.61 1260.63C981.676 1275.36 971.71 1282.73 951.776 1296.6C926.643 1298.76 913.643 1299.2 888.51 1300.06C868.143 1312.63 857.743 1319.13 837.376 1330.83C812.243 1330.4 799.676 1329.96 774.543 1328.23C753.743 1339.06 743.343 1343.83 722.543 1353.8C697.843 1350.76 685.276 1349.03 660.576 1345.13C639.343 1353.8 628.943 1357.7 607.71 1365.5C583.443 1360.3 571.31 1357.26 547.043 1351.2C525.81 1357.7 514.976 1360.73 493.743 1366.36C469.91 1359 458.21 1355.1 434.376 1346.43C413.143 1350.76 402.31 1352.93 381.076 1356.4C358.11 1346.86 346.41 1341.66 323.443 1331.26C304.376 1333.43 294.843 1334.3 275.776 1335.6C270.576 1326.06 267.976 1320.86 262.776 1310.9Z" fill="#1D1075"/>
<path d="M436.542 947.765C436.542 947.765 459.942 1034 640.642 1055.67C821.775 1076.9 823.508 962.932 783.642 898.799C743.775 834.665 468.608 850.265 439.142 881.032C409.675 911.799 436.542 947.765 436.542 947.765Z" fill="white"/>
</g>
<path d="M277.075 1466.03L257.575 1305.27" stroke="#544D4D" stroke-width="13.4786" stroke-miterlimit="10" stroke-linecap="round" stroke-linejoin="round"/>
<path d="M1033.68 1250.67C1033.68 1250.67 1020.68 1282.3 1024.58 1313.93C1028.48 1345.57 1039.74 1391.93 1023.71 1466.03" stroke="#544D4D" stroke-width="13.4786" stroke-miterlimit="10" stroke-linecap="round" stroke-linejoin="round"/>
<path d="M377.176 903.566C385.409 900.966 399.709 903.566 404.042 910.933C420.942 938.666 461.676 1019.7 478.576 1180.47C492.009 1306.13 471.642 1532.33 471.642 1532.33L51.3091 1512.4C51.3091 1512.4 63.8758 1298.77 100.709 1155.33C136.676 1016.23 231.142 953.832 377.176 903.566Z" fill="#755B7A"/>
<path d="M813.108 930C813.108 930 947.008 1181.77 908.008 1518.03H1197.47C1197.47 1518.03 1195.74 1289.67 1130.74 1144.93C1065.74 1000.2 838.242 919.167 838.242 919.167C838.242 919.167 823.942 926.1 813.108 930Z" fill="#755B7A"/>
<path d="M813.108 930.001L802.708 926.967C802.708 926.967 817.874 919.601 824.374 915.267L828.274 913.101C828.274 913.101 849.074 922.634 856.441 926.101C863.808 929.567 830.874 945.601 830.874 945.601C830.874 945.601 814.408 930.434 813.108 930.001Z" fill="#7E5D6D"/>
<path d="M473.809 1140.17C473.809 1140.17 459.076 1098.13 425.709 1060.87C394.942 1026.2 338.609 972.467 334.709 960.333C327.342 935.633 373.276 842.467 445.209 809.967C445.209 810.4 445.209 810.833 445.209 811.267C445.209 811.7 445.209 812.134 445.209 813C445.209 813.867 445.209 814.733 445.642 815.6C445.642 816.9 446.076 818.2 446.076 819.5C446.076 820.367 446.076 820.8 446.509 821.667C449.542 847.667 452.142 876.7 454.309 907.467V907.9C454.309 907.9 434.376 914.4 448.676 1013.63C452.576 1037.47 467.309 1079.93 473.809 1140.17Z" fill="#4B3C4F"/>
<path d="M888.942 1153.6C888.942 1153.6 859.909 1040.93 845.609 1004.97C831.309 969.434 804.442 929.134 803.142 926.967C820.042 919.167 835.209 909.2 848.642 897.5C862.075 885.8 872.909 874.1 882.009 862.4C892.842 874.534 957.409 947.334 964.342 987.2C972.142 1031.4 915.809 1050.47 888.942 1153.6Z" fill="#4B3C4F"/>
<path d="M745.802 526.548C755.216 527.848 762.49 517.882 759.067 508.348C757.355 503.148 754.36 498.382 749.653 495.348C735.104 486.248 680.758 485.382 652.088 506.182C626.841 525.248 703.01 520.482 745.802 526.548Z" fill="#423232"/>
<path d="M864.333 531.316C856.63 531.316 851.923 521.349 855.775 513.116C857.914 508.783 860.91 504.883 865.189 502.716C878.454 496.216 913.971 500.116 929.804 522.216C943.925 541.716 899.85 530.883 864.333 531.316Z" fill="#423232"/>
<path d="M730.823 581.148C703.436 567.281 660.216 577.681 660.216 577.681" stroke="#423232" stroke-width="13.4786" stroke-miterlimit="10" stroke-linecap="round" stroke-linejoin="round"/>
<path d="M899.854 589.815C899.854 589.815 888.728 577.682 847.648 587.215" stroke="#423232" stroke-width="13.4786" stroke-miterlimit="10" stroke-linecap="round" stroke-linejoin="round"/>
<path d="M804.332 777.193C804.781 792.019 782.766 829.759 740.083 812.237C699.198 795.613 687.068 717.438 745.475 754.728C776.026 774.048 794.447 777.193 804.332 777.193Z" fill="white"/>
<path d="M812.867 775.396C812.867 775.396 793.997 785.729 745.474 754.728C687.516 717.438 699.197 795.613 740.083 812.237C782.765 829.759 804.78 791.57 804.331 777.193" stroke="#423232" stroke-width="13.4786" stroke-miterlimit="10" stroke-linecap="round" stroke-linejoin="round"/>
<path d="M705.936 765.962C705.936 765.962 736.488 786.18 745.473 784.383C754.908 783.035 753.56 796.064 796.243 797.412" stroke="#423232" stroke-width="13.4786" stroke-miterlimit="10" stroke-linecap="round" stroke-linejoin="round"/>
<path opacity="0.6" d="M747.932 670.913C747.932 670.913 707.198 696.479 661.265 696.046C615.332 695.613 609.698 659.646 609.265 640.146C609.265 640.146 615.332 668.313 643.065 678.713C670.365 689.113 747.932 670.913 747.932 670.913Z" fill="#B7AEA9"/>
<path opacity="0.6" d="M878.8 666.145C878.8 666.145 888.766 678.278 902.2 686.945C911.3 693.011 923.433 686.511 923.433 675.678C923.867 675.678 898.3 676.978 878.8 666.145Z" fill="#B7AEA9"/>
<path opacity="0.43" d="M763.967 548.279L636.567 675.679C646.534 681.746 658.667 684.779 670.8 683.046L731.467 675.246C749.667 672.646 766.567 663.546 779.567 648.379C784.767 642.746 787.8 634.946 788.233 626.713L790.4 583.813C791.267 565.179 779.567 549.579 763.967 548.279Z" fill="#FE9DAB"/>
<path opacity="0.3" d="M763.967 548.278L642.2 537.012C621.834 535.278 604.5 553.912 604.5 577.312V614.145C604.5 641.012 617.5 663.978 636.567 675.678L763.967 548.278Z" fill="#FE9DAB"/>
<path opacity="0.3" d="M941.631 543.944L865.364 553.911C855.397 555.211 848.031 569.511 848.897 585.977L850.197 624.544C850.631 631.911 852.364 638.844 855.397 644.044C860.597 652.711 867.097 659.211 874.031 663.544L964.597 572.977C962.864 555.644 952.897 542.644 941.631 543.944Z" fill="#FE9DAB"/>
<path opacity="0.43" d="M874.465 663.979C878.365 666.146 881.832 667.879 886.165 668.746L923.865 676.112C945.965 680.446 965.465 651.412 965.465 613.712V580.779C965.465 578.179 965.465 576.012 965.031 573.846L874.465 663.979Z" fill="#FE9DAB"/>
<path d="M763.967 548.278L642.2 537.012C621.834 535.278 604.5 553.912 604.5 577.312V614.145C604.5 655.745 635.7 687.812 670.8 683.045L731.467 675.245C749.667 672.645 766.567 663.545 779.567 648.378C784.767 642.745 787.8 634.945 788.234 626.712L790.4 583.812C791.267 565.178 779.567 549.578 763.967 548.278Z" stroke="white" stroke-width="14.5456" stroke-miterlimit="10" stroke-linecap="round" stroke-linejoin="round"/>
<path d="M865.798 554.345L942.065 544.378C954.631 542.645 965.464 559.545 965.464 580.778V613.712C965.464 650.978 945.964 680.012 923.864 676.112L886.165 668.745C874.898 666.578 864.065 657.912 856.265 644.478C853.231 639.278 851.065 632.345 851.065 624.978L849.765 586.412C848.465 569.945 855.831 555.645 865.798 554.345Z" stroke="white" stroke-width="14.5456" stroke-miterlimit="10" stroke-linecap="round" stroke-linejoin="round"/>
<path d="M604.5 581.646L504.4 579.479" stroke="white" stroke-width="13.4786" stroke-miterlimit="10" stroke-linecap="round" stroke-linejoin="round"/>
<path d="M790.399 584.678C790.399 584.678 842.833 574.278 849.333 584.678" stroke="white" stroke-width="14.5456" stroke-miterlimit="10" stroke-linecap="round" stroke-linejoin="round"/>
</g>
</svg>
