<svg width="1300" height="1300" viewBox="0 0 1300 1300" fill="none" xmlns="http://www.w3.org/2000/svg">
<path d="M650 1300C290.71 1300 0 1008.86 0 650C0 290.71 291.141 0 650 0C1009.29 0 1300 291.141 1300 650C1300.43 1009.29 1009.29 1300 650 1300Z" fill="#1D1075"/>
<mask id="mask0_324_1764" style="mask-type:alpha" maskUnits="userSpaceOnUse" x="0" y="0" width="1301" height="1300">
<path d="M650 1300C290.71 1300 0 1008.86 0 650C0 290.71 291.141 0 650 0C1009.29 0 1300 291.141 1300 650C1300.43 1009.29 1009.29 1300 650 1300Z" fill="#F7C0B5"/>
</mask>
<g mask="url(#mask0_324_1764)">
<path d="M1012.27 1197.33C1009.23 1199.49 1005.77 1201.66 1002.73 1203.83C999.265 1205.99 996.232 1208.16 992.765 1209.89C989.732 1211.63 987.132 1213.36 984.099 1215.09C983.665 1215.53 983.232 1215.53 982.799 1215.96C972.832 1222.03 962.432 1227.66 952.032 1232.86C948.999 1234.59 945.532 1236.33 942.499 1237.63C942.499 1237.63 942.066 1238.06 941.632 1238.06C938.166 1239.79 934.699 1241.53 931.232 1243.26C924.299 1246.73 916.932 1249.76 909.999 1252.79C906.532 1254.53 902.632 1255.83 899.166 1257.13C895.699 1258.43 891.799 1260.16 888.332 1261.46C884.866 1262.76 880.966 1264.49 877.499 1265.79C877.499 1265.79 877.499 1265.79 877.065 1265.79C873.599 1267.09 869.699 1268.39 866.232 1269.69C858.432 1272.29 850.199 1274.89 842.399 1277.49C839.799 1278.36 836.766 1279.23 834.166 1280.09C825.932 1282.69 817.699 1284.86 809.466 1286.59C806.432 1287.46 803.399 1287.89 799.932 1288.76C792.132 1290.49 783.899 1292.23 776.099 1293.96C774.365 1294.39 773.066 1294.39 771.332 1294.83C768.732 1295.26 765.699 1295.69 763.099 1296.13C759.199 1296.56 755.732 1297.43 751.832 1297.86C750.099 1298.29 748.366 1298.29 746.632 1298.73C744.466 1299.16 741.865 1299.59 739.265 1299.59C732.332 1300.46 724.966 1301.33 718.032 1302.19C715.866 1302.63 713.266 1302.63 711.099 1303.06H710.666C707.632 1303.49 704.599 1303.49 701.566 1303.93C698.532 1304.36 695.499 1304.36 692.466 1304.36C690.732 1304.36 688.566 1304.79 686.832 1304.79C683.366 1304.79 680.332 1305.23 677.299 1305.23C672.966 1305.23 669.066 1305.66 664.732 1305.66C660.399 1305.66 656.499 1305.66 652.166 1305.66C649.132 1305.66 646.099 1305.66 643.066 1305.66C460.632 1303.06 295.966 1225.49 178.966 1102.43C178.966 1102.43 178.966 1101.99 178.532 1101.99C191.966 1075.56 241.799 1027.89 293.799 988.461C359.666 938.628 452.832 907.861 452.832 907.861C452.832 907.861 513.932 897.895 740.566 945.128C913.465 981.528 987.132 1129.29 1012.27 1197.33Z" fill="#C99589"/>
<path d="M788.665 1065.16C779.565 1109.8 720.631 1136.23 621.398 1096.36C499.631 1046.96 452.831 907.863 452.831 907.863C446.331 808.196 431.165 722.829 431.165 722.829C571.998 710.696 738.398 875.363 738.398 875.363L757.465 956.829C759.198 963.763 762.665 969.829 767.865 974.163C776.965 989.763 794.731 1036.56 788.665 1065.16Z" fill="#C99589"/>
<path d="M767.866 974.597C685.1 970.264 624 958.131 558.566 840.697C614.033 889.664 679.466 908.297 748.366 916.964L757.466 956.831C759.2 964.197 762.666 970.264 767.866 974.597Z" fill="#A56663"/>
<path d="M939.032 452.43C946.832 488.83 950.732 518.296 929.499 615.363C908.265 712.43 948.999 809.496 846.732 898.33C777.832 958.13 657.365 969.396 561.165 903.963C528.665 881.863 498.765 851.096 474.499 810.796C455.432 779.163 433.332 749.263 408.632 721.963C374.399 684.696 333.232 609.73 353.599 477.13C386.532 261.33 600.165 236.63 726.265 260.463C852.365 284.296 917.799 356.23 939.032 452.43Z" fill="#C99589"/>
<path d="M524.333 621.86C524.333 621.86 510.9 556.861 447.633 564.661C393.033 571.594 373.966 702.46 497.9 738.86" fill="#C99589"/>
<path d="M493.998 679.497C493.998 679.497 478.398 669.53 480.132 652.197C482.732 631.83 480.132 619.263 470.598 615.363C446.765 605.397 441.998 633.13 442.865 636.597" stroke="#423232" stroke-width="13" stroke-miterlimit="10" stroke-linecap="round" stroke-linejoin="round"/>
<path d="M824.633 721.529C824.633 721.529 841.1 722.396 856.7 703.763C865.366 693.363 872.733 680.363 867.966 676.463C863.2 672.129 784.766 684.263 779.566 694.663C774.366 705.063 804.7 721.529 824.633 721.529Z" fill="#A56663"/>
<path d="M837.633 575.928C837.633 575.928 838.499 617.094 864.933 663.028C876.633 683.394 858.866 716.761 820.299 722.394" stroke="#423232" stroke-width="13" stroke-miterlimit="10" stroke-linecap="round" stroke-linejoin="round"/>
<path d="M1158.24 1465.29H62.7764C62.7764 1465.29 69.2764 1264.22 135.143 1120.79C184.976 1012.46 302.41 952.223 389.943 921.023C414.643 912.356 437.176 905.857 454.51 901.09C454.51 903.257 454.943 904.99 454.943 907.156C454.943 907.156 501.743 1046.26 623.51 1095.66C722.743 1135.96 781.676 1109.09 790.776 1064.46C796.41 1035.86 778.643 989.057 769.543 973.89C764.343 969.557 760.876 963.057 759.143 956.557L755.676 942.257C763.91 940.523 771.71 938.357 779.51 935.757C782.11 934.89 784.276 934.023 786.876 933.156C842.776 947.89 926.843 982.99 1026.08 1066.19C1138.31 1160.22 1158.24 1465.29 1158.24 1465.29Z" fill="#CE3E3E"/>
<mask id="mask1_324_1764" style="mask-type:alpha" maskUnits="userSpaceOnUse" x="62" y="901" width="1097" height="565">
<path d="M1158.24 1465.29H62.7764C62.7764 1465.29 69.2764 1264.22 135.143 1120.79C184.976 1012.46 302.41 952.223 389.943 921.023C414.643 912.356 437.176 905.857 454.51 901.09C454.51 903.257 454.943 904.99 454.943 907.156C454.943 907.156 501.743 1046.26 623.51 1095.66C722.743 1135.96 781.676 1109.09 790.776 1064.46C796.41 1035.86 778.643 989.057 769.543 973.89C764.343 969.557 760.876 963.057 759.143 956.557L755.676 942.257C763.91 940.523 771.71 938.357 779.51 935.757C782.11 934.89 784.276 934.023 786.876 933.156C842.776 947.89 926.843 982.99 1026.08 1066.19C1138.31 1160.22 1158.24 1465.29 1158.24 1465.29Z" fill="#CE3E3E"/>
</mask>
<g mask="url(#mask1_324_1764)">
<path d="M512.421 978.391L454.203 1036.61L512.421 1094.83L570.638 1036.61L512.421 978.391Z" fill="white"/>
<path d="M740.424 978.563L682.207 1036.78L740.424 1095L798.642 1036.78L740.424 978.563Z" fill="white"/>
<path d="M284.112 978.525L225.895 1036.74L284.112 1094.96L342.33 1036.74L284.112 978.525Z" fill="white"/>
<path d="M965.684 978.391L907.466 1036.61L965.684 1094.83L1023.9 1036.61L965.684 978.391Z" fill="white"/>
<path d="M406.969 1203.91L348.751 1262.13L406.969 1320.35L465.187 1262.13L406.969 1203.91Z" fill="white"/>
<path d="M635.277 1203.77L577.06 1261.99L635.277 1320.21L693.495 1261.99L635.277 1203.77Z" fill="white"/>
<path d="M860.232 1203.91L802.014 1262.12L860.232 1320.34L918.45 1262.12L860.232 1203.91Z" fill="white"/>
</g>
<path d="M719.71 1077.89C719.71 1077.89 689.81 1100.42 696.31 1121.66C702.377 1142.89 760.444 1139.42 771.71 1121.66C782.544 1103.89 734.01 1073.99 719.71 1077.89Z" fill="#CE3E3E"/>
<path d="M719.276 1077.46C719.71 1077.89 719.71 1077.89 720.143 1078.32C720.143 1077.89 720.143 1077.46 720.143 1077.46C719.71 1077.02 719.276 1077.02 719.276 1077.46Z" fill="white"/>
<path d="M604.443 1060.12C482.677 1010.72 454.943 907.157 454.943 907.157C454.943 904.99 454.51 903.257 454.51 901.09C454.077 894.59 452.777 875.957 451.91 869.457C444.11 872.057 434.577 877.257 425.91 882.024C410.31 891.124 397.743 904.124 389.943 920.157C389.943 920.59 389.51 920.59 389.51 921.024C388.643 1034.99 500.01 1122.09 587.11 1153.29C639.977 1172.36 699.343 1145.06 716.243 1091.76C717.543 1086.99 718.843 1082.66 719.71 1077.89C719.277 1077.46 719.277 1077.46 718.843 1077.02C690.677 1083.09 652.11 1079.19 604.443 1060.12Z" fill="white"/>
<path d="M825.877 1041.92C818.51 981.691 799.01 958.291 779.943 935.324C772.143 937.924 759.143 940.958 750.91 942.691C750.91 942.691 779.077 979.091 771.71 1028.49C768.243 1051.89 750.477 1069.66 720.143 1076.59C720.143 1077.02 720.143 1077.02 719.71 1077.46C730.977 1090.46 743.543 1101.72 757.41 1110.82C779.943 1125.99 811.143 1116.02 820.243 1090.46C825.877 1075.72 828.043 1058.82 825.877 1041.92Z" fill="white"/>
<path d="M277.276 1465.29L257.776 1304.96" stroke="#544D4D" stroke-width="13" stroke-miterlimit="10" stroke-linecap="round" stroke-linejoin="round"/>
<path d="M1033.88 1249.92C1033.88 1249.92 1020.88 1281.56 1024.78 1313.19C1028.68 1344.82 1039.94 1391.19 1023.91 1465.29" stroke="#544D4D" stroke-width="13" stroke-miterlimit="10" stroke-linecap="round" stroke-linejoin="round"/>
<path d="M745.802 526.549C755.216 527.849 762.491 517.882 759.068 508.349C757.356 503.149 754.36 498.382 749.653 495.349C735.104 486.249 680.759 485.382 652.088 506.182C626.841 525.249 703.01 520.482 745.802 526.549Z" fill="#423232"/>
<path d="M864.333 531.315C856.63 531.315 851.923 521.348 855.774 513.115C857.914 508.782 860.909 504.882 865.188 502.715C878.454 496.215 913.971 500.115 929.804 522.215C943.925 541.715 899.85 530.882 864.333 531.315Z" fill="#423232"/>
<path d="M730.824 581.147C703.437 567.281 660.217 577.681 660.217 577.681" stroke="#423232" stroke-width="13" stroke-miterlimit="10" stroke-linecap="round" stroke-linejoin="round"/>
<path d="M899.853 589.819C899.853 589.819 888.727 577.685 847.647 587.219" stroke="#423232" stroke-width="13" stroke-miterlimit="10" stroke-linecap="round" stroke-linejoin="round"/>
<path d="M800.185 776.042C800.618 790.342 779.385 826.742 738.218 809.842C698.785 793.808 687.085 718.408 743.418 754.375C772.885 773.008 790.651 776.042 800.185 776.042Z" fill="white"/>
<path d="M808.417 774.308C808.417 774.308 790.217 784.275 743.417 754.375C687.517 718.408 698.784 793.808 738.217 809.842C779.384 826.742 800.617 789.908 800.184 776.042" stroke="#423232" stroke-width="13" stroke-miterlimit="10" stroke-linecap="round" stroke-linejoin="round"/>
<path d="M705.285 765.207C705.285 765.207 734.752 784.707 743.419 782.974C752.518 781.674 751.218 794.24 792.385 795.54" stroke="#423232" stroke-width="13" stroke-miterlimit="10" stroke-linecap="round" stroke-linejoin="round"/>
<path d="M766.188 939.662C797.821 931.429 825.988 917.129 848.954 897.195C951.221 808.795 910.488 711.295 931.721 614.229C938.654 583.029 942.554 558.762 945.154 539.262C941.688 538.829 937.788 538.395 933.888 537.529C918.288 535.362 907.888 521.062 909.621 505.462C910.488 498.962 910.921 492.462 911.354 485.529C909.621 485.095 910.054 485.095 908.321 485.095C905.721 493.329 902.688 501.995 900.521 510.229C896.621 523.229 884.054 531.462 871.054 530.595H870.621C855.454 529.295 844.188 516.729 844.188 501.562C844.621 490.729 844.621 479.895 845.054 469.062C843.321 468.629 844.188 469.062 842.454 468.629C840.288 479.895 838.121 491.162 835.954 502.862C833.354 517.162 820.788 527.129 806.488 526.262C769.221 524.529 732.388 524.095 699.021 524.095C684.288 524.095 672.154 513.262 670.854 498.529C668.688 479.462 665.654 460.395 660.454 440.895C654.821 458.229 654.821 476.429 655.688 495.062C656.554 511.095 643.988 524.529 627.954 524.962C589.388 525.829 563.388 527.129 559.054 527.562C560.354 586.929 546.921 652.795 523.088 608.162C521.354 605.129 520.054 602.095 518.321 598.195C508.354 580.429 488.421 559.195 450.721 563.962C397.854 570.895 378.354 693.529 489.288 734.262C489.721 743.362 491.888 752.462 495.788 761.995C512.688 803.162 520.054 837.395 520.054 865.562C520.054 1028.93 252.688 960.895 177.288 812.695C148.255 755.062 147.821 685.729 202.854 612.929C337.621 447.829 297.321 510.662 327.221 412.729C376.188 252.395 487.988 201.262 636.188 202.562C636.188 202.562 882.754 202.562 948.188 262.362C1013.62 322.162 991.088 508.929 985.454 525.829C983.721 531.029 979.388 534.062 974.621 536.229C972.021 621.595 980.688 651.495 1011.02 720.395C1077.32 872.062 952.088 1016.36 766.188 939.662Z" fill="#423232"/>
<path d="M523.087 608.594C521.353 605.56 520.053 602.527 518.32 598.627C520.053 602.094 521.787 605.56 523.087 608.594Z" fill="#FEE4BF"/>
<path d="M467.543 705.469V779.135" stroke="#FFDE55" stroke-width="13" stroke-miterlimit="10" stroke-linecap="round" stroke-linejoin="round"/>
<path d="M526.043 877.933C514.343 889.633 498.31 897 480.11 897C445.01 897 415.977 868.4 415.977 832.867C415.977 797.767 444.577 768.733 480.11 768.733C497.877 768.733 514.343 776.1 526.043 787.8C518.243 783.467 509.577 780.867 500.043 780.867C471.443 780.867 448.043 804.267 448.043 832.867C448.043 861.467 471.443 884.867 500.043 884.867C509.577 885.3 518.243 882.7 526.043 877.933Z" fill="#FFDE55"/>
<path d="M467.543 858.867C481.663 858.867 493.11 847.42 493.11 833.3C493.11 819.18 481.663 807.733 467.543 807.733C453.423 807.733 441.977 819.18 441.977 833.3C441.977 847.42 453.423 858.867 467.543 858.867Z" fill="#FF6B57"/>
<path d="M961.977 788.667C954.177 784.333 945.51 781.733 935.977 781.733C929.043 781.733 922.977 783.033 916.91 785.633C917.777 780.433 919.077 775.233 919.51 770.033C936.41 770.467 951.143 777.4 961.977 788.667Z" fill="#FFDE55"/>
<path d="M962.411 877.933C950.711 889.633 934.677 897 916.477 897C898.277 897 881.377 889.2 869.677 876.633C876.611 868.833 882.677 861.033 888.311 853.233C896.111 871.867 914.744 884.433 935.977 884.433C945.511 885.3 954.611 882.7 962.411 877.933Z" fill="#FFDE55"/>
<path d="M929.477 833.3C929.477 847.6 918.21 858.867 903.91 858.867C898.277 858.867 893.077 857.133 888.744 853.667C898.71 838.933 906.077 823.767 910.844 809.033C921.244 811.633 929.477 821.6 929.477 833.3Z" fill="#FF6B57"/>
</g>
</svg>
