<svg width="1300" height="1300" viewBox="0 0 1300 1300" fill="none" xmlns="http://www.w3.org/2000/svg">
<path d="M650 1300C290.71 1300 0 1008.86 0 650C0 290.71 291.141 0 650 0C1009.29 0 1300 291.141 1300 650C1300.43 1009.29 1009.29 1300 650 1300Z" fill="#1D1075"/>
<mask id="mask0_324_2437" style="mask-type:alpha" maskUnits="userSpaceOnUse" x="0" y="0" width="1301" height="1300">
<path d="M650 1300C290.71 1300 0 1008.86 0 650C0 290.71 291.141 0 650 0C1009.29 0 1300 291.141 1300 650C1300.43 1009.29 1009.29 1300 650 1300Z" fill="#F7C0B5"/>
</mask>
<g mask="url(#mask0_324_2437)">
<path d="M1012.26 1197.33C1009.23 1199.49 1005.76 1201.66 1002.73 1203.83C999.265 1205.99 996.231 1208.16 992.764 1209.89C989.731 1211.63 987.131 1213.36 984.098 1215.09C983.664 1215.53 983.231 1215.53 982.798 1215.96C972.831 1222.03 962.431 1227.66 952.031 1232.86C948.998 1234.59 945.531 1236.33 942.498 1237.63C942.498 1237.63 942.065 1238.06 941.631 1238.06C938.165 1239.79 934.698 1241.53 931.231 1243.26C924.298 1246.73 916.931 1249.76 909.998 1252.79C906.531 1254.53 902.631 1255.83 899.165 1257.13C895.698 1258.43 891.798 1260.16 888.331 1261.46C884.865 1262.76 880.965 1264.49 877.498 1265.79C877.498 1265.79 877.498 1265.79 877.065 1265.79C873.598 1267.09 869.698 1268.39 866.231 1269.69C858.431 1272.29 850.198 1274.89 842.398 1277.49C839.798 1278.36 836.765 1279.23 834.165 1280.09C825.931 1282.69 817.698 1284.86 809.465 1286.59C806.431 1287.46 803.398 1287.89 799.931 1288.76C792.131 1290.49 783.898 1292.23 776.098 1293.96C774.365 1294.39 773.065 1294.39 771.331 1294.83C768.731 1295.26 765.698 1295.69 763.098 1296.13C759.198 1296.56 755.731 1297.43 751.831 1297.86C750.098 1298.29 748.365 1298.29 746.631 1298.73C744.465 1299.16 741.865 1299.59 739.265 1299.59C732.331 1300.46 724.965 1301.33 718.031 1302.19C715.865 1302.63 713.265 1302.63 711.098 1303.06H710.665C707.631 1303.49 704.598 1303.49 701.565 1303.93C698.531 1304.36 695.498 1304.36 692.465 1304.36C690.731 1304.36 688.565 1304.79 686.831 1304.79C683.365 1304.79 680.331 1305.23 677.298 1305.23C672.965 1305.23 669.065 1305.66 664.731 1305.66C660.398 1305.66 656.498 1305.66 652.165 1305.66C649.131 1305.66 646.098 1305.66 643.065 1305.66C460.631 1303.06 295.965 1225.49 178.965 1102.43C178.965 1102.43 178.965 1101.99 178.531 1101.99C191.965 1075.56 241.798 1027.89 293.798 988.461C359.665 938.628 452.831 907.861 452.831 907.861C452.831 907.861 513.931 897.895 740.565 945.128C913.465 981.528 987.131 1129.29 1012.26 1197.33Z" fill="#C99589"/>
<path d="M788.664 1065.16C779.564 1109.8 720.631 1136.23 621.397 1096.36C499.631 1046.96 452.831 907.863 452.831 907.863C446.331 808.196 431.164 722.829 431.164 722.829C571.997 710.696 738.397 875.363 738.397 875.363L757.464 956.829C759.197 963.763 762.664 969.829 767.864 974.163C776.964 989.763 794.731 1036.56 788.664 1065.16Z" fill="#C99589"/>
<path d="M767.865 974.597C685.099 970.264 623.999 958.131 558.565 840.697C614.032 889.664 679.465 908.297 748.365 916.964L757.465 956.831C759.199 964.197 762.665 970.264 767.865 974.597Z" fill="#A56663"/>
<path d="M939.031 452.43C946.831 488.83 950.731 518.296 929.498 615.363C908.264 712.43 948.998 809.496 846.731 898.33C777.831 958.13 657.364 969.396 561.164 903.963C528.665 881.863 498.764 851.096 474.498 810.796C455.431 779.163 433.331 749.263 408.631 721.963C374.398 684.696 333.231 609.73 353.598 477.13C386.531 261.33 600.164 236.63 726.264 260.463C852.364 284.296 917.798 356.23 939.031 452.43Z" fill="#C99589"/>
<path d="M524.332 621.86C524.332 621.86 510.899 556.861 447.632 564.661C393.032 571.594 373.965 702.46 497.899 738.86" fill="#C99589"/>
<path d="M493.999 679.497C493.999 679.497 478.399 669.53 480.133 652.197C482.733 631.83 480.133 619.263 470.599 615.363C446.766 605.397 441.999 633.13 442.866 636.597" stroke="#423232" stroke-width="13" stroke-miterlimit="10" stroke-linecap="round" stroke-linejoin="round"/>
<path d="M824.629 721.529C824.629 721.529 841.096 722.396 856.696 703.763C865.363 693.363 872.729 680.363 867.963 676.463C863.196 672.129 784.763 684.263 779.563 694.663C774.363 705.063 804.696 721.529 824.629 721.529Z" fill="#A56663"/>
<path d="M837.629 575.928C837.629 575.928 838.496 617.094 864.929 663.028C876.629 683.394 858.863 716.761 820.296 722.394" stroke="#423232" stroke-width="13" stroke-miterlimit="10" stroke-linecap="round" stroke-linejoin="round"/>
<path d="M415.565 1098.84C415.565 1098.84 596.265 1178.57 756.599 1169.9C812.499 1166.87 865.799 1153.44 908.265 1121.8C908.265 1121.8 917.799 1208.9 792.565 1260.04C667.332 1311.6 453.699 1171.64 415.565 1098.84Z" fill="#FFF573"/>
<path d="M726.7 1170.77C726.7 1170.77 688.134 1289.94 650.867 1294.7C613.6 1299.47 425.967 1141.74 409.934 1094.5C409.934 1094.07 568.1 1165.57 726.7 1170.77Z" fill="white"/>
<path d="M726.698 1170.77C726.698 1170.77 786.498 1262.64 812.932 1267.4C839.365 1272.17 893.098 1187.67 905.232 1123.54C905.665 1123.54 852.798 1169.04 726.698 1170.77Z" fill="white"/>
<path d="M1079.87 1508.34H92.7324C93.5991 1458.07 99.2324 1305.54 137.366 1196.34C153.832 1148.67 176.799 1110.11 199.766 1079.77C202.366 1076.31 205.399 1072.41 207.999 1068.94C246.132 1021.71 282.532 996.572 289.899 990.939C294.666 987.039 301.166 986.605 304.632 989.205C745.332 1470.64 948.566 1171.64 909.132 1040.77C908.699 1039.91 908.699 1038.61 908.266 1037.31C913.899 1036.87 952.032 1068.51 991.032 1141.31C1000.13 1158.21 1009.23 1177.27 1017.9 1198.51C1017.9 1198.94 1018.33 1199.37 1018.33 1199.81C1040 1253.11 1059.5 1320.71 1071.2 1404.77C1074.67 1437.27 1078.13 1471.51 1079.87 1508.34Z" fill="#BF76FF"/>
<path d="M304.198 988.772C744.898 1470.21 948.132 1171.21 908.698 1040.34C908.265 1039.47 908.265 1038.17 907.832 1036.87" stroke="#A164DD" stroke-width="13" stroke-miterlimit="10" stroke-linecap="round" stroke-linejoin="round"/>
<path d="M395.632 1508.34H92.7324C93.5991 1458.07 99.2324 1305.54 137.366 1196.34C153.832 1148.67 176.799 1110.11 199.766 1079.77C202.366 1076.31 351.432 1050.74 389.566 1335.87C399.966 1416.47 396.499 1453.31 395.632 1508.34Z" fill="#A164DD"/>
<path d="M999.267 1508.34C1015.3 1203.27 973.267 1112.27 973.267 1112.27C980.633 1120.51 987.567 1130.04 994.067 1141.31C1003.6 1157.77 1012.7 1177.27 1020.93 1198.51C1020.93 1198.94 1021.37 1199.37 1021.37 1199.81C1044.77 1261.77 1062.1 1338.91 1074.23 1404.77C1078.57 1436.84 1082.03 1471.07 1083.33 1507.91H999.267V1508.34Z" fill="#A164DD"/>
<path d="M275.164 1018.67C273.43 1018.67 271.697 1017.8 270.397 1016.5C268.664 1014.34 267.364 1013.04 267.364 1013.04C265.197 1010.44 265.631 1006.1 268.231 1003.94C270.831 1001.77 275.164 1002.2 277.33 1004.8C277.33 1004.8 278.197 1006.1 279.93 1007.84C282.097 1010.44 282.097 1014.77 279.064 1016.94C278.197 1018.24 276.464 1018.67 275.164 1018.67Z" fill="#A164DD"/>
<path d="M724.53 1300.34C721.496 1300.34 718.463 1300.34 715.43 1299.9C711.963 1299.9 708.93 1296.87 709.363 1292.97C709.363 1289.5 712.396 1286.47 716.296 1286.9C719.33 1286.9 721.93 1286.9 724.963 1287.34C728.43 1287.34 731.463 1290.37 731.463 1293.84C731.03 1297.3 727.996 1300.34 724.53 1300.34ZM776.53 1295.57C773.496 1295.57 770.896 1293.4 770.03 1290.37C769.163 1286.9 771.763 1283.44 775.23 1282.57C777.83 1282.14 780.863 1281.27 783.463 1280.84C786.93 1279.97 790.396 1282.14 791.263 1285.6C792.13 1289.07 789.963 1292.54 786.497 1293.4C783.463 1294.27 780.863 1294.7 777.83 1295.14C776.963 1295.57 776.53 1295.57 776.53 1295.57ZM664.296 1293.4C663.863 1293.4 663.43 1293.4 662.997 1293.4C659.963 1292.97 657.363 1292.1 654.33 1291.24C650.863 1290.37 648.696 1286.9 649.563 1283.44C650.43 1279.97 653.896 1277.8 657.363 1278.67C659.963 1279.54 662.996 1279.97 665.596 1280.4C669.063 1281.27 671.23 1284.74 670.796 1288.2C669.93 1291.24 666.896 1293.4 664.296 1293.4ZM833.73 1276.07C831.563 1276.07 828.963 1274.77 828.096 1272.6C826.363 1269.57 827.663 1265.67 831.13 1263.94C833.73 1262.64 836.33 1261.34 838.496 1260.04C841.53 1258.3 845.43 1259.6 847.163 1262.64C848.896 1265.67 847.596 1269.57 844.563 1271.3C841.963 1272.6 839.363 1274.34 836.763 1275.64C835.896 1276.07 834.596 1276.07 833.73 1276.07ZM605.796 1275.64C604.93 1275.64 604.063 1275.64 603.63 1275.2C601.03 1274.34 597.996 1273.04 595.396 1272.17C591.93 1270.87 590.63 1266.97 591.93 1263.5C593.23 1260.04 597.13 1258.74 600.596 1260.04C603.196 1260.9 605.796 1262.2 608.396 1263.07C611.863 1264.37 613.596 1268.27 612.296 1271.3C610.996 1274.34 608.396 1275.64 605.796 1275.64ZM550.33 1250.5C549.463 1250.5 548.163 1250.07 547.296 1249.64C544.696 1248.34 542.096 1247.04 539.496 1245.3C536.463 1243.57 535.163 1239.67 536.896 1236.64C538.63 1233.6 542.53 1232.3 545.563 1234.04C548.163 1235.34 550.763 1236.64 552.93 1237.94C555.963 1239.67 557.263 1243.57 555.53 1246.6C555.096 1249.2 552.93 1250.5 550.33 1250.5ZM883.13 1240.97C881.396 1240.97 879.663 1240.54 878.363 1239.24C875.763 1236.64 875.763 1232.74 878.363 1230.14C880.53 1227.97 882.263 1226.24 883.996 1224.07C886.596 1221.47 890.496 1221.04 893.096 1223.64C895.696 1226.24 896.13 1230.14 893.53 1232.74C891.363 1234.9 889.63 1237.07 887.463 1239.24C886.163 1240.1 884.43 1240.97 883.13 1240.97ZM498.33 1219.3C497.03 1219.3 495.73 1218.87 494.863 1218C492.263 1216.27 490.096 1214.54 487.496 1213.24C484.463 1211.07 483.596 1207.17 485.763 1204.14C487.93 1201.1 491.83 1200.24 494.863 1202.4C497.03 1204.14 499.63 1205.44 502.23 1207.17C505.263 1209.34 506.13 1213.24 503.963 1216.27C502.663 1218 500.496 1219.3 498.33 1219.3ZM917.796 1191.14C916.93 1191.14 916.063 1191.14 914.763 1190.27C911.73 1188.54 909.996 1184.64 911.73 1181.6C913.03 1179 914.33 1176.4 915.196 1173.8C916.496 1170.34 920.396 1169.04 923.863 1170.34C927.33 1171.64 928.63 1175.54 927.33 1179C926.03 1181.6 924.73 1184.64 923.43 1187.24C922.563 1189.84 920.396 1191.14 917.796 1191.14ZM448.93 1183.34C447.63 1183.34 446.33 1182.9 445.03 1182.04C442.863 1180.3 440.263 1178.57 438.096 1176.84C435.496 1174.67 434.63 1170.34 437.23 1167.74C439.396 1165.14 443.73 1164.27 446.33 1166.87C448.496 1168.6 450.663 1170.34 453.263 1172.07C456.296 1174.24 456.73 1178.57 454.563 1181.17C452.83 1182.47 451.096 1183.34 448.93 1183.34ZM402.13 1144.77C400.396 1144.77 399.096 1144.34 397.796 1143.04C395.63 1141.3 393.463 1139.14 391.296 1137.4C388.696 1135.24 388.263 1130.9 390.863 1128.3C393.03 1125.7 397.363 1125.27 399.963 1127.87C402.13 1129.6 404.296 1131.77 406.463 1133.5C409.063 1135.67 409.496 1140 406.896 1142.6C405.596 1143.9 403.863 1144.77 402.13 1144.77ZM935.996 1133.5C935.563 1133.5 935.13 1133.5 935.13 1133.5C931.663 1133.07 929.063 1129.6 929.93 1126.14C930.363 1123.1 930.796 1120.5 931.23 1117.9C931.663 1114.44 934.696 1111.84 938.596 1112.27C942.063 1112.7 944.663 1115.74 944.23 1119.64C943.796 1122.67 943.363 1125.27 942.93 1128.3C942.063 1130.9 939.03 1133.5 935.996 1133.5ZM357.063 1103.6C355.33 1103.6 353.596 1103.17 352.73 1101.87C350.563 1099.7 348.396 1097.97 346.663 1095.8C344.063 1093.2 344.063 1089.3 346.663 1086.7C349.263 1084.1 353.163 1084.1 355.763 1086.7C357.93 1088.87 360.096 1090.6 361.83 1092.77C364.43 1095.37 364.43 1099.27 361.83 1101.87C360.53 1102.74 358.796 1103.6 357.063 1103.6ZM314.163 1060.27C312.43 1060.27 310.696 1059.4 309.396 1058.1C307.23 1055.94 305.496 1053.77 303.33 1051.6C300.73 1049 301.163 1044.67 303.763 1042.5C306.363 1040.34 310.697 1040.34 312.863 1042.94C314.597 1045.1 316.763 1047.27 318.93 1049.44C321.53 1052.04 321.096 1055.94 318.496 1058.54C317.63 1059.4 315.896 1060.27 314.163 1060.27Z" fill="#A164DD"/>
<path d="M936.865 1077.17C933.832 1077.17 930.798 1075.01 930.365 1071.54C929.932 1068.94 929.932 1067.64 929.932 1067.64C929.065 1064.17 931.665 1060.71 935.132 1059.84C938.598 1058.97 942.065 1061.57 942.932 1065.04C942.932 1065.04 943.365 1066.77 943.798 1069.81C944.232 1073.27 941.632 1076.74 938.165 1077.17C937.298 1077.17 936.865 1077.17 936.865 1077.17Z" fill="#A164DD"/>
<path d="M715.186 586.763C715.186 586.763 684.853 587.196 654.086 564.229" stroke="#423232" stroke-width="13" stroke-miterlimit="10" stroke-linecap="round" stroke-linejoin="round"/>
<path d="M843.885 593.696C843.885 593.696 875.085 588.063 884.185 575.93" stroke="#423232" stroke-width="13" stroke-miterlimit="10" stroke-linecap="round" stroke-linejoin="round"/>
<path d="M735.985 553.397C744.218 558.164 754.618 551.664 755.052 541.697C755.052 536.497 754.185 530.864 750.718 526.097C740.318 512.231 689.618 490.997 654.518 500.097C624.185 507.897 698.285 531.731 735.985 553.397Z" fill="#423232"/>
<path d="M869.021 558.596C862.955 563.362 852.988 557.729 851.688 548.629C850.821 543.862 851.255 538.662 853.421 534.329C860.355 521.329 892.421 503.562 918.421 512.229C940.955 520.462 898.055 537.362 869.021 558.596Z" fill="#423232"/>
<path d="M666.218 572.032C662.752 575.066 660.585 579.832 660.152 584.599L659.718 596.732C659.285 607.132 667.085 615.799 677.052 616.232C687.452 616.666 696.118 608.866 696.552 598.899L696.985 586.766C696.985 586.332 696.985 585.899 696.985 585.466C685.718 584.599 675.752 579.832 666.218 572.032Z" fill="#423232"/>
<path d="M843.888 592.832C843.888 593.265 843.888 593.265 843.888 593.698L843.455 604.965C843.021 614.498 850.388 622.732 859.921 623.165C869.455 623.598 877.688 616.232 878.121 606.698L878.555 595.432C878.988 591.098 877.255 587.198 875.088 584.165C865.555 589.798 855.155 591.098 843.888 592.832Z" fill="#423232"/>
<path d="M807.561 767.297C791.961 776.397 769.428 773.797 749.928 764.264" stroke="#423232" stroke-width="13" stroke-miterlimit="10" stroke-linecap="round" stroke-linejoin="round"/>
<path d="M752.097 749.097C752.097 749.097 752.097 768.163 730.863 775.963" stroke="#423232" stroke-width="13" stroke-miterlimit="10" stroke-linecap="round" stroke-linejoin="round"/>
<path d="M1017.77 802.554C984.833 737.987 1019.5 725.421 999.566 676.021C970.099 603.221 972.266 592.821 975.732 576.354C1001.73 453.721 1018.63 321.121 866.966 242.687C696.232 154.287 457.466 190.254 368.633 299.454C293.233 391.321 315.333 439.421 296.266 504.421C277.633 567.254 193.566 568.987 232.133 698.987C251.633 764.854 173.199 799.521 190.533 910.454C311.433 964.621 437.533 990.187 566.233 997.987C601.333 911.754 492.999 892.254 491.699 763.554C491.699 754.887 492.133 746.654 492.999 738.854C372.966 701.154 392.466 572.887 446.633 565.954C484.333 561.187 504.266 582.421 514.233 600.187C515.099 602.787 516.399 604.954 517.699 607.554C534.166 635.721 621.266 610.154 679.766 542.121C742.599 469.321 737.833 474.954 769.466 431.187C833.166 343.654 831.432 433.787 847.466 445.921C869.999 462.821 855.699 475.387 890.799 533.454C906.399 559.454 934.999 585.021 928.066 615.787C906.832 712.421 947.566 809.921 845.299 898.754C822.332 918.687 790.266 936.021 752.566 943.387C754.299 956.387 759.499 975.454 771.199 995.821C860.032 989.754 949.299 977.187 1038.57 962.021C1052.43 913.921 1045.5 856.721 1017.77 802.554Z" fill="#423232"/>
<path d="M518.133 607.12C516.833 604.953 515.533 602.353 514.666 599.753C515.966 602.353 517.266 604.953 518.133 607.12Z" fill="#FEE4BF"/>
<path d="M941.068 614.054C941.068 614.054 1055.47 576.787 1012.13 466.72C988.301 406.054 987.001 337.154 962.301 292.954C928.068 231.854 873.468 213.654 792.868 230.554C654.201 259.587 879.101 226.22 892.968 326.32C906.401 426.42 941.068 614.054 941.068 614.054Z" fill="#423232"/>
</g>
</svg>
