<svg width="1300" height="1300" viewBox="0 0 1300 1300" fill="none" xmlns="http://www.w3.org/2000/svg">
<path d="M650 1300C290.71 1300 0 1008.86 0 650C0 290.71 291.141 0 650 0C1009.29 0 1300 291.141 1300 650C1300.43 1009.29 1009.29 1300 650 1300Z" fill="#1D1075"/>
<mask id="mask0_310_1012" style="mask-type:alpha" maskUnits="userSpaceOnUse" x="0" y="0" width="1301" height="1300">
<path d="M650 1300C290.71 1300 0 1008.86 0 650C0 290.71 291.141 0 650 0C1009.29 0 1300 291.141 1300 650C1300.43 1009.29 1009.29 1300 650 1300Z" fill="#F7C0B5"/>
</mask>
<g mask="url(#mask0_310_1012)">
<path d="M1013.13 1197.32C1010.1 1199.48 1006.63 1201.65 1003.6 1203.82C1000.13 1205.98 997.098 1208.15 993.632 1209.88C990.598 1211.62 987.998 1213.35 984.965 1215.08C984.532 1215.52 984.098 1215.52 983.665 1215.95C973.698 1222.02 963.298 1227.65 952.898 1232.85C949.865 1234.58 946.398 1236.32 943.365 1237.62C943.365 1237.62 942.932 1238.05 942.498 1238.05C939.032 1239.78 935.565 1241.52 932.098 1243.25C925.165 1246.72 917.798 1249.75 910.865 1252.78C907.398 1254.52 903.498 1255.82 900.032 1257.12C896.565 1258.42 892.665 1260.15 889.198 1261.45C885.732 1262.75 881.832 1264.48 878.365 1265.78C878.365 1265.78 878.365 1265.78 877.932 1265.78C874.465 1267.08 870.565 1268.38 867.098 1269.68C859.298 1272.28 851.065 1274.88 843.265 1277.48C840.665 1278.35 837.632 1279.22 835.032 1280.08C826.798 1282.68 818.565 1284.85 810.332 1286.58C807.298 1287.45 804.265 1287.88 800.798 1288.75C792.998 1290.48 784.765 1292.22 776.965 1293.95C775.232 1294.38 773.932 1294.38 772.198 1294.82C769.598 1295.25 766.565 1295.68 763.965 1296.12C760.065 1296.55 756.598 1297.42 752.698 1297.85C750.965 1298.28 749.232 1298.28 747.498 1298.72C745.332 1299.15 742.732 1299.58 740.132 1299.58C733.198 1300.45 725.832 1301.32 718.898 1302.18C716.732 1302.62 714.132 1302.62 711.965 1303.05H711.532C708.498 1303.48 705.465 1303.48 702.432 1303.92C699.398 1304.35 696.365 1304.35 693.332 1304.35C691.598 1304.35 689.432 1304.78 687.698 1304.78C684.232 1304.78 681.198 1305.22 678.165 1305.22C673.832 1305.22 669.932 1305.65 665.598 1305.65C661.265 1305.65 657.365 1305.65 653.032 1305.65C649.998 1305.65 646.965 1305.65 643.932 1305.65C461.498 1303.05 296.832 1225.48 179.832 1102.42C179.832 1102.42 179.832 1101.98 179.398 1101.98C192.832 1075.55 242.665 1027.88 294.665 988.45C360.532 938.617 453.698 907.85 453.698 907.85C453.698 907.85 514.798 897.883 741.432 945.117C914.332 981.517 987.998 1129.28 1013.13 1197.32Z" fill="#FEE4BF"/>
<path d="M789.532 1065.15C780.432 1109.78 721.499 1136.22 622.266 1096.35C500.499 1046.95 453.699 907.849 453.699 907.849C447.199 808.182 432.032 722.816 432.032 722.816C572.866 710.682 739.265 875.349 739.265 875.349L758.332 956.816C760.066 963.749 763.532 969.816 768.732 974.149C777.832 989.749 795.599 1036.55 789.532 1065.15Z" fill="#FEE4BF"/>
<path d="M768.732 974.583C685.965 970.249 624.865 958.116 559.432 840.683C614.898 889.649 680.332 908.283 749.232 916.949L758.332 956.816C760.065 964.183 763.532 970.249 768.732 974.583Z" fill="#EFBD9C"/>
<path d="M939.898 452.416C947.698 488.816 951.598 518.283 930.365 615.35C909.132 712.416 949.865 809.483 847.598 898.316C778.698 958.116 658.232 969.383 562.032 903.95C529.532 881.85 499.632 851.083 475.365 810.783C456.298 779.15 434.198 749.25 409.498 721.95C375.265 684.683 334.098 609.716 354.465 477.116C387.398 261.316 601.032 236.616 727.132 260.45C853.232 284.283 918.665 356.216 939.898 452.416Z" fill="#FEE4BF"/>
<path d="M525.198 621.851C525.198 621.851 511.764 556.851 448.498 564.651C393.898 571.584 374.831 702.451 498.764 738.851" fill="#FEE4BF"/>
<path d="M494.865 679.483C494.865 679.483 479.265 669.517 480.998 652.183C483.598 631.817 480.998 619.25 471.465 615.35C447.632 605.383 442.865 633.117 443.732 636.583" stroke="#423232" stroke-width="13.4786" stroke-miterlimit="10" stroke-linecap="round" stroke-linejoin="round"/>
<path d="M825.498 721.517C825.498 721.517 841.964 722.384 857.564 703.75C866.231 693.35 873.598 680.35 868.831 676.45C864.064 672.117 785.631 684.25 780.431 694.65C775.231 705.05 805.564 721.517 825.498 721.517Z" fill="#EFBD9C"/>
<path d="M838.498 575.916C838.498 575.916 839.365 617.082 865.798 663.016C877.498 683.382 859.732 716.749 821.165 722.382" stroke="#423232" stroke-width="13.4786" stroke-miterlimit="10" stroke-linecap="round" stroke-linejoin="round"/>
<path d="M906.533 816.417C906.533 816.85 906.533 816.85 906.533 816.417C906.099 816.85 906.099 816.85 906.533 816.417C895.699 844.584 877.933 871.45 847.599 897.884C778.699 957.684 658.233 968.95 562.033 903.517C551.199 896.15 540.799 887.917 530.833 878.817C523.899 870.15 517.833 861.05 512.633 851.517C481.433 793.017 494.866 738.417 494.866 738.417C494.866 738.417 512.633 738.85 533.866 780.45C551.633 815.117 620.099 813.817 648.266 748.817C679.466 676.45 757.466 708.084 775.233 715.017C792.999 721.95 820.733 721.95 820.733 721.95C890.933 721.084 869.699 768.317 877.066 794.317C887.899 829.85 906.533 816.417 906.533 816.417Z" fill="#423232"/>
<path d="M1158.82 1466.34H63.3555C63.3555 1466.34 68.1221 1264.41 135.722 1121.84C185.555 1016.11 313.822 955.873 403.089 925.106C423.022 918.173 441.222 912.973 455.955 909.073C460.722 922.073 508.822 1049.47 624.089 1096.27C723.322 1136.57 782.255 1109.71 791.355 1065.07C796.989 1036.47 779.222 989.673 770.122 974.506C764.922 970.173 761.455 963.673 759.722 957.173L756.255 942.873C764.055 941.14 771.422 938.973 779.222 936.807C783.122 937.673 787.022 938.54 790.922 939.407C846.822 952.84 929.589 985.34 1026.66 1067.24C1138.89 1160.84 1158.82 1466.34 1158.82 1466.34Z" fill="#FFDE55"/>
<path d="M806.956 1182.94C791.789 1187.27 738.923 1132.24 728.089 1122.71C718.123 1133.97 647.923 1213.27 613.256 1208.07C575.123 1202.44 477.623 1137.01 428.223 1034.31C400.923 977.973 400.056 943.739 403.089 925.106C404.389 916.439 406.989 910.806 408.289 907.773C412.623 897.806 443.823 859.239 451.623 859.673V860.106C455.523 901.706 468.956 942.006 491.489 977.106C519.223 1020.01 562.989 1071.57 624.089 1096.27C723.323 1136.57 774.889 1096.71 783.556 1052.07C789.189 1023.47 779.223 989.673 770.123 974.506C764.923 970.173 761.456 963.673 759.723 957.173L756.256 942.873C764.056 941.139 771.423 938.973 779.223 936.806C781.389 935.939 783.989 935.506 786.156 934.639C787.456 936.373 789.189 938.106 790.489 939.839C808.689 960.639 827.756 989.239 838.156 1037.77C855.922 1115.34 823.856 1177.74 806.956 1182.94Z" fill="#423232"/>
<path d="M726.791 1120.11C726.791 1120.11 758.424 1138.31 757.557 1153.47C756.691 1168.64 765.791 1216.74 765.791 1216.74" stroke="#423232" stroke-width="13.4786" stroke-miterlimit="10" stroke-linecap="round" stroke-linejoin="round"/>
<path d="M726.355 1177.74C732.099 1177.74 736.755 1173.08 736.755 1167.34C736.755 1161.6 732.099 1156.94 726.355 1156.94C720.611 1156.94 715.955 1161.6 715.955 1167.34C715.955 1173.08 720.611 1177.74 726.355 1177.74Z" fill="#423232"/>
<path d="M730.256 1218.47C736 1218.47 740.656 1213.82 740.656 1208.07C740.656 1202.33 736 1197.67 730.256 1197.67C724.512 1197.67 719.856 1202.33 719.856 1208.07C719.856 1213.82 724.512 1218.47 730.256 1218.47Z" fill="#423232"/>
<path d="M277.856 1466.34L258.356 1305.57" stroke="#544D4D" stroke-width="13.4786" stroke-miterlimit="10" stroke-linecap="round" stroke-linejoin="round"/>
<path d="M1034.46 1250.97C1034.46 1250.97 1021.46 1282.61 1025.36 1314.24C1029.26 1345.87 1040.52 1392.24 1024.49 1466.34" stroke="#544D4D" stroke-width="13.4786" stroke-miterlimit="10" stroke-linecap="round" stroke-linejoin="round"/>
<path d="M699.712 590.25C699.712 590.683 699.712 591.117 699.712 591.117L699.279 603.25C698.845 613.65 690.179 621.45 679.779 621.017C669.379 620.583 661.579 611.483 662.445 601.517L662.879 589.383C662.879 587.217 663.745 584.617 664.612 582.883L699.279 584.617C699.279 586.35 699.712 588.083 699.712 590.25Z" fill="#423232"/>
<path d="M880.84 599.783L880.407 611.05C879.974 620.583 871.74 627.95 862.207 627.516C852.674 627.083 845.307 618.85 845.74 609.316L846.174 598.05C846.174 595.883 846.607 593.716 847.474 591.983L879.974 593.283C880.84 595.45 880.84 597.616 880.84 599.783Z" fill="#423232"/>
<path d="M743.042 530.881C752.575 532.181 759.942 522.215 756.475 512.681C754.742 507.481 751.708 502.715 746.942 499.681C732.208 490.581 677.175 489.715 648.142 510.515C622.575 529.581 699.708 524.815 743.042 530.881Z" fill="#423232"/>
<path d="M863.074 535.648C855.274 535.648 850.508 525.682 854.408 517.448C856.574 513.115 859.608 509.215 863.941 507.049C877.374 500.549 913.341 504.449 929.374 526.549C943.674 546.049 899.041 535.215 863.074 535.648Z" fill="#423232"/>
<path d="M727.875 585.482L698.842 584.182L664.175 582.882L656.375 582.449" stroke="#423232" stroke-width="13.4786" stroke-miterlimit="10" stroke-linecap="round" stroke-linejoin="round"/>
<path d="M899.043 594.15L879.976 593.283L847.476 591.983H846.176" stroke="#423232" stroke-width="13.4786" stroke-miterlimit="10" stroke-linecap="round" stroke-linejoin="round"/>
<path d="M804.157 772.845C804.606 780.034 799.214 792.614 789.33 801.599C738.561 770.599 715.647 786.773 715.647 786.773C697.676 759.367 701.719 722.076 745.3 750.381C775.851 769.7 794.272 772.845 804.157 772.845Z" fill="#423232"/>
<path d="M789.331 801.6C778.549 811.035 762.374 816.876 740.359 807.89C730.026 803.847 721.938 795.759 715.648 786.774C715.648 786.774 738.562 770.599 789.331 801.6Z" fill="#FE9DAB"/>
<path d="M812.695 771.048C812.695 771.048 793.825 781.382 745.302 750.381C687.344 713.09 699.025 791.266 739.91 807.889C782.592 825.412 804.608 787.222 804.158 772.845" stroke="#423232" stroke-width="13.4786" stroke-miterlimit="10" stroke-linecap="round" stroke-linejoin="round"/>
<path d="M715.648 786.774C715.648 786.774 738.562 770.599 789.331 801.6" stroke="#423232" stroke-width="13.4786" stroke-miterlimit="10" stroke-linecap="round" stroke-linejoin="round"/>
<path d="M1025.83 400.553C1025.83 345.953 989 300.453 939.167 286.153C941.767 275.32 942.2 264.053 939.6 252.353C930.933 214.653 897.133 188.22 858.567 190.82C843.4 191.686 829.1 197.32 817.4 205.986C799.2 163.953 757.167 134.486 708.633 134.486C657.067 134.486 613.3 167.42 596.833 213.353C578.633 191.686 551.333 177.82 521 177.82C468.133 177.82 424.8 219.42 422.2 271.853C413.967 269.253 404.867 267.953 395.767 268.386C360.667 270.553 332.067 299.153 329.467 334.253C328.6 345.953 330.767 357.22 335.1 367.62C285.7 372.82 247.133 414.853 247.133 465.553C247.133 503.686 268.8 537.053 300.867 553.52C287.867 566.52 279.633 584.286 279.633 603.786C279.633 640.186 307.367 670.52 342.9 674.42C340.733 681.353 339.867 689.586 342.467 697.82C346.367 712.12 358.067 723.386 372.367 726.42C381.033 728.153 389.267 727.286 396.633 724.253C400.533 729.886 404.433 734.653 407.9 738.986C412.233 744.186 415.7 748.953 419.167 753.72C439.1 782.32 484.6 769.753 486.333 735.086C486.333 734.653 486.333 734.653 486.333 734.22C378 692.62 397.5 571.72 450.367 564.786C505.833 557.853 523.167 607.253 526.2 619.386C585.567 581.253 501.067 443.886 588.167 403.153C665.733 367.186 747.2 421.786 846.867 435.22C883.7 440.42 918.367 404.02 933.967 424.386C937 433.486 939.6 442.586 941.767 452.12C948.7 482.886 952.167 508.886 940.467 574.753C969.067 559.153 982.933 535.753 985.533 512.786C986.4 504.986 986.4 496.753 985.967 488.953C1010.23 467.72 1025.83 436.086 1025.83 400.553Z" fill="#423232"/>
</g>
</svg>
