<svg width="1300" height="1300" viewBox="0 0 1300 1300" fill="none" xmlns="http://www.w3.org/2000/svg">
<path d="M650 1300C290.71 1300 0 1008.86 0 650C0 290.71 291.141 0 650 0C1009.29 0 1300 291.141 1300 650C1300.43 1009.29 1009.29 1300 650 1300Z" fill="#1D1075"/>
<mask id="mask0_324_1554" style="mask-type:alpha" maskUnits="userSpaceOnUse" x="0" y="0" width="1301" height="1300">
<path d="M650 1300C290.71 1300 0 1008.86 0 650C0 290.71 291.141 0 650 0C1009.29 0 1300 291.141 1300 650C1300.43 1009.29 1009.29 1300 650 1300Z" fill="#F7C0B5"/>
</mask>
<g mask="url(#mask0_324_1554)">
<path d="M1013.13 1197.32C1010.1 1199.48 1006.63 1201.65 1003.6 1203.82C1000.13 1205.98 997.099 1208.15 993.633 1209.88C990.599 1211.62 987.999 1213.35 984.966 1215.08C984.533 1215.52 984.099 1215.52 983.666 1215.95C973.699 1222.02 963.299 1227.65 952.899 1232.85C949.866 1234.58 946.399 1236.32 943.366 1237.62C943.366 1237.62 942.933 1238.05 942.499 1238.05C939.033 1239.78 935.566 1241.52 932.099 1243.25C925.166 1246.72 917.799 1249.75 910.866 1252.78C907.399 1254.52 903.499 1255.82 900.033 1257.12C896.566 1258.42 892.666 1260.15 889.199 1261.45C885.733 1262.75 881.833 1264.48 878.366 1265.78C878.366 1265.78 878.366 1265.78 877.933 1265.78C874.466 1267.08 870.566 1268.38 867.099 1269.68C859.299 1272.28 851.066 1274.88 843.266 1277.48C840.666 1278.35 837.633 1279.22 835.033 1280.08C826.799 1282.68 818.566 1284.85 810.333 1286.58C807.299 1287.45 804.266 1287.88 800.799 1288.75C792.999 1290.48 784.766 1292.22 776.966 1293.95C775.233 1294.38 773.933 1294.38 772.199 1294.82C769.599 1295.25 766.566 1295.68 763.966 1296.12C760.066 1296.55 756.599 1297.42 752.699 1297.85C750.966 1298.28 749.233 1298.28 747.499 1298.72C745.333 1299.15 742.733 1299.58 740.133 1299.58C733.199 1300.45 725.833 1301.32 718.899 1302.18C716.733 1302.62 714.133 1302.62 711.966 1303.05H711.533C708.499 1303.48 705.466 1303.48 702.433 1303.92C699.399 1304.35 696.366 1304.35 693.333 1304.35C691.599 1304.35 689.433 1304.78 687.699 1304.78C684.233 1304.78 681.199 1305.22 678.166 1305.22C673.833 1305.22 669.933 1305.65 665.599 1305.65C661.266 1305.65 657.366 1305.65 653.033 1305.65C649.999 1305.65 646.966 1305.65 643.933 1305.65C461.499 1303.05 296.833 1225.48 179.833 1102.42C179.833 1102.42 179.833 1101.98 179.399 1101.98C192.833 1075.55 242.666 1027.88 294.666 988.448C360.533 938.615 453.699 907.849 453.699 907.849C453.699 907.849 514.799 897.882 741.433 945.115C914.333 981.515 987.999 1129.28 1013.13 1197.32Z" fill="#FEE4BF"/>
<path d="M789.533 1065.15C780.433 1109.78 721.5 1136.22 622.266 1096.35C500.5 1046.95 453.7 907.85 453.7 907.85C447.2 808.183 432.033 722.817 432.033 722.817C572.866 710.683 739.266 875.35 739.266 875.35L758.333 956.817C760.066 963.75 763.533 969.817 768.733 974.15C777.833 989.75 795.6 1036.55 789.533 1065.15Z" fill="#FEE4BF"/>
<path d="M768.733 974.585C685.966 970.251 624.866 958.118 559.433 840.685C614.899 889.651 680.333 908.285 749.233 916.951L758.333 956.818C760.066 964.185 763.533 970.251 768.733 974.585Z" fill="#EFBD9C"/>
<path d="M939.899 452.417C947.699 488.817 951.599 518.283 930.366 615.35C909.133 712.417 949.866 809.483 847.599 898.317C778.699 958.117 658.233 969.383 562.033 903.95C529.533 881.85 499.633 851.084 475.366 810.784C456.299 779.15 434.199 749.25 409.499 721.95C375.266 684.683 334.099 609.717 354.466 477.117C387.399 261.317 601.033 236.617 727.133 260.45C853.233 284.284 918.666 356.217 939.899 452.417Z" fill="#FEE4BF"/>
<path d="M525.199 621.848C525.199 621.848 511.766 556.848 448.499 564.648C393.899 571.581 374.833 702.448 498.766 738.848" fill="#FEE4BF"/>
<path d="M494.867 679.484C494.867 679.484 479.267 669.517 481 652.184C483.6 631.817 481 619.251 471.467 615.351C447.633 605.384 442.867 633.117 443.733 636.584" stroke="#423232" stroke-width="13" stroke-miterlimit="10" stroke-linecap="round" stroke-linejoin="round"/>
<path d="M825.499 721.517C825.499 721.517 841.966 722.383 857.566 703.75C866.232 693.35 873.599 680.35 868.832 676.45C864.066 672.117 785.632 684.25 780.432 694.65C775.232 705.05 805.566 721.517 825.499 721.517Z" fill="#EFBD9C"/>
<path d="M838.5 575.915C838.5 575.915 839.366 617.082 865.8 663.015C877.5 683.382 859.733 716.748 821.167 722.382" stroke="#423232" stroke-width="13" stroke-miterlimit="10" stroke-linecap="round" stroke-linejoin="round"/>
<path d="M906.533 816.417C906.533 816.85 906.533 816.85 906.533 816.417C906.1 816.85 906.1 816.85 906.533 816.417C895.7 844.584 877.933 871.45 847.6 897.884C778.7 957.684 658.233 968.95 562.033 903.517C551.2 896.15 540.8 887.917 530.833 878.817C523.9 870.15 517.833 861.05 512.633 851.517C481.433 793.017 494.867 738.417 494.867 738.417C494.867 738.417 512.633 738.85 533.867 780.45C551.633 815.117 620.1 813.817 648.266 748.817C679.466 676.45 757.466 708.084 775.233 715.017C793 721.95 820.733 721.95 820.733 721.95C890.933 721.084 869.7 768.317 877.066 794.317C887.9 829.85 906.533 816.417 906.533 816.417Z" fill="#423232"/>
<path d="M1158.93 1465.49H63.4617C63.4617 1465.49 69.9617 1264.42 135.828 1120.99C185.662 1012.66 303.095 952.422 390.628 921.222C415.328 912.556 437.862 906.056 455.195 901.289C455.195 903.456 455.628 905.189 455.628 907.356C455.628 907.356 502.428 1046.46 624.195 1095.86C723.428 1136.16 782.362 1109.29 791.462 1064.66C797.095 1036.06 779.328 989.256 770.228 974.089C765.028 969.756 761.562 963.256 759.828 956.756L756.362 942.456C764.595 940.722 772.395 938.556 780.195 935.956C782.795 935.089 784.962 934.222 787.562 933.356C843.462 948.089 927.528 983.189 1026.76 1066.39C1138.99 1159.99 1158.93 1465.49 1158.93 1465.49Z" fill="#BEE3EB"/>
<path d="M586.494 1140.92C436.995 1073.75 378.928 953.719 390.195 921.219C390.195 921.219 390.195 920.786 390.628 920.352C398.428 904.319 410.995 891.319 426.595 882.219C435.261 877.019 444.795 872.252 452.595 869.652C453.028 875.719 454.761 894.786 455.194 901.286C455.194 903.452 455.628 905.186 455.628 907.352C455.628 907.352 483.361 1010.92 605.128 1060.32C704.361 1100.62 765.895 1074.19 772.395 1029.12C779.761 979.286 751.595 943.319 751.595 943.319C759.828 941.586 772.828 938.552 780.628 935.952C799.695 958.919 819.195 981.886 826.561 1042.55C836.961 1129.65 741.194 1210.69 586.494 1140.92Z" fill="white"/>
<path d="M277.962 1465.49L258.462 1304.72" stroke="#544D4D" stroke-width="13" stroke-miterlimit="10" stroke-linecap="round" stroke-linejoin="round"/>
<path d="M1034.56 1250.12C1034.56 1250.12 1021.56 1281.76 1025.46 1313.39C1029.36 1345.02 1040.63 1391.39 1024.6 1465.49" stroke="#544D4D" stroke-width="13" stroke-miterlimit="10" stroke-linecap="round" stroke-linejoin="round"/>
<path d="M743.042 526.549C752.576 527.849 759.942 517.882 756.476 508.349C754.742 503.149 751.709 498.382 746.942 495.349C732.209 486.249 677.176 485.382 648.142 506.182C622.576 525.249 699.709 520.482 743.042 526.549Z" fill="#423232"/>
<path d="M863.074 531.315C855.274 531.315 850.508 521.348 854.408 513.115C856.574 508.782 859.608 504.882 863.941 502.715C877.374 496.215 913.341 500.115 929.374 522.215C943.674 541.715 899.041 530.882 863.074 531.315Z" fill="#423232"/>
<path d="M727.875 581.148C694.075 595.448 656.375 577.682 656.375 577.682" stroke="#423232" stroke-width="13" stroke-miterlimit="10" stroke-linecap="round" stroke-linejoin="round"/>
<path d="M899.042 589.816C899.042 589.816 875.642 604.116 846.175 587.216" stroke="#423232" stroke-width="13" stroke-miterlimit="10" stroke-linecap="round" stroke-linejoin="round"/>
<path d="M800.184 776.042C800.618 790.342 779.384 826.742 738.218 809.842C698.784 793.808 687.084 718.408 743.418 754.375C772.884 773.008 790.651 776.042 800.184 776.042Z" fill="white"/>
<path d="M808.417 774.308C808.417 774.308 790.217 784.275 743.417 754.375C687.517 718.408 698.784 793.808 738.217 809.842C779.384 826.742 800.617 789.908 800.184 776.042" stroke="#423232" stroke-width="13" stroke-miterlimit="10" stroke-linecap="round" stroke-linejoin="round"/>
<path d="M705.284 765.207C705.284 765.207 734.751 784.707 743.418 782.974C752.518 781.674 751.217 794.24 792.384 795.54" stroke="#423232" stroke-width="13" stroke-miterlimit="10" stroke-linecap="round" stroke-linejoin="round"/>
<path d="M908.422 390.616C920.122 324.749 949.155 481.616 942.655 450.849C940.489 441.316 937.889 432.216 934.855 423.116C911.889 404.916 887.622 393.216 850.789 388.016C751.555 374.583 673.122 383.683 589.489 401.883C537.055 413.149 547.889 594.283 527.522 618.116C524.055 605.983 507.155 556.583 451.689 563.516C399.255 570.016 379.322 691.349 487.655 732.949C486.789 756.783 464.689 800.983 446.922 810.949C446.922 810.949 443.889 779.316 409.222 737.716C374.555 696.116 305.222 588.216 352.022 430.483C398.822 272.749 610.722 190.416 807.889 270.583C841.689 284.449 869.422 303.949 891.522 324.316C943.522 371.983 929.655 303.949 921.422 374.149C918.389 396.683 921.422 373.716 908.422 390.616Z" fill="#423232"/>
<path d="M864.656 372.851C864.656 372.851 745.056 571.751 507.156 511.084C507.156 511.084 460.789 394.517 561.756 349.884C663.156 305.684 840.389 333.851 864.656 372.851Z" fill="#423232"/>
<path d="M823.056 384.552C823.056 384.552 870.722 393.652 904.089 429.185C935.289 462.119 941.789 318.685 948.722 350.319C948.722 350.319 966.489 393.652 889.356 347.719C812.222 301.352 823.056 384.552 823.056 384.552Z" fill="#423232"/>
<path d="M351.589 625.051C351.589 625.051 298.722 591.251 221.589 625.051C151.822 655.818 188.222 743.784 232.856 737.284C232.856 737.284 148.789 769.784 179.989 839.117C205.122 895.017 281.389 862.517 281.389 862.517C281.389 862.517 245.422 920.151 298.289 946.151C352.022 972.584 379.322 898.051 379.322 898.051C379.322 898.051 391.889 959.151 446.922 949.617C514.956 937.917 480.289 856.884 480.289 856.884C480.289 856.884 517.122 881.151 533.589 839.117C552.656 791.017 468.589 752.884 468.589 752.884C468.589 752.884 380.189 651.484 376.289 611.617C371.956 571.317 351.589 625.051 351.589 625.051Z" fill="#423232"/>
<path d="M995.955 822.219C995.955 822.219 1057.06 863.819 1021.09 915.819C978.188 978.219 906.255 910.185 906.255 910.185C919.255 952.218 872.455 1021.55 808.755 966.952C796.622 956.552 787.089 945.719 779.722 935.319C806.155 926.652 830.422 913.652 850.355 896.319C907.555 846.919 920.122 794.485 923.589 741.185C925.322 717.352 924.889 693.518 926.189 669.252C927.055 652.785 928.355 636.752 931.389 620.285C954.789 603.385 998.989 602.519 1010.69 628.085C1038.42 689.185 986.855 714.318 983.822 715.618C987.289 714.752 1068.76 697.852 1069.19 764.152C1070.06 833.918 995.955 822.219 995.955 822.219Z" fill="#423232"/>
<path d="M943.088 424.852C943.088 424.852 1037.55 491.152 1017.19 361.152C1001.59 261.919 926.622 203.852 808.322 238.952C808.322 238.952 606.822 164.419 446.922 256.719C311.722 334.719 303.922 531.019 352.022 625.052C352.022 625.052 358.088 436.552 490.688 391.919C622.855 347.285 703.455 312.619 822.622 352.919C941.788 393.219 943.088 424.852 943.088 424.852Z" fill="#423232"/>
<path d="M843.856 258.017C843.856 258.017 830.856 177.85 761.522 167.45C691.756 157.05 722.522 239.384 722.522 239.384C722.522 239.384 820.022 276.65 843.856 258.017Z" fill="#423232"/>
<path d="M745.488 225.952C745.488 225.952 709.088 175.685 639.755 185.218C570.422 194.752 614.188 251.518 614.188 251.518C614.188 251.518 760.655 290.952 745.488 225.952Z" fill="#423232"/>
<path d="M843.855 390.616C843.855 390.616 893.689 412.716 924.455 457.349C955.222 501.982 1010.69 491.582 1018.49 408.816C1026.72 326.482 865.955 303.082 843.855 390.616Z" fill="#423232"/>
<path d="M829.007 730.178C829.007 730.178 812.974 695.945 753.607 717.178C715.474 731.045 678.207 752.711 657.407 730.178C657.407 730.178 668.241 786.511 735.841 798.645C819.041 812.945 836.807 755.745 829.007 730.178Z" fill="#423232"/>
<path d="M825.54 724.978C825.54 724.978 850.24 701.578 874.074 723.678C895.74 743.611 906.14 746.644 913.94 734.511C913.94 734.511 915.674 782.178 877.974 788.244C836.807 795.178 821.64 762.244 821.64 762.244" fill="#423232"/>
</g>
</svg>
