<svg width="1300" height="1300" viewBox="0 0 1300 1300" fill="none" xmlns="http://www.w3.org/2000/svg">
<path d="M650 1300C290.71 1300 0 1008.86 0 650C0 290.71 291.141 0 650 0C1009.29 0 1300 291.141 1300 650C1300.43 1009.29 1009.29 1300 650 1300Z" fill="#1D1075"/>
<mask id="mask0_310_942" style="mask-type:alpha" maskUnits="userSpaceOnUse" x="0" y="0" width="1301" height="1300">
<path d="M650 1300C290.71 1300 0 1008.86 0 650C0 290.71 291.141 0 650 0C1009.29 0 1300 291.141 1300 650C1300.43 1009.29 1009.29 1300 650 1300Z" fill="#F7C0B5"/>
</mask>
<g mask="url(#mask0_310_942)">
<path d="M1015.73 1197.33C1012.7 1199.5 1009.23 1201.67 1006.2 1203.83C1002.73 1206 999.698 1208.17 996.231 1209.9C993.198 1211.63 990.598 1213.37 987.565 1215.1C987.131 1215.53 986.698 1215.53 986.265 1215.97C976.298 1222.03 965.898 1227.67 955.498 1232.87C952.465 1234.6 948.998 1236.33 945.965 1237.63C945.965 1237.63 945.531 1238.07 945.098 1238.07C941.631 1239.8 938.165 1241.53 934.698 1243.27C927.765 1246.73 920.398 1249.77 913.465 1252.8C909.998 1254.53 906.098 1255.83 902.631 1257.13C899.165 1258.43 895.265 1260.17 891.798 1261.47C888.331 1262.77 884.431 1264.5 880.965 1265.8C880.965 1265.8 880.965 1265.8 880.531 1265.8C877.065 1267.1 873.165 1268.4 869.698 1269.7C861.898 1272.3 853.665 1274.9 845.865 1277.5C843.265 1278.37 840.231 1279.23 837.631 1280.1C829.398 1282.7 821.165 1284.87 812.931 1286.6C809.898 1287.47 806.865 1287.9 803.398 1288.77C795.598 1290.5 787.365 1292.23 779.565 1293.97C777.831 1294.4 776.531 1294.4 774.798 1294.83C772.198 1295.27 769.165 1295.7 766.565 1296.13C762.665 1296.57 759.198 1297.43 755.298 1297.87C753.565 1298.3 751.831 1298.3 750.098 1298.73C747.931 1299.17 745.331 1299.6 742.731 1299.6C735.798 1300.47 728.431 1301.33 721.498 1302.2C719.331 1302.63 716.731 1302.63 714.565 1303.07H714.131C711.098 1303.5 708.065 1303.5 705.031 1303.93C701.998 1304.37 698.965 1304.37 695.931 1304.37C694.198 1304.37 692.031 1304.8 690.298 1304.8C686.831 1304.8 683.798 1305.23 680.765 1305.23C676.431 1305.23 672.531 1305.67 668.198 1305.67C663.865 1305.67 659.965 1305.67 655.631 1305.67C652.598 1305.67 649.565 1305.67 646.531 1305.67C464.098 1303.07 299.431 1225.5 182.431 1102.43C182.431 1102.43 182.431 1102 181.998 1102C195.431 1075.57 245.265 1027.9 297.265 988.466C363.131 938.633 456.298 907.866 456.298 907.866C456.298 907.866 517.398 897.899 744.031 945.133C916.931 981.533 990.598 1129.3 1015.73 1197.33Z" fill="#FEE4BF"/>
<path d="M792.132 1065.17C783.032 1109.8 724.098 1136.23 624.865 1096.37C503.098 1046.97 456.299 907.865 456.299 907.865C449.799 808.199 434.632 722.832 434.632 722.832C575.465 710.699 741.865 875.365 741.865 875.365L760.932 956.832C762.665 963.765 766.132 969.832 771.332 974.165C780.432 989.765 798.198 1036.57 792.132 1065.17Z" fill="#FEE4BF"/>
<path d="M771.331 974.599C688.565 970.265 627.465 958.132 562.031 840.699C617.498 889.665 682.931 908.299 751.831 916.965L760.931 956.832C762.665 964.199 766.131 970.265 771.331 974.599Z" fill="#EFBDA5"/>
<path d="M942.498 452.432C950.298 488.832 954.198 518.299 932.964 615.366C911.731 712.432 952.464 809.499 850.198 898.332C781.298 958.132 660.831 969.399 564.631 903.966C532.131 881.866 502.231 851.099 477.964 810.799C458.898 779.166 436.798 749.266 412.098 721.966C377.864 684.699 336.698 609.732 357.064 477.132C389.998 261.332 603.631 236.632 729.731 260.466C855.831 284.299 921.264 356.232 942.498 452.432Z" fill="#FEE4BF"/>
<path d="M527.798 621.865C527.798 621.865 514.364 556.865 451.098 564.665C396.498 571.599 377.431 702.465 501.364 738.865" fill="#FEE4BF"/>
<path d="M497.465 679.499C497.465 679.499 481.865 669.532 483.598 652.199C486.198 631.832 483.598 619.265 474.065 615.365C450.231 605.399 445.465 633.132 446.331 636.599" stroke="#423232" stroke-width="13.4786" stroke-miterlimit="10" stroke-linecap="round" stroke-linejoin="round"/>
<path d="M828.098 721.533C828.098 721.533 844.565 722.399 860.165 703.766C868.832 693.366 876.198 680.366 871.432 676.466C866.665 672.133 788.232 684.266 783.032 694.666C777.832 705.066 808.165 721.533 828.098 721.533Z" fill="#EFBDA5"/>
<path d="M841.098 575.932C841.098 575.932 841.965 617.099 868.398 663.032C880.098 683.399 862.331 716.765 823.765 722.399" stroke="#423232" stroke-width="13.4786" stroke-miterlimit="10" stroke-linecap="round" stroke-linejoin="round"/>
<path opacity="0.42" d="M606.231 743.632C630.882 743.632 650.865 727.141 650.865 706.799C650.865 686.456 630.882 669.965 606.231 669.965C581.581 669.965 561.598 686.456 561.598 706.799C561.598 727.141 581.581 743.632 606.231 743.632Z" fill="#F2A5B2"/>
<path opacity="0.42" d="M926.031 670.832C924.731 695.099 925.164 718.932 923.431 742.765C904.364 738.432 890.498 724.132 890.498 707.232C890.498 689.032 905.664 674.299 926.031 670.832Z" fill="#F2A5B2"/>
<path d="M780.52 936C780.52 936 715.52 955.066 625.387 925.6C535.254 896.133 447.287 818.566 447.287 818.566C447.287 818.566 418.687 819 407.854 840.666C397.454 862.333 397.887 906.966 381.42 919.1C377.52 921.7 366.687 924.733 350.654 929.066C324.654 936.433 286.087 947.7 247.087 969.8C218.053 986.266 188.587 1008.37 163.887 1038.7C152.62 1052.57 142.653 1068.17 133.987 1085.93C65.5201 1225.03 94.9868 1420.03 94.9868 1420.03H1154.05C1154.05 1420.03 1123.29 1179.1 1056.99 1099.8C990.687 1020.5 864.154 956.366 826.887 939.466V914.333C827.32 914.333 804.354 929.5 780.52 936Z" fill="#48D89E"/>
<mask id="mask1_310_942" style="mask-type:alpha" maskUnits="userSpaceOnUse" x="88" y="818" width="1067" height="603">
<path d="M780.52 936C780.52 936 715.52 955.066 625.387 925.6C535.254 896.133 447.287 818.566 447.287 818.566C447.287 818.566 418.687 819 407.854 840.666C397.454 862.333 397.887 906.966 381.42 919.1C377.52 921.7 366.687 924.733 350.654 929.066C324.654 936.433 286.087 947.7 247.087 969.8C218.053 986.266 188.587 1008.37 163.887 1038.7C152.62 1052.57 142.653 1068.17 133.987 1085.93C65.5201 1225.03 94.9868 1420.03 94.9868 1420.03H1154.05C1154.05 1420.03 1123.29 1179.1 1056.99 1099.8C990.687 1020.5 864.154 956.366 826.887 939.466V914.333C827.32 914.333 804.354 929.5 780.52 936Z" fill="#48D89E"/>
</mask>
<g mask="url(#mask1_310_942)">
<path d="M265.721 1101.53C291.089 1101.53 311.654 1080.97 311.654 1055.6C311.654 1030.23 291.089 1009.67 265.721 1009.67C240.352 1009.67 219.787 1030.23 219.787 1055.6C219.787 1080.97 240.352 1101.53 265.721 1101.53Z" fill="#FCED7E"/>
<path d="M527.021 1080.3C552.389 1080.3 572.954 1059.73 572.954 1034.37C572.954 1009 552.389 988.433 527.021 988.433C501.653 988.433 481.088 1009 481.088 1034.37C481.088 1059.73 501.653 1080.3 527.021 1080.3Z" fill="#FCED7E"/>
<path d="M724.62 982.799C749.989 982.799 770.554 962.234 770.554 936.866C770.554 911.498 749.989 890.933 724.62 890.933C699.252 890.933 678.687 911.498 678.687 936.866C678.687 962.234 699.252 982.799 724.62 982.799Z" fill="#FCED7E"/>
<path d="M445.554 1305.2C470.922 1305.2 491.487 1284.63 491.487 1259.27C491.487 1233.9 470.922 1213.33 445.554 1213.33C420.185 1213.33 399.62 1233.9 399.62 1259.27C399.62 1284.63 420.185 1305.2 445.554 1305.2Z" fill="#FCED7E"/>
<path d="M980.287 1281.8C1005.66 1281.8 1026.22 1261.23 1026.22 1235.87C1026.22 1210.5 1005.66 1189.93 980.287 1189.93C954.919 1189.93 934.354 1210.5 934.354 1235.87C934.354 1261.23 954.919 1281.8 980.287 1281.8Z" fill="#FCED7E"/>
<path d="M727.221 1244.53C752.589 1244.53 773.155 1223.97 773.155 1198.6C773.155 1173.23 752.589 1152.67 727.221 1152.67C701.853 1152.67 681.288 1173.23 681.288 1198.6C681.288 1223.97 701.853 1244.53 727.221 1244.53Z" fill="#FCED7E"/>
<path d="M944.754 1058.2C970.123 1058.2 990.688 1037.63 990.688 1012.27C990.688 986.898 970.123 966.333 944.754 966.333C919.386 966.333 898.821 986.898 898.821 1012.27C898.821 1037.63 919.386 1058.2 944.754 1058.2Z" fill="#FCED7E"/>
</g>
<path d="M827.32 939.467C827.32 939.467 832.954 978.467 822.987 1000.57C806.954 1036.97 695.587 1078.57 560.82 1030.03C453.787 991.467 401.354 938.167 400.054 929.934" stroke="#329369" stroke-width="13.4786" stroke-miterlimit="10" stroke-linecap="round" stroke-linejoin="round"/>
<path d="M481.087 862.767C478.921 865.367 476.754 868.833 475.021 873.167C468.954 887.9 467.221 918.667 467.221 918.667" stroke="#329369" stroke-width="13.4786" stroke-miterlimit="10" stroke-linecap="round" stroke-linejoin="round"/>
<path d="M554.321 907.399C552.587 910.866 550.854 914.766 549.987 919.099C547.821 930.366 545.221 965.899 545.221 965.899" stroke="#329369" stroke-width="13.4786" stroke-miterlimit="10" stroke-linecap="round" stroke-linejoin="round"/>
<path d="M627.988 937.732C627.121 941.199 626.255 945.532 625.821 950.732C624.955 956.799 625.388 993.632 625.388 993.632" stroke="#329369" stroke-width="13.4786" stroke-miterlimit="10" stroke-linecap="round" stroke-linejoin="round"/>
<path d="M706.854 955.066C707.721 965.033 708.154 978.899 706.854 995.799" stroke="#329369" stroke-width="13.4786" stroke-miterlimit="10" stroke-linecap="round" stroke-linejoin="round"/>
<path d="M773.155 951.6C774.455 959.833 775.755 971.1 776.188 985.4" stroke="#329369" stroke-width="13.4786" stroke-miterlimit="10" stroke-linecap="round" stroke-linejoin="round"/>
<path d="M433.854 820.299C423.454 824.199 409.588 834.599 404.388 864.933" stroke="#329369" stroke-width="13.4786" stroke-miterlimit="10" stroke-linecap="round" stroke-linejoin="round"/>
<path d="M878.454 965.034C856.354 952.901 838.154 944.234 827.32 939.467V914.334" stroke="#329369" stroke-width="13.4786" stroke-miterlimit="10" stroke-linecap="round" stroke-linejoin="round"/>
<path d="M745.802 526.548C755.216 527.848 762.491 517.882 759.067 508.348C757.356 503.148 754.36 498.382 749.653 495.348C735.104 486.248 680.759 485.382 652.088 506.182C626.841 525.248 703.01 520.482 745.802 526.548Z" fill="#423232"/>
<path d="M864.333 531.316C856.63 531.316 851.923 521.349 855.775 513.116C857.914 508.783 860.91 504.883 865.189 502.716C878.454 496.216 913.971 500.116 929.804 522.216C943.926 541.716 899.85 530.883 864.333 531.316Z" fill="#423232"/>
<path d="M730.824 581.148C703.437 567.281 660.217 577.681 660.217 577.681" stroke="#423232" stroke-width="13.4786" stroke-miterlimit="10" stroke-linecap="round" stroke-linejoin="round"/>
<path d="M899.853 589.815C899.853 589.815 888.727 577.682 847.647 587.215" stroke="#423232" stroke-width="13.4786" stroke-miterlimit="10" stroke-linecap="round" stroke-linejoin="round"/>
<path d="M816.925 774.866C805.693 779.808 800.302 769.924 782.779 778.46C770.199 784.301 763.46 786.098 748.184 777.113C738.3 770.823 726.169 779.808 714.488 762.735" stroke="#423232" stroke-width="13.4786" stroke-miterlimit="10" stroke-linecap="round" stroke-linejoin="round"/>
<path d="M1052.43 935.089C1028.17 881.355 1009.53 888.722 1026.43 840.189C1043.33 792.089 1021.67 757.855 977.034 712.355C934.567 669.022 930.234 621.789 931.534 614.855C927.634 633.055 925.901 651.689 925.034 669.889C923.734 694.155 924.167 717.989 922.434 741.822C918.967 795.122 906.401 847.556 849.201 896.956C824.067 918.622 792.001 934.222 756.467 941.589C746.934 970.622 761.234 991.422 792.434 994.889C823.634 998.356 836.634 1045.16 907.267 1067.26C1013 1101.49 1076.7 988.822 1052.43 935.089Z" fill="#423232"/>
<path d="M854.835 410.755C863.935 415.522 871.735 411.189 876.501 401.655C926.768 393.855 938.468 494.389 940.202 500.455C941.935 506.955 942.801 525.155 939.335 574.989C937.168 602.722 1098.37 405.989 951.035 322.789C961.868 306.755 954.068 227.022 863.501 207.522C831.001 200.589 788.535 230.922 735.235 219.222C526.801 172.855 310.568 217.055 327.468 492.222C331.368 552.455 335.268 617.455 233.001 660.789C114.268 711.055 120.335 842.355 203.968 869.222C238.635 880.489 124.235 958.489 190.968 1027.82C225.635 1064.22 287.601 990.555 350.435 1030.42C445.335 1090.66 492.568 1063.36 511.201 1039.52C549.335 990.989 502.101 893.489 502.101 893.489C502.101 893.489 520.735 863.589 526.801 847.555C556.268 768.689 486.068 733.155 486.068 733.155C377.735 691.555 397.235 570.655 450.101 563.722C505.568 556.789 522.901 606.189 525.935 618.322C525.935 618.322 574.901 685.922 669.368 531.655C762.968 377.389 814.101 388.655 854.835 410.755Z" fill="#423232"/>
<path d="M467.544 705.466V779.133" stroke="#FFDE55" stroke-width="13.4786" stroke-miterlimit="10" stroke-linecap="round" stroke-linejoin="round"/>
<path d="M526.044 877.935C514.344 889.635 498.311 897.002 480.111 897.002C445.011 897.002 415.978 868.402 415.978 832.868C415.978 797.768 444.578 768.735 480.111 768.735C497.878 768.735 514.344 776.102 526.044 787.802C518.244 783.468 509.578 780.868 500.044 780.868C471.444 780.868 448.044 804.268 448.044 832.868C448.044 861.468 471.444 884.868 500.044 884.868C509.578 885.302 518.244 882.701 526.044 877.935Z" fill="#FFDE55"/>
<path d="M467.544 858.867C481.664 858.867 493.111 847.421 493.111 833.301C493.111 819.18 481.664 807.734 467.544 807.734C453.424 807.734 441.978 819.18 441.978 833.301C441.978 847.421 453.424 858.867 467.544 858.867Z" fill="#FF6B57"/>
<path d="M961.978 788.667C954.178 784.334 945.512 781.734 935.978 781.734C929.045 781.734 922.978 783.034 916.912 785.634C917.778 780.434 919.078 775.234 919.512 770.034C936.412 770.467 951.145 777.4 961.978 788.667Z" fill="#FFDE55"/>
<path d="M962.411 877.933C950.711 889.633 934.677 897 916.477 897C898.277 897 881.377 889.2 869.677 876.633C876.611 868.833 882.677 861.033 888.311 853.233C896.111 871.866 914.744 884.433 935.977 884.433C945.511 885.3 954.611 882.7 962.411 877.933Z" fill="#FFDE55"/>
<path d="M929.478 833.301C929.478 847.601 918.211 858.868 903.911 858.868C898.278 858.868 893.078 857.135 888.744 853.668C898.711 838.935 906.078 823.768 910.844 809.035C921.244 811.635 929.478 821.601 929.478 833.301Z" fill="#FF6B57"/>
</g>
</svg>
