<svg width="1300" height="1300" viewBox="0 0 1300 1300" fill="none" xmlns="http://www.w3.org/2000/svg">
<path d="M650 1300C290.71 1300 0 1008.86 0 650C0 290.71 291.141 0 650 0C1009.29 0 1300 291.141 1300 650C1300.43 1009.29 1009.29 1300 650 1300Z" fill="#1D1075"/>
<mask id="mask0_310_893" style="mask-type:alpha" maskUnits="userSpaceOnUse" x="0" y="0" width="1301" height="1300">
<path d="M650 1300C290.71 1300 0 1008.86 0 650C0 290.71 291.141 0 650 0C1009.29 0 1300 291.141 1300 650C1300.43 1009.29 1009.29 1300 650 1300Z" fill="#F7C0B5"/>
</mask>
<g mask="url(#mask0_310_893)">
<path d="M1015.73 1197.33C1012.7 1199.5 1009.23 1201.67 1006.2 1203.83C1002.73 1206 999.697 1208.17 996.231 1209.9C993.197 1211.63 990.597 1213.37 987.564 1215.1C987.131 1215.53 986.698 1215.53 986.264 1215.97C976.298 1222.03 965.898 1227.67 955.498 1232.87C952.464 1234.6 948.998 1236.33 945.964 1237.63C945.964 1237.63 945.531 1238.07 945.098 1238.07C941.631 1239.8 938.164 1241.53 934.697 1243.27C927.764 1246.73 920.398 1249.77 913.464 1252.8C909.998 1254.53 906.098 1255.83 902.631 1257.13C899.164 1258.43 895.264 1260.17 891.798 1261.47C888.331 1262.77 884.431 1264.5 880.964 1265.8C880.964 1265.8 880.964 1265.8 880.531 1265.8C877.064 1267.1 873.164 1268.4 869.697 1269.7C861.897 1272.3 853.664 1274.9 845.864 1277.5C843.264 1278.37 840.231 1279.23 837.631 1280.1C829.398 1282.7 821.164 1284.87 812.931 1286.6C809.898 1287.47 806.864 1287.9 803.397 1288.77C795.597 1290.5 787.364 1292.23 779.564 1293.97C777.831 1294.4 776.531 1294.4 774.798 1294.83C772.198 1295.27 769.164 1295.7 766.564 1296.13C762.664 1296.57 759.198 1297.43 755.298 1297.87C753.564 1298.3 751.831 1298.3 750.098 1298.73C747.931 1299.17 745.331 1299.6 742.731 1299.6C735.797 1300.47 728.431 1301.33 721.498 1302.2C719.331 1302.63 716.731 1302.63 714.564 1303.07H714.131C711.098 1303.5 708.064 1303.5 705.031 1303.93C701.998 1304.37 698.964 1304.37 695.931 1304.37C694.198 1304.37 692.031 1304.8 690.298 1304.8C686.831 1304.8 683.798 1305.23 680.764 1305.23C676.431 1305.23 672.531 1305.67 668.198 1305.67C663.864 1305.67 659.964 1305.67 655.631 1305.67C652.598 1305.67 649.564 1305.67 646.531 1305.67C464.098 1303.07 299.431 1225.5 182.431 1102.43C182.431 1102.43 182.431 1102 181.998 1102C195.431 1075.57 245.264 1027.9 297.264 988.465C363.131 938.632 456.298 907.865 456.298 907.865C456.298 907.865 517.398 897.898 744.031 945.132C916.931 981.532 990.597 1129.3 1015.73 1197.33Z" fill="#FEE4BF"/>
<path d="M792.131 1065.16C783.031 1109.8 724.098 1136.23 624.864 1096.36C503.098 1046.96 456.298 907.865 456.298 907.865C449.798 808.198 434.631 722.831 434.631 722.831C575.464 710.698 741.864 875.365 741.864 875.365L760.931 956.831C762.664 963.765 766.131 969.831 771.331 974.165C780.431 989.765 798.198 1036.56 792.131 1065.16Z" fill="#FEE4BF"/>
<path d="M771.331 974.597C688.564 970.264 627.464 958.131 562.031 840.697C617.497 889.664 682.931 908.297 751.831 916.964L760.931 956.831C762.664 964.197 766.131 970.264 771.331 974.597Z" fill="#EFBDA5"/>
<path d="M942.497 452.431C950.297 488.831 954.197 518.298 932.964 615.365C911.731 712.431 952.464 809.498 850.197 898.331C781.297 958.131 660.831 969.398 564.631 903.965C532.131 881.865 502.231 851.098 477.964 810.798C458.897 779.165 436.797 749.265 412.097 721.965C377.864 684.698 336.697 609.731 357.064 477.131C389.997 261.332 603.631 236.632 729.731 260.465C855.831 284.298 921.264 356.231 942.497 452.431Z" fill="#FEE4BF"/>
<path d="M527.797 621.865C527.797 621.865 514.364 556.865 451.097 564.665C396.497 571.598 377.431 702.465 501.364 738.865" fill="#FEE4BF"/>
<path d="M497.465 679.499C497.465 679.499 481.865 669.532 483.598 652.199C486.198 631.832 483.598 619.265 474.065 615.365C450.231 605.399 445.465 633.132 446.331 636.599" stroke="#423232" stroke-width="13" stroke-miterlimit="10" stroke-linecap="round" stroke-linejoin="round"/>
<path d="M828.097 721.531C828.097 721.531 844.564 722.398 860.164 703.765C868.831 693.365 876.197 680.365 871.431 676.465C866.664 672.131 788.231 684.265 783.031 694.665C777.831 705.065 808.164 721.531 828.097 721.531Z" fill="#EFBDA5"/>
<path d="M841.098 575.932C841.098 575.932 841.965 617.098 868.398 663.032C880.098 683.398 862.331 716.765 823.765 722.398" stroke="#423232" stroke-width="13" stroke-miterlimit="10" stroke-linecap="round" stroke-linejoin="round"/>
<path opacity="0.42" d="M606.231 743.632C630.882 743.632 650.865 727.141 650.865 706.798C650.865 686.456 630.882 669.965 606.231 669.965C581.581 669.965 561.598 686.456 561.598 706.798C561.598 727.141 581.581 743.632 606.231 743.632Z" fill="#F2A5B2"/>
<path opacity="0.42" d="M926.031 670.831C924.731 695.098 925.164 718.931 923.431 742.764C904.364 738.431 890.498 724.131 890.498 707.231C890.498 689.031 905.664 674.298 926.031 670.831Z" fill="#F2A5B2"/>
<path d="M907.837 1029.6C907.837 1029.6 840.67 966.767 774.37 951.6C774.37 951.6 782.17 1063.4 703.303 1055.17C575.903 1041.73 455.87 906.533 455.87 906.533C455.87 906.533 372.237 929.933 304.637 981.5C304.637 981.5 313.737 1114.53 465.837 1180.4C617.937 1246.27 829.837 1213.77 880.103 1171.3C930.37 1128.83 920.403 1043.47 907.837 1029.6Z" fill="white"/>
<path d="M267.37 1010.1C267.37 1010.1 183.303 1056.47 137.37 1188.63C91.4365 1320.8 92.7365 1517.53 92.7365 1517.53H1081.6C1081.6 1517.53 1053.87 1192.97 955.936 1084.63C955.936 1084.63 962.436 1181.7 770.47 1191.67C578.503 1201.63 347.537 1140.53 341.903 1105C336.703 1068.6 267.37 1010.1 267.37 1010.1Z" fill="white"/>
<path d="M996.236 1525.33C724.103 1651 276.036 1537.47 276.036 1537.47C276.036 1537.47 266.936 1426.97 299.869 1228.07C301.169 1218.97 302.47 1209.87 303.336 1201.63C312.87 1111.5 290.77 1049.53 267.37 1010.53C267.37 1000.57 277.77 993.633 289.47 983.667C294.236 979.767 379.603 926.9 383.07 929.5C389.136 938.167 394.769 946.833 399.536 955.933C448.069 1045.63 464.97 1141.83 565.936 1155.7C665.603 1169.57 761.803 1167.4 830.703 1152.23C897.003 1137.5 852.803 1027.43 823.336 973.267C822.036 971.1 822.036 970.233 820.736 969.367C830.703 962.867 946.403 1051.7 955.503 1084.63C974.569 1132.3 979.769 1167.83 985.403 1214.2C1004.04 1366.3 996.236 1525.33 996.236 1525.33Z" fill="#77A0E0"/>
<path d="M401.269 1152.67C416.586 1152.67 429.003 1140.25 429.003 1124.93C429.003 1109.62 416.586 1097.2 401.269 1097.2C385.953 1097.2 373.536 1109.62 373.536 1124.93C373.536 1140.25 385.953 1152.67 401.269 1152.67Z" fill="#647184"/>
<path d="M918.237 1164.37C932.118 1164.37 943.37 1153.11 943.37 1139.23C943.37 1125.35 932.118 1114.1 918.237 1114.1C904.356 1114.1 893.104 1125.35 893.104 1139.23C893.104 1153.11 904.356 1164.37 918.237 1164.37Z" fill="#647184"/>
<path d="M594.97 1203.8C660.836 1207.7 743.17 1209 812.07 1199.03C858.436 1192.53 900.47 1226.77 903.936 1273.13C906.97 1319.07 908.27 1374.97 900.903 1423.93C885.736 1529.67 507.436 1524.47 501.37 1431.3C497.903 1383.2 494.87 1344.2 491.403 1312.13C484.903 1251.9 534.303 1200.33 594.97 1203.8Z" stroke="#647184" stroke-width="13" stroke-miterlimit="10"/>
<path d="M721.07 1054.73C721.07 1054.73 641.77 1150.93 617.504 1143.57C593.237 1136.2 442.437 1056.03 418.604 919.1C418.604 919.1 437.237 888.767 453.704 879.233C453.704 879.233 499.204 959.4 581.537 1007.5C659.97 1053 721.07 1054.73 721.07 1054.73Z" fill="white"/>
<path d="M721.07 1054.73C721.07 1054.73 641.77 1150.93 617.504 1143.57C593.237 1136.2 442.437 1056.03 418.604 919.1" stroke="#D0D6DD" stroke-width="13" stroke-miterlimit="10" stroke-linecap="round" stroke-linejoin="round"/>
<path d="M721.069 1054.73C721.069 1054.73 782.603 1126.67 802.969 1127.53C823.336 1128.4 832.003 1001.87 770.903 937.733C770.903 937.733 761.369 940.333 757.469 941.2C757.036 940.767 787.803 1033.07 721.069 1054.73Z" fill="white"/>
<path d="M721.069 1054.73C721.069 1054.73 782.603 1126.67 802.969 1127.53C823.336 1128.4 832.003 1001.87 770.903 937.733" stroke="#D0D6DD" stroke-width="13" stroke-miterlimit="10" stroke-linecap="round" stroke-linejoin="round"/>
<path d="M715.003 1061.67C715.003 1061.67 702.869 1075.1 707.203 1104.57C711.536 1133.6 710.669 1162.63 710.669 1162.63" stroke="#D0D6DD" stroke-width="13" stroke-miterlimit="10" stroke-linecap="round" stroke-linejoin="round"/>
<path d="M737.103 1126.67C742.608 1126.67 747.07 1122.2 747.07 1116.7C747.07 1111.2 742.608 1106.73 737.103 1106.73C731.599 1106.73 727.137 1111.2 727.137 1116.7C727.137 1122.2 731.599 1126.67 737.103 1126.67Z" fill="#D0D6DD"/>
<path d="M683.943 619.439C673.543 619.005 665.743 610.339 666.61 599.939L667.043 587.805C667.476 577.405 676.143 569.605 686.543 570.472C696.943 570.905 704.743 579.572 703.876 589.972L703.443 602.105C703.01 612.072 694.343 619.872 683.943 619.439Z" fill="#423232"/>
<path d="M866.375 625.939C856.842 625.506 849.475 617.272 849.909 607.739L850.342 596.472C850.775 586.939 859.009 579.572 868.542 580.005C878.075 580.439 885.442 588.672 885.009 598.205L884.575 609.472C884.142 619.005 875.909 626.372 866.375 625.939Z" fill="#423232"/>
<path d="M725.977 594.306C725.977 594.306 714.71 578.273 695.21 575.239C679.177 572.639 661.41 580.439 658.81 589.539" stroke="#423232" stroke-width="13" stroke-miterlimit="10" stroke-linecap="round" stroke-linejoin="round"/>
<path d="M853.809 598.206C853.809 598.206 853.809 584.339 873.743 584.339C890.209 584.339 897.143 599.506 897.143 599.506" stroke="#423232" stroke-width="13" stroke-miterlimit="10" stroke-linecap="round" stroke-linejoin="round"/>
<path d="M743.743 524.539C752.843 527.572 761.943 519.339 760.209 509.372C759.343 504.172 757.176 498.972 752.843 495.072C739.843 483.372 686.109 472.973 653.609 488.139C625.009 502.006 702.143 510.672 743.743 524.539Z" fill="#423232"/>
<path d="M873.308 531.473C865.941 534.073 858.141 526.273 859.441 517.173C859.874 512.406 861.608 507.639 865.074 504.173C875.474 493.773 911.008 485.539 933.541 501.573C953.041 515.006 907.108 518.906 873.308 531.473Z" fill="#423232"/>
<path d="M809.297 750.856C809.297 750.856 820.564 744.789 826.631 755.189C832.697 765.589 817.964 777.289 817.964 777.289C817.964 777.289 834.431 789.423 823.164 804.589C814.064 816.723 800.197 815.856 800.197 815.856" stroke="#423232" stroke-width="13" stroke-miterlimit="10" stroke-linecap="round" stroke-linejoin="round"/>
<path d="M338.655 486.456C321.322 612.989 378.088 700.089 408.422 736.489C443.088 778.089 446.122 809.722 446.122 809.722C463.888 799.756 486.422 755.122 486.855 731.722C378.522 690.122 398.022 569.222 450.888 562.289C506.355 555.356 523.688 604.756 526.722 616.889C540.588 600.422 539.722 506.822 555.755 448.322C485.988 473.456 412.322 486.889 338.655 486.456Z" fill="#99807F"/>
<path d="M890.722 323.523C863.855 310.523 840.888 283.223 807.088 269.789C609.488 189.623 397.588 271.523 351.222 429.689C345.155 449.623 341.255 468.689 338.655 486.889C412.322 487.323 486.422 473.456 555.755 448.756C562.688 423.623 572.655 404.556 588.688 401.089C672.322 382.889 750.755 373.789 849.988 387.223C886.822 392.423 914.988 375.523 934.055 422.323C937.088 431.423 939.688 440.523 941.855 450.056C948.788 480.823 952.255 506.823 940.555 572.689C948.355 560.123 958.322 533.256 962.655 510.289C976.522 429.256 970.022 361.656 890.722 323.523Z" fill="#423232"/>
<path d="M945.755 468.256C950.089 489.056 976.522 487.322 980.422 466.522C986.055 436.189 988.655 399.789 983.889 358.622C961.355 166.222 770.255 101.222 807.089 229.489C807.089 229.489 756.822 148.889 643.722 144.556C546.655 141.089 605.589 209.989 605.589 209.989C605.589 209.989 486.855 166.656 359.022 231.656C247.655 288.422 350.789 338.256 350.789 338.256C350.789 338.256 266.289 382.889 264.989 479.089C264.122 551.022 496.822 554.056 585.222 501.622C631.155 474.322 652.822 427.089 699.622 399.356C781.522 350.389 802.755 460.889 846.522 420.156C897.655 373.356 934.489 410.622 945.755 468.256Z" fill="#423232"/>
<path d="M477.158 636.126C477.158 636.126 442.492 630.926 445.092 679.459C446.392 704.159 446.392 717.592 445.958 724.526C445.525 729.292 448.558 733.626 452.892 735.359C458.092 737.526 463.725 735.359 466.325 730.159C470.225 723.226 474.558 713.692 474.558 705.892C474.558 692.892 488.425 681.192 488.425 681.192C488.425 681.192 475.858 670.359 477.158 636.126Z" fill="white"/>
<path d="M582.025 1471.59C578.559 1467.69 442.492 1234.99 462.859 1147.46C476.725 1087.23 458.525 1017.89 442.492 956.793C435.992 931.66 429.925 908.26 426.458 887.46C420.392 851.493 424.725 817.26 439.458 785.626C455.492 750.093 452.892 719.326 452.892 718.893L461.559 718.026C461.559 719.326 464.158 751.826 447.259 789.093C433.392 818.993 429.492 851.926 435.125 886.16C438.592 906.526 444.659 929.926 451.159 955.06C467.625 1017.03 485.825 1087.66 471.525 1150.06C452.459 1233.26 588.092 1465.96 588.958 1466.83L582.025 1471.59Z" fill="white"/>
<path d="M446.392 704.593C446.826 714.126 446.392 720.626 446.392 724.526C445.959 729.292 448.992 733.626 453.326 735.359C458.526 737.526 464.159 735.359 466.759 730.159C470.659 723.226 474.992 713.692 474.992 705.892C474.992 705.459 474.992 704.593 474.992 704.159C465.892 707.626 455.492 710.226 446.392 704.593Z" fill="#E5E5E5"/>
<path d="M854.158 992.759C851.125 1012.69 850.692 1044.33 849.825 1081.16C848.525 1152.23 806.492 1429.13 786.125 1472.89L778.325 1469.43C797.825 1426.96 839.858 1151.36 841.158 1081.16C842.025 1044.33 842.458 1012.26 845.492 991.459C851.992 947.693 847.225 914.759 844.625 900.893C845.925 899.593 847.225 898.726 848.525 897.426C849.825 896.559 850.692 895.259 851.992 894.393C854.592 905.659 861.958 941.626 854.158 992.759Z" fill="white"/>
</g>
</svg>
