<svg width="16" height="15" viewBox="0 0 16 15" fill="none" xmlns="http://www.w3.org/2000/svg">
<path fill-rule="evenodd" clip-rule="evenodd" d="M1 7.5C1 9.24048 1.7375 10.9097 3.05025 12.1404C4.36301 13.3711 6.14348 14.0625 8 14.0625C9.85652 14.0625 11.637 13.3711 12.9497 12.1404C14.2625 10.9097 15 9.24048 15 7.5C15 5.75952 14.2625 4.09032 12.9497 2.85961C11.637 1.6289 9.85652 0.9375 8 0.9375C6.14348 0.9375 4.36301 1.6289 3.05025 2.85961C1.7375 4.09032 1 5.75952 1 7.5ZM16 7.5C16 9.48912 15.1571 11.3968 13.6569 12.8033C12.1566 14.2098 10.1217 15 8 15C5.87827 15 3.84344 14.2098 2.34315 12.8033C0.842855 11.3968 0 9.48912 0 7.5C0 5.51088 0.842855 3.60322 2.34315 2.1967C3.84344 0.790176 5.87827 0 8 0C10.1217 0 12.1566 0.790176 13.6569 2.1967C15.1571 3.60322 16 5.51088 16 7.5ZM4.5 7.03125C4.36739 7.03125 4.24021 7.08064 4.14645 7.16854C4.05268 7.25645 4 7.37568 4 7.5C4 7.62432 4.05268 7.74355 4.14645 7.83146C4.24021 7.91936 4.36739 7.96875 4.5 7.96875H10.293L8.146 9.98063C8.09951 10.0242 8.06264 10.0759 8.03748 10.1329C8.01232 10.1898 7.99937 10.2509 7.99937 10.3125C7.99937 10.3741 8.01232 10.4352 8.03748 10.4921C8.06264 10.5491 8.09951 10.6008 8.146 10.6444C8.19249 10.688 8.24768 10.7225 8.30842 10.7461C8.36916 10.7697 8.43426 10.7818 8.5 10.7818C8.56574 10.7818 8.63084 10.7697 8.69158 10.7461C8.75232 10.7225 8.80751 10.688 8.854 10.6444L11.854 7.83187C11.9006 7.78833 11.9375 7.7366 11.9627 7.67966C11.9879 7.62271 12.0009 7.56166 12.0009 7.5C12.0009 7.43834 11.9879 7.37729 11.9627 7.32034C11.9375 7.26339 11.9006 7.21167 11.854 7.16813L8.854 4.35563C8.80751 4.31204 8.75232 4.27747 8.69158 4.25388C8.63084 4.2303 8.56574 4.21816 8.5 4.21816C8.43426 4.21816 8.36916 4.2303 8.30842 4.25388C8.24768 4.27747 8.19249 4.31204 8.146 4.35563C8.09951 4.39921 8.06264 4.45095 8.03748 4.50789C8.01232 4.56483 7.99937 4.62586 7.99937 4.6875C7.99937 4.74914 8.01232 4.81017 8.03748 4.86711C8.06264 4.92405 8.09951 4.97579 8.146 5.01937L10.293 7.03125H4.5Z" fill="white"/>
</svg>
