<svg width="448" height="405" viewBox="0 0 448 405" fill="none" xmlns="http://www.w3.org/2000/svg">
<path fill-rule="evenodd" clip-rule="evenodd" d="M206.592 3.71524C255.477 12.3319 276.023 60.0994 314.85 86.6175C350.648 111.067 402.077 118.715 424.61 152.618C449.364 189.862 451.435 234.979 441.258 276.813C430.179 322.357 414.481 376.012 365.217 396.782C316.129 417.476 259.383 388.365 206.592 375.745C168.564 366.654 135.538 351.66 102.091 333.881C65.8428 314.612 17.4511 302.352 3.95136 268.027C-9.55739 233.68 27.1939 201.04 35.9079 165.604C46.2398 123.59 25.8338 73.68 59.6252 41.6299C94.5404 8.51389 155.191 -5.34512 206.592 3.71524Z" fill="#1D1075" stroke="black" stroke-width="2"/>
</svg>
