<svg width="50" height="82" viewBox="0 0 50 82" fill="none" xmlns="http://www.w3.org/2000/svg">
<path d="M37 63.25C36.5208 63.0833 35.4896 63 33.9062 63H20.875C19.7917 63 18.9271 62.8333 18.2812 62.5C17.6354 62.1458 17.3125 61.5104 17.3125 60.5938C17.3125 59.9271 17.4688 59.3958 17.7812 59C18.6146 59.2083 19.375 59.3125 20.0625 59.3125C20.7708 59.3125 21.3229 59.2396 21.7188 59.0938C22.1354 58.9479 22.4896 58.6875 22.7812 58.3125C23.4271 57.5208 23.7708 56.2188 23.8125 54.4062V22.4688C23.8125 20.8229 23.3542 19.7917 22.4375 19.375C22.1458 19.2292 21.75 19.1042 21.25 19C20.75 18.8958 20.25 18.7917 19.75 18.6875C19.2708 18.5625 18.8646 18.4167 18.5312 18.25C17.8646 17.9167 17.5312 17.3542 17.5312 16.5625C17.5312 15.7917 17.6875 15.2188 18 14.8438C18.4792 15.0104 19.5104 15.0938 21.0938 15.0938H33.8125C34.8958 15.0938 35.7604 15.2708 36.4062 15.625C37.0729 15.9583 37.4062 16.5833 37.4062 17.5C37.4062 18.1875 37.2396 18.7188 36.9062 19.0938C36.1146 18.8854 35.25 18.7812 34.3125 18.7812C32.2917 18.7812 31.25 20.4271 31.1875 23.7188V55.625C31.1875 57.2708 31.6458 58.3125 32.5625 58.75C32.8542 58.875 33.25 58.9896 33.75 59.0938C34.25 59.1979 34.7396 59.3125 35.2188 59.4375C35.7188 59.5417 36.1354 59.6771 36.4688 59.8438C37.1562 60.1979 37.5 60.7604 37.5 61.5312C37.5 62.2604 37.3333 62.8333 37 63.25Z" fill="white"/>
<mask id="mask0_137_17" style="mask-type:alpha" maskUnits="userSpaceOnUse" x="0" y="30" width="50" height="52">
<path d="M46.5 30L0 55C7.66667 63.8333 23.3 81.4 24.5 81C25.7 80.6 42 69.8333 50 64.5L46.5 30Z" fill="#C4C4C4"/>
</mask>
<g mask="url(#mask0_137_17)">
<path d="M37 63.25C36.5208 63.0833 35.4896 63 33.9062 63H20.875C19.7917 63 18.9271 62.8333 18.2812 62.5C17.6354 62.1458 17.3125 61.5104 17.3125 60.5938C17.3125 59.9271 17.4688 59.3958 17.7812 59C18.6146 59.2083 19.375 59.3125 20.0625 59.3125C20.7708 59.3125 21.3229 59.2396 21.7188 59.0938C22.1354 58.9479 22.4896 58.6875 22.7812 58.3125C23.4271 57.5208 23.7708 56.2188 23.8125 54.4062V22.4688C23.8125 20.8229 23.3542 19.7917 22.4375 19.375C22.1458 19.2292 21.75 19.1042 21.25 19C20.75 18.8958 20.25 18.7917 19.75 18.6875C19.2708 18.5625 18.8646 18.4167 18.5312 18.25C17.8646 17.9167 17.5312 17.3542 17.5312 16.5625C17.5312 15.7917 17.6875 15.2188 18 14.8438C18.4792 15.0104 19.5104 15.0938 21.0938 15.0938H33.8125C34.8958 15.0938 35.7604 15.2708 36.4062 15.625C37.0729 15.9583 37.4062 16.5833 37.4062 17.5C37.4062 18.1875 37.2396 18.7188 36.9062 19.0938C36.1146 18.8854 35.25 18.7812 34.3125 18.7812C32.2917 18.7812 31.25 20.4271 31.1875 23.7188V55.625C31.1875 57.2708 31.6458 58.3125 32.5625 58.75C32.8542 58.875 33.25 58.9896 33.75 59.0938C34.25 59.1979 34.7396 59.3125 35.2188 59.4375C35.7188 59.5417 36.1354 59.6771 36.4688 59.8438C37.1562 60.1979 37.5 60.7604 37.5 61.5312C37.5 62.2604 37.3333 62.8333 37 63.25Z" fill="#251596"/>
</g>
</svg>
