<svg width="230" height="168" viewBox="0 0 230 168" fill="none" xmlns="http://www.w3.org/2000/svg">
<g filter="url(#filter0_dii_138_19)">
<path d="M82.5343 136.335C82.027 136.332 81.0238 136.584 79.5245 137.094L67.1855 141.284C66.1597 141.633 65.2875 141.753 64.5687 141.645C63.8433 141.517 63.3332 141.019 63.0384 140.152C62.824 139.52 62.8011 138.967 62.9697 138.492C63.8258 138.421 64.5793 138.275 65.2303 138.054C65.901 137.826 66.4003 137.58 66.7282 137.314C67.0759 137.042 67.3275 136.682 67.483 136.233C67.84 135.275 67.7467 133.932 67.2033 132.202L56.9326 101.961C56.4033 100.403 55.6377 99.5739 54.6358 99.4742C54.3127 99.4299 53.8977 99.4388 53.3907 99.501C52.8838 99.5631 52.3769 99.6253 51.8699 99.6875C51.376 99.7232 50.9444 99.7157 50.5752 99.6651C49.8368 99.5639 49.3402 99.1385 49.0857 98.3889C48.8378 97.659 48.8015 97.0662 48.9768 96.6107C49.4841 96.6144 50.4874 96.3616 51.9866 95.8525L64.0297 91.7623C65.0555 91.4139 65.9311 91.3035 66.6565 91.4312C67.395 91.5324 67.9116 92.017 68.2064 92.885C68.4275 93.536 68.4405 94.0926 68.2455 94.5549C67.4289 94.6122 66.5767 94.7916 65.689 95.0931C63.7755 95.743 63.3185 97.6364 64.3178 100.773L74.5785 130.985C75.1078 132.543 75.8767 133.382 76.8854 133.501C77.2018 133.526 77.6134 133.507 78.1204 133.445C78.6273 133.383 79.1277 133.334 79.6216 133.298C80.1286 133.236 80.5667 133.23 80.9359 133.281C81.7008 133.395 82.2072 133.817 82.455 134.547C82.6895 135.238 82.716 135.834 82.5343 136.335ZM112.09 121.908C110.004 125.807 107.126 128.379 103.457 129.626C99.4127 130.999 95.6494 130.737 92.1667 128.84C88.3732 126.74 85.5686 123.017 83.753 117.671C81.7096 111.654 81.9615 106.112 84.5089 101.045C86.8868 96.3205 90.5121 93.1311 95.3846 91.4763C97.3375 90.813 99.3221 90.502 101.338 90.5433L98.434 81.9918C97.965 80.6109 97.5288 79.78 97.1253 79.499C96.4572 79.0218 95.6102 78.9574 94.5844 79.3058C94.1505 79.4532 93.7332 79.6499 93.3327 79.896C92.9453 80.1156 92.6494 80.2161 92.445 80.1975C92.2537 80.1524 92.082 80.0677 91.9297 79.9434C91.3141 79.4264 91.5259 78.4304 92.5651 76.9554C94.1923 74.6206 96.0613 73.0947 98.1721 72.3778C100.401 71.6208 102.086 72.4018 103.225 74.721C103.552 75.4241 103.853 76.18 104.128 76.9888L115.795 111.343C116.827 114.381 117.588 116.234 118.08 116.903C118.571 117.573 119.015 117.972 119.411 118.102C119.82 118.205 120.271 118.173 120.764 118.005C121.257 117.838 121.635 117.621 121.897 117.356L122.654 116.67C122.89 116.524 123.157 116.565 123.455 116.794C124.077 117.265 124.324 117.797 124.195 118.391C124.067 118.984 123.784 119.609 123.346 120.263C122.908 120.918 122.382 121.537 121.766 122.12C119.059 124.646 116.682 125.486 114.635 124.641C113.638 124.232 112.789 123.321 112.09 121.908ZM103.378 96.5501C100.943 95.7272 98.4426 95.7512 95.8781 96.6221C92.8008 97.6673 90.6906 99.6491 89.5476 102.568C88.3201 105.691 88.4165 109.343 89.8368 113.525C92.0946 120.173 95.3819 123.633 99.6987 123.905C101.043 123.977 102.268 123.825 103.372 123.45C104.497 123.068 105.404 122.661 106.093 122.229C106.782 121.797 107.402 121.322 107.953 120.805C109.054 119.771 109.904 118.679 110.504 117.529L103.378 96.5501ZM122.898 75.9933C122.227 76.2211 121.573 76.3335 120.934 76.3305C120.307 76.3011 119.72 76.1595 119.172 75.9056C118.023 75.3719 117.21 74.4047 116.735 73.0042C116.279 71.6627 116.407 70.3543 117.118 69.0787C117.789 67.8166 118.815 66.951 120.196 66.482C121.577 66.0131 122.822 66.0521 123.932 66.5993C125.042 67.1464 125.838 68.1301 126.321 69.5504C126.776 70.8919 126.668 72.1936 125.997 73.4558C125.332 74.6718 124.299 75.5176 122.898 75.9933ZM135.213 118.18C132.175 119.212 130.422 119.037 129.953 117.657C129.711 116.946 129.682 116.34 129.863 115.839C130.39 115.836 130.851 115.767 131.246 115.633C133.08 115.01 133.582 113.542 132.752 111.227L126.019 91.4019C125.55 90.021 125.028 89.1312 124.453 88.7326C123.89 88.3076 123.116 88.2625 122.129 88.5975C121.4 88.8454 120.769 89.1586 120.237 89.5372C119.896 89.6972 119.545 89.5081 119.187 88.9699C118.868 88.4842 118.789 87.9938 118.951 87.4988C119.106 86.984 119.416 86.4058 119.88 85.7641C120.357 85.096 120.914 84.467 121.549 83.8771C122.906 82.5584 124.126 81.7148 125.211 81.3463C126.296 80.9778 127.149 80.8643 127.769 81.0057C128.409 81.1404 128.957 81.4272 129.414 81.866C130.143 82.5866 130.836 83.9135 131.492 85.8467L139.522 109.489C140.11 111.027 140.994 111.783 142.173 111.757C142.503 111.755 142.898 111.72 143.359 111.651C143.819 111.583 144.237 111.551 144.613 111.555C145.002 111.533 145.318 111.558 145.562 111.629C145.985 111.772 146.293 112.129 146.487 112.701C146.728 113.411 146.765 114.004 146.596 114.479C146.148 114.521 145.5 114.686 144.652 114.974L135.213 118.18ZM145.555 96.4499C144.738 94.0433 144.241 91.8028 144.065 89.7285C143.888 87.6543 143.966 85.7465 144.299 84.0054C144.632 82.2642 145.186 80.6898 145.962 79.2821C146.732 77.8547 147.647 76.5978 148.708 75.5113C150.778 73.3782 153.312 71.8025 156.31 70.7841C160.157 69.4777 163.898 69.7695 167.532 71.6595C171.556 73.7252 174.425 77.2831 176.14 82.3331C178.391 88.9613 178.338 94.7328 175.981 99.6477C173.923 103.889 170.705 106.753 166.325 108.241C161.749 109.795 157.534 109.433 153.68 107.156C149.945 104.97 147.237 101.401 145.555 96.4499ZM166.433 102.825C167.755 102.376 168.835 101.668 169.672 100.701C170.504 99.7149 171.1 98.5554 171.461 97.2225C172.157 94.4779 171.895 91.3104 170.676 87.7202C169.336 83.7749 167.428 80.6826 164.951 78.4435C162.137 75.857 159.102 75.1166 155.847 76.222C153.223 77.1131 151.464 78.8327 150.569 81.3808C149.616 84.0807 149.789 87.3442 151.089 91.1712C152.717 95.9647 155.059 99.3938 158.114 101.458C160.859 103.321 163.632 103.776 166.433 102.825ZM192.273 76.2927L194.887 84.085C195.992 87.3399 196.827 89.2457 197.39 89.8025C197.946 90.3396 198.475 90.6001 198.975 90.5841C199.469 90.5484 200.071 90.4099 200.782 90.1687C201.492 89.9276 202.116 89.6605 202.655 89.3676C203.206 89.0482 203.708 88.7127 204.161 88.3609C204.614 88.0092 205.04 87.6445 205.439 87.2667L206.678 86.1528C206.973 85.9206 207.466 86.1385 208.154 86.8066C208.347 86.9834 208.493 87.2198 208.593 87.5157C208.687 87.7918 208.693 88.197 208.61 88.7311C208.527 89.2652 208.241 89.9454 207.752 90.7717C207.276 91.5715 206.661 92.3524 205.907 93.1143C204.276 94.7904 202.672 95.8964 201.094 96.4323C199.535 96.9616 198.233 97.305 197.186 97.4624C196.139 97.6199 195.18 97.5495 194.309 97.2514C192.514 96.6291 191.117 94.8483 190.119 91.909L182.209 68.6217L179.28 69.6166C178.669 69.8243 178.158 69.7778 177.748 69.477C177.066 69.0263 176.655 68.5938 176.515 68.1796C176.28 67.4891 176.317 67.0475 176.626 66.8547C179.582 65.2568 181.01 62.1754 180.912 57.6103C180.865 56.2402 180.661 54.6701 180.302 52.8999C181.196 52.4205 181.879 52.1004 182.352 51.9396C182.845 51.7721 183.353 51.8747 183.876 52.2472C184.398 52.6198 184.76 53.1349 184.962 53.7926C185.183 54.4436 185.381 55.0585 185.555 55.6372C185.73 56.216 185.921 56.8441 186.129 57.5215L187.418 61.7043L197.656 58.2271C198.067 58.5938 198.359 59.0335 198.533 59.5464L198.845 60.4637C199.126 61.2922 198.913 62.1235 198.206 62.9576C197.493 63.772 196.594 64.3635 195.509 64.7319C194.444 65.0937 193.671 65.3452 193.191 65.4862C192.724 65.6009 192.266 65.7121 191.819 65.8201L190.457 66.0847C189.99 66.1994 189.493 66.3241 188.967 66.4588L189.077 66.7843L192.273 76.2927Z" fill="url(#paint0_linear_138_19)"/>
</g>
<defs>
<filter id="filter0_dii_138_19" x="0.319869" y="0.0789709" width="228.85" height="167.708" filterUnits="userSpaceOnUse" color-interpolation-filters="sRGB">
<feFlood flood-opacity="0" result="BackgroundImageFix"/>
<feColorMatrix in="SourceAlpha" type="matrix" values="0 0 0 0 0 0 0 0 0 0 0 0 0 0 0 0 0 0 127 0" result="hardAlpha"/>
<feOffset dx="-13.7147" dy="-8.24061"/>
<feGaussianBlur stdDeviation="16"/>
<feColorMatrix type="matrix" values="0 0 0 0 0.2 0 0 0 0 0.2 0 0 0 0 0.2 0 0 0 0.149 0"/>
<feBlend mode="normal" in2="BackgroundImageFix" result="effect1_dropShadow_138_19"/>
<feBlend mode="normal" in="SourceGraphic" in2="effect1_dropShadow_138_19" result="shape"/>
<feColorMatrix in="SourceAlpha" type="matrix" values="0 0 0 0 0 0 0 0 0 0 0 0 0 0 0 0 0 0 127 0" result="hardAlpha"/>
<feOffset dx="-3.47438" dy="-2.08762"/>
<feGaussianBlur stdDeviation="2.02667"/>
<feComposite in2="hardAlpha" operator="arithmetic" k2="-1" k3="1"/>
<feColorMatrix type="matrix" values="0 0 0 0 1 0 0 0 0 1 0 0 0 0 1 0 0 0 1 0"/>
<feBlend mode="normal" in2="shape" result="effect2_innerShadow_138_19"/>
<feColorMatrix in="SourceAlpha" type="matrix" values="0 0 0 0 0 0 0 0 0 0 0 0 0 0 0 0 0 0 127 0" result="hardAlpha"/>
<feOffset dx="3.47438" dy="2.08762"/>
<feGaussianBlur stdDeviation="2.02667"/>
<feComposite in2="hardAlpha" operator="arithmetic" k2="-1" k3="1"/>
<feColorMatrix type="matrix" values="0 0 0 0 0.865 0 0 0 0 0.865 0 0 0 0 0.865 0 0 0 1 0"/>
<feBlend mode="normal" in2="effect2_innerShadow_138_19" result="effect3_innerShadow_138_19"/>
</filter>
<linearGradient id="paint0_linear_138_19" x1="163.505" y1="111.418" x2="61.6765" y2="49.0762" gradientUnits="userSpaceOnUse">
<stop stop-color="white"/>
<stop offset="1" stop-color="#E3E3E3"/>
</linearGradient>
</defs>
</svg>
