<svg width="220" height="122" viewBox="0 0 220 122" fill="none" xmlns="http://www.w3.org/2000/svg">
<g filter="url(#filter0_dii_136_10)">
<path d="M52.0312 72.25C51.5521 72.0833 50.5208 72 48.9375 72H35.9062C34.8229 72 33.9583 71.8333 33.3125 71.5C32.6667 71.1458 32.3438 70.5104 32.3438 69.5938C32.3438 68.9271 32.5 68.3958 32.8125 68C33.6458 68.2083 34.4062 68.3125 35.0938 68.3125C35.8021 68.3125 36.3542 68.2396 36.75 68.0938C37.1667 67.9479 37.5208 67.6875 37.8125 67.3125C38.4583 66.5208 38.8021 65.2188 38.8438 63.4062V31.4688C38.8438 29.8229 38.3854 28.7917 37.4688 28.375C37.1771 28.2292 36.7812 28.1042 36.2812 28C35.7812 27.8958 35.2812 27.7917 34.7812 27.6875C34.3021 27.5625 33.8958 27.4167 33.5625 27.25C32.8958 26.9167 32.5625 26.3542 32.5625 25.5625C32.5625 24.7917 32.7188 24.2188 33.0312 23.8438C33.5104 24.0104 34.5417 24.0938 36.125 24.0938H48.8438C49.9271 24.0938 50.7917 24.2708 51.4375 24.625C52.1042 24.9583 52.4375 25.5833 52.4375 26.5C52.4375 27.1875 52.2708 27.7188 51.9375 28.0938C51.1458 27.8854 50.2812 27.7812 49.3438 27.7812C47.3229 27.7812 46.2812 29.4271 46.2188 32.7188V64.625C46.2188 66.2708 46.6771 67.3125 47.5938 67.75C47.8854 67.875 48.2812 67.9896 48.7812 68.0938C49.2812 68.1979 49.7708 68.3125 50.25 68.4375C50.75 68.5417 51.1667 68.6771 51.5 68.8438C52.1875 69.1979 52.5312 69.7604 52.5312 70.5312C52.5312 71.2604 52.3646 71.8333 52.0312 72.25ZM84.6562 68.0938C81.4271 71.1146 77.875 72.625 74 72.625C69.7292 72.625 66.25 71.1667 63.5625 68.25C60.6458 65.0417 59.1875 60.6146 59.1875 54.9688C59.1875 48.6146 61.2083 43.4479 65.25 39.4688C69.0208 35.7604 73.4792 33.9062 78.625 33.9062C80.6875 33.9062 82.6667 34.25 84.5625 34.9375V25.9062C84.5625 24.4479 84.4167 23.5208 84.125 23.125C83.6458 22.4583 82.8646 22.125 81.7812 22.125C81.3229 22.125 80.8646 22.1771 80.4062 22.2812C79.9688 22.3646 79.6562 22.3646 79.4688 22.2812C79.3021 22.1771 79.1667 22.0417 79.0625 21.875C78.6458 21.1875 79.1667 20.3125 80.625 19.25C82.9167 17.5625 85.1771 16.7188 87.4062 16.7188C89.7604 16.7188 91.1042 18 91.4375 20.5625C91.5208 21.3333 91.5625 22.1458 91.5625 23V59.2812C91.5625 62.4896 91.6875 64.4896 91.9375 65.2812C92.1875 66.0729 92.4792 66.5938 92.8125 66.8438C93.1667 67.0729 93.6042 67.1875 94.125 67.1875C94.6458 67.1875 95.0729 67.1042 95.4062 66.9375L96.3438 66.5312C96.6146 66.4688 96.8542 66.5938 97.0625 66.9062C97.5 67.5521 97.5625 68.1354 97.25 68.6562C96.9375 69.1771 96.4688 69.6771 95.8438 70.1562C95.2188 70.6354 94.5208 71.0521 93.75 71.4062C90.375 72.9271 87.8542 72.9583 86.1875 71.5C85.375 70.7917 84.8646 69.6562 84.6562 68.0938ZM84.5625 41.2812C82.5208 39.7188 80.1458 38.9375 77.4375 38.9375C74.1875 38.9375 71.5521 40.1354 69.5312 42.5312C67.3646 45.0938 66.2812 48.5833 66.2812 53C66.2812 60.0208 68.2812 64.3542 72.2812 66C73.5312 66.5 74.7396 66.75 75.9062 66.75C77.0938 66.75 78.0833 66.6562 78.875 66.4688C79.6667 66.2812 80.4062 66.0312 81.0938 65.7188C82.4688 65.0938 83.625 64.3333 84.5625 63.4375V41.2812ZM109.656 28.0938C108.948 28.0938 108.292 27.9896 107.688 27.7812C107.104 27.5521 106.594 27.2292 106.156 26.8125C105.24 25.9375 104.781 24.7604 104.781 23.2812C104.781 21.8646 105.323 20.6667 106.406 19.6875C107.448 18.7083 108.698 18.2188 110.156 18.2188C111.615 18.2188 112.781 18.6562 113.656 19.5312C114.531 20.4062 114.969 21.5938 114.969 23.0938C114.969 24.5104 114.448 25.7083 113.406 26.6875C112.385 27.625 111.135 28.0938 109.656 28.0938ZM107.75 72C104.542 72 102.938 71.2708 102.938 69.8125C102.938 69.0625 103.104 68.4792 103.438 68.0625C103.938 68.2292 104.396 68.3125 104.812 68.3125C106.75 68.3125 107.698 67.0833 107.656 64.625V43.6875C107.656 42.2292 107.448 41.2188 107.031 40.6562C106.635 40.0729 105.917 39.7812 104.875 39.7812C104.104 39.7812 103.406 39.875 102.781 40.0625C102.406 40.1042 102.135 39.8125 101.969 39.1875C101.823 38.625 101.906 38.1354 102.219 37.7188C102.531 37.2812 103.01 36.8333 103.656 36.375C104.323 35.8958 105.052 35.4792 105.844 35.125C107.552 34.3125 108.979 33.9062 110.125 33.9062C111.271 33.9062 112.115 34.0729 112.656 34.4062C113.219 34.7396 113.646 35.1875 113.938 35.75C114.396 36.6667 114.625 38.1458 114.625 40.1875V65.1562C114.688 66.8021 115.281 67.8021 116.406 68.1562C116.719 68.2604 117.104 68.3542 117.562 68.4375C118.021 68.5208 118.427 68.625 118.781 68.75C119.156 68.8542 119.448 68.9792 119.656 69.125C120.01 69.3958 120.188 69.8333 120.188 70.4375C120.188 71.1875 120.031 71.7604 119.719 72.1562C119.281 72.0521 118.615 72 117.719 72H107.75ZM124.531 54.75C124.531 52.2083 124.781 49.9271 125.281 47.9062C125.781 45.8854 126.469 44.1042 127.344 42.5625C128.219 41.0208 129.25 39.7083 130.438 38.625C131.625 37.5208 132.896 36.625 134.25 35.9375C136.896 34.5833 139.802 33.9062 142.969 33.9062C147.031 33.9062 150.479 35.3854 153.312 38.3438C156.458 41.5938 158.031 45.8854 158.031 51.2188C158.031 58.2188 156.125 63.6667 152.312 67.5625C149 70.9167 145.031 72.5938 140.406 72.5938C135.573 72.5938 131.698 70.8958 128.781 67.5C125.948 64.2292 124.531 59.9792 124.531 54.75ZM142.25 67.5C143.646 67.5 144.896 67.1771 146 66.5312C147.104 65.8646 148.042 64.9583 148.812 63.8125C150.354 61.4375 151.125 58.3542 151.125 54.5625C151.125 50.3958 150.312 46.8542 148.688 43.9375C146.854 40.5833 144.219 38.9062 140.781 38.9062C138.01 38.9062 135.792 39.9688 134.125 42.0938C132.354 44.3438 131.469 47.4896 131.469 51.5312C131.469 56.5938 132.583 60.5938 134.812 63.5312C136.812 66.1771 139.292 67.5 142.25 67.5ZM175.25 50.6875L175.219 58.9062C175.219 62.3438 175.396 64.4167 175.75 65.125C176.104 65.8125 176.521 66.2292 177 66.375C177.479 66.5 178.094 66.5625 178.844 66.5625C179.594 66.5625 180.271 66.5104 180.875 66.4062C181.5 66.2812 182.083 66.125 182.625 65.9375C183.167 65.75 183.688 65.5417 184.188 65.3125L185.719 64.6562C186.073 64.5312 186.469 64.8958 186.906 65.75C187.031 65.9792 187.094 66.25 187.094 66.5625C187.094 66.8542 186.969 67.2396 186.719 67.7188C186.469 68.1979 185.979 68.75 185.25 69.375C184.542 69.9792 183.708 70.5208 182.75 71C180.667 72.0625 178.792 72.5938 177.125 72.5938C175.479 72.5938 174.135 72.5 173.094 72.3125C172.052 72.125 171.167 71.75 170.438 71.1875C168.938 70.0208 168.188 67.8854 168.188 64.7812V40.1875H165.094C164.448 40.1875 163.979 39.9792 163.688 39.5625C163.188 38.9167 162.938 38.375 162.938 37.9375C162.938 37.2083 163.115 36.8021 163.469 36.7188C166.781 36.1562 169.125 33.6979 170.5 29.3438C170.896 28.0312 171.208 26.4792 171.438 24.6875C172.438 24.5208 173.188 24.4375 173.688 24.4375C174.208 24.4375 174.656 24.6979 175.031 25.2188C175.406 25.7396 175.583 26.3438 175.562 27.0312C175.562 27.7188 175.552 28.3646 175.531 28.9688C175.51 29.5729 175.49 30.2292 175.469 30.9375L175.344 35.3125H186.156C186.427 35.7917 186.562 36.3021 186.562 36.8438V37.8125C186.562 38.6875 186.094 39.4062 185.156 39.9688C184.219 40.5104 183.177 40.7812 182.031 40.7812C180.906 40.7812 180.094 40.7708 179.594 40.75C179.115 40.7083 178.646 40.6667 178.188 40.625L176.812 40.4375C176.333 40.3958 175.823 40.3542 175.281 40.3125V40.6562L175.25 50.6875Z" fill="url(#paint0_linear_136_10)"/>
</g>
<defs>
<filter id="filter0_dii_136_10" x="0.34375" y="0.71875" width="218.75" height="120.969" filterUnits="userSpaceOnUse" color-interpolation-filters="sRGB">
<feFlood flood-opacity="0" result="BackgroundImageFix"/>
<feColorMatrix in="SourceAlpha" type="matrix" values="0 0 0 0 0 0 0 0 0 0 0 0 0 0 0 0 0 0 127 0" result="hardAlpha"/>
<feOffset dy="16"/>
<feGaussianBlur stdDeviation="16"/>
<feColorMatrix type="matrix" values="0 0 0 0 0.2 0 0 0 0 0.2 0 0 0 0 0.2 0 0 0 0.2435 0"/>
<feBlend mode="normal" in2="BackgroundImageFix" result="effect1_dropShadow_136_10"/>
<feBlend mode="normal" in="SourceGraphic" in2="effect1_dropShadow_136_10" result="shape"/>
<feColorMatrix in="SourceAlpha" type="matrix" values="0 0 0 0 0 0 0 0 0 0 0 0 0 0 0 0 0 0 127 0" result="hardAlpha"/>
<feOffset dy="5.01333"/>
<feGaussianBlur stdDeviation="2.50667"/>
<feComposite in2="hardAlpha" operator="arithmetic" k2="-1" k3="1"/>
<feColorMatrix type="matrix" values="0 0 0 0 1 0 0 0 0 1 0 0 0 0 1 0 0 0 1 0"/>
<feBlend mode="normal" in2="shape" result="effect2_innerShadow_136_10"/>
<feColorMatrix in="SourceAlpha" type="matrix" values="0 0 0 0 0 0 0 0 0 0 0 0 0 0 0 0 0 0 127 0" result="hardAlpha"/>
<feOffset dy="-5.01333"/>
<feGaussianBlur stdDeviation="2.50667"/>
<feComposite in2="hardAlpha" operator="arithmetic" k2="-1" k3="1"/>
<feColorMatrix type="matrix" values="0 0 0 0 0.7975 0 0 0 0 0.7975 0 0 0 0 0.7975 0 0 0 1 0"/>
<feBlend mode="normal" in2="effect2_innerShadow_136_10" result="effect3_innerShadow_136_10"/>
</filter>
<linearGradient id="paint0_linear_136_10" x1="109" y1="9" x2="109" y2="89" gradientUnits="userSpaceOnUse">
<stop stop-color="#D6D6D6"/>
<stop offset="1" stop-color="white"/>
</linearGradient>
</defs>
</svg>
